M48
; DRILL file {KiCad (7.0.0)} date Sat Dec  9 11:43:06 2023
; FORMAT={-:-/ absolute / metric / decimal}
; #@! TF.CreationDate,2023-12-09T11:43:06+00:00
; #@! TF.GenerationSoftware,Kicad,Pcbnew,(7.0.0)
; #@! TF.FileFunction,Plated,1,2,PTH
FMAT,2
METRIC
; #@! TA.AperFunction,Plated,PTH,ViaDrill
T1C0.300
; #@! TA.AperFunction,Plated,PTH,ViaDrill
T2C0.400
; #@! TA.AperFunction,Plated,PTH,ComponentDrill
T3C0.600
; #@! TA.AperFunction,Plated,PTH,ComponentDrill
T4C1.000
; #@! TA.AperFunction,Plated,PTH,ComponentDrill
T5C2.000
; #@! TA.AperFunction,Plated,PTH,ComponentDrill
T6C3.000
; #@! TA.AperFunction,Plated,PTH,ComponentDrill
T7C3.048
%
G90
G05
T1
X354.341Y-101.596
X354.459Y-105.202
X355.141Y-101.996
X355.22Y-104.802
X355.6Y-106.362
X355.929Y-102.396
X355.934Y-104.388
X356.728Y-102.801
X356.734Y-104.002
T2
X213.519Y-26.987
X214.312Y-31.75
X217.662Y-24.929
X224.631Y-24.92
X224.631Y-31.75
X227.012Y-26.987
X298.794Y-36.163
X299.577Y-37.0
X301.324Y-37.401
X343.645Y-39.943
X344.458Y-36.382
X344.488Y-40.481
X345.281Y-41.275
X345.458Y-36.382
X346.075Y-42.069
X346.457Y-36.382
X346.869Y-42.862
X347.457Y-36.382
X348.456Y-36.382
X350.309Y-109.198
X353.219Y-36.382
X353.219Y-42.069
X357.188Y-98.425
X357.981Y-84.138
X357.981Y-103.502
X358.481Y-110.95
X359.569Y-41.275
X359.697Y-98.422
X363.081Y-98.55
X363.364Y-93.783
X364.148Y-111.125
X364.331Y-96.837
X365.68Y-103.438
X365.681Y-101.35
X365.716Y-108.549
X366.681Y-102.35
X366.831Y-93.017
X367.304Y-115.911
X367.506Y-31.75
X367.752Y-101.358
X367.752Y-103.43
X367.77Y-110.062
X368.3Y-107.95
X368.815Y-94.023
X369.094Y-115.887
X369.646Y-94.863
X370.22Y-98.7
X370.925Y-93.436
X373.835Y-98.792
X375.444Y-103.499
X377.825Y-39.688
X378.619Y-95.25
X379.406Y-79.381
X381.794Y-27.781
X381.794Y-42.069
X384.969Y-34.925
X384.969Y-43.656
X385.762Y-45.244
X385.968Y-34.925
X386.789Y-24.094
T4
X352.102Y-115.094
X354.642Y-115.094
X357.183Y-115.094
X359.722Y-115.094
X362.262Y-115.094
X370.57Y-20.796
X370.57Y-25.796
X373.949Y-45.239
X376.489Y-45.239
X379.029Y-45.239
X381.569Y-45.239
X385.07Y-20.796
X385.07Y-23.296
X385.07Y-25.796
T6
X21.59Y-20.479
X21.59Y-49.054
X23.971Y-125.254
X26.352Y-68.104
X27.94Y-17.939
X27.94Y-46.514
X28.734Y-87.154
X30.321Y-122.714
X32.703Y-65.564
X33.496Y-106.204
X35.084Y-84.614
X39.846Y-103.664
X40.64Y-49.054
X46.99Y-46.514
X47.784Y-125.254
X50.165Y-68.104
X54.134Y-122.714
X54.927Y-87.154
X56.515Y-65.564
X59.69Y-20.479
X59.69Y-49.054
X61.277Y-84.614
X64.453Y-106.204
X66.04Y-17.939
X66.04Y-46.514
X69.215Y-68.104
X70.802Y-103.664
X71.596Y-125.254
X73.977Y-87.154
X75.565Y-65.564
X77.946Y-122.714
X78.74Y-20.479
X78.74Y-49.054
X80.328Y-84.614
X83.502Y-106.204
X85.09Y-17.939
X85.09Y-46.514
X88.265Y-68.104
X89.852Y-103.664
X93.027Y-87.154
X94.615Y-65.564
X97.79Y-20.479
X97.79Y-49.054
X99.377Y-84.614
X102.552Y-106.204
X104.14Y-17.939
X104.14Y-46.514
X107.315Y-68.104
X108.902Y-103.664
X112.078Y-87.154
X113.665Y-65.564
X116.84Y-20.479
X116.84Y-49.054
X118.427Y-84.614
X121.602Y-106.204
X123.19Y-17.939
X123.19Y-46.514
X126.365Y-68.104
X127.953Y-103.664
X131.127Y-87.154
X132.715Y-65.564
X135.89Y-49.054
X137.477Y-84.614
X140.653Y-106.204
X142.24Y-46.514
X143.034Y-125.254
X145.415Y-20.479
X145.415Y-68.104
X147.002Y-103.664
X149.384Y-122.714
X150.177Y-87.154
X151.765Y-17.939
X151.765Y-65.564
X154.94Y-49.054
X156.528Y-84.614
X159.702Y-106.204
X161.29Y-46.514
X164.465Y-20.479
X164.465Y-68.104
X166.052Y-103.664
X169.227Y-87.154
X170.815Y-17.939
X170.815Y-65.564
X173.99Y-49.054
X175.577Y-84.614
X178.752Y-106.204
X180.34Y-46.514
X183.515Y-20.479
X183.515Y-68.104
X185.102Y-103.664
X188.278Y-87.154
X189.865Y-17.939
X189.865Y-65.564
X193.04Y-49.054
X194.627Y-84.614
X197.802Y-106.204
X199.39Y-46.514
X202.565Y-20.479
X202.565Y-68.104
X204.153Y-103.664
X207.327Y-87.154
X208.915Y-17.939
X208.915Y-65.564
X212.09Y-49.054
X213.677Y-84.614
X214.471Y-125.254
X216.852Y-106.204
X218.44Y-46.514
X220.821Y-122.714
X221.615Y-68.104
X223.202Y-103.664
X226.377Y-87.154
X227.965Y-65.564
X231.14Y-20.479
X231.14Y-49.054
X232.727Y-84.614
X235.903Y-106.204
X237.49Y-17.939
X237.49Y-46.514
X238.284Y-125.254
X240.665Y-68.104
X242.252Y-103.664
X244.634Y-122.714
X245.427Y-87.154
X247.015Y-65.564
X250.19Y-20.479
X250.19Y-49.054
X251.777Y-84.614
X256.54Y-17.939
X256.54Y-46.514
X259.715Y-68.104
X262.096Y-125.254
X264.477Y-87.154
X266.065Y-65.564
X268.446Y-122.714
X269.24Y-20.479
X270.827Y-84.614
X271.621Y-106.204
X275.59Y-17.939
X277.971Y-103.664
X278.765Y-49.054
X285.115Y-46.514
X285.909Y-77.629
X285.909Y-125.254
X288.29Y-20.479
X292.259Y-75.089
X292.259Y-122.714
X294.64Y-17.939
X312.102Y-20.479
X312.102Y-49.054
X312.102Y-68.104
X312.102Y-125.254
X318.452Y-17.939
X318.452Y-46.514
X318.452Y-65.564
X318.452Y-122.714
X331.152Y-20.479
X331.152Y-49.054
X331.152Y-68.104
X331.152Y-106.204
X331.152Y-125.254
X337.502Y-17.939
X337.502Y-46.514
X337.502Y-65.564
X337.502Y-103.664
X337.502Y-122.714
X350.202Y-20.479
X350.202Y-49.054
X350.202Y-68.104
X350.202Y-125.254
X356.553Y-17.939
X356.553Y-46.514
X356.553Y-65.564
X356.553Y-122.714
T7
X25.4Y-115.729
X49.212Y-115.729
X96.837Y-134.779
X196.85Y-134.779
X263.525Y-115.729
X270.669Y-58.579
X287.337Y-115.729
X294.481Y-58.579
X296.704Y-68.263
X296.704Y-92.075
T3
G00X216.343Y-15.319
M15
G01X216.343Y-15.919
M16
G05
G00X216.343Y-19.249
M15
G01X216.343Y-20.349
M16
G05
G00X224.982Y-15.319
M15
G01X224.982Y-15.919
M16
G05
G00X224.982Y-19.249
M15
G01X224.982Y-20.349
M16
G05
T5
G00X377.7Y-17.446
M15
G01X377.2Y-17.446
M16
G05
G00X377.7Y-29.146
M15
G01X377.2Y-29.146
M16
G05
T0
M30
