M48
; DRILL file {KiCad (7.0.0)} date Sat Dec  9 11:43:06 2023
; FORMAT={-:-/ absolute / metric / decimal}
; #@! TF.CreationDate,2023-12-09T11:43:06+00:00
; #@! TF.GenerationSoftware,Kicad,Pcbnew,(7.0.0)
; #@! TF.FileFunction,NonPlated,1,2,NPTH
FMAT,2
METRIC
; #@! TA.AperFunction,NonPlated,NPTH,ComponentDrill
T1C0.650
; #@! TA.AperFunction,NonPlated,NPTH,ComponentDrill
T2C1.750
; #@! TA.AperFunction,NonPlated,NPTH,ComponentDrill
T3C3.988
%
G90
G05
T1
X217.772Y-19.269
X223.552Y-19.269
T2
X20.32Y-23.019
X20.32Y-51.594
X22.701Y-127.794
X25.082Y-70.644
X27.464Y-89.694
X30.48Y-23.019
X30.48Y-51.594
X32.226Y-108.744
X32.861Y-127.794
X35.242Y-70.644
X37.624Y-89.694
X39.37Y-51.594
X42.386Y-108.744
X46.514Y-127.794
X48.895Y-70.644
X49.53Y-51.594
X53.657Y-89.694
X56.674Y-127.794
X58.42Y-23.019
X58.42Y-51.594
X59.055Y-70.644
X63.182Y-108.744
X63.817Y-89.694
X67.945Y-70.644
X68.58Y-23.019
X68.58Y-51.594
X70.326Y-127.794
X72.707Y-89.694
X73.343Y-108.744
X77.47Y-23.019
X77.47Y-51.594
X78.105Y-70.644
X80.486Y-127.794
X82.233Y-108.744
X82.867Y-89.694
X86.995Y-70.644
X87.63Y-23.019
X87.63Y-51.594
X91.757Y-89.694
X92.392Y-108.744
X96.52Y-23.019
X96.52Y-51.594
X97.155Y-70.644
X101.282Y-108.744
X101.917Y-89.694
X106.045Y-70.644
X106.68Y-23.019
X106.68Y-51.594
X110.807Y-89.694
X111.442Y-108.744
X115.57Y-23.019
X115.57Y-51.594
X116.205Y-70.644
X120.332Y-108.744
X120.968Y-89.694
X125.095Y-70.644
X125.73Y-23.019
X125.73Y-51.594
X129.857Y-89.694
X130.493Y-108.744
X134.62Y-51.594
X135.255Y-70.644
X139.382Y-108.744
X140.017Y-89.694
X141.764Y-127.794
X144.145Y-23.019
X144.145Y-70.644
X144.78Y-51.594
X148.907Y-89.694
X149.542Y-108.744
X151.924Y-127.794
X153.67Y-51.594
X154.305Y-23.019
X154.305Y-70.644
X158.433Y-108.744
X159.067Y-89.694
X163.195Y-23.019
X163.195Y-70.644
X163.83Y-51.594
X167.957Y-89.694
X168.593Y-108.744
X172.72Y-51.594
X173.355Y-23.019
X173.355Y-70.644
X177.482Y-108.744
X178.117Y-89.694
X182.245Y-23.019
X182.245Y-70.644
X182.88Y-51.594
X187.007Y-89.694
X187.642Y-108.744
X191.77Y-51.594
X192.405Y-23.019
X192.405Y-70.644
X196.532Y-108.744
X197.167Y-89.694
X201.295Y-23.019
X201.295Y-70.644
X201.93Y-51.594
X206.058Y-89.694
X206.692Y-108.744
X210.82Y-51.594
X211.455Y-23.019
X211.455Y-70.644
X213.201Y-127.794
X215.582Y-108.744
X216.218Y-89.694
X220.345Y-70.644
X220.98Y-51.594
X223.361Y-127.794
X225.107Y-89.694
X225.742Y-108.744
X229.87Y-23.019
X229.87Y-51.594
X230.505Y-70.644
X234.632Y-108.744
X235.267Y-89.694
X237.014Y-127.794
X239.395Y-70.644
X240.03Y-23.019
X240.03Y-51.594
X244.157Y-89.694
X244.792Y-108.744
X247.174Y-127.794
X248.92Y-23.019
X248.92Y-51.594
X249.555Y-70.644
X254.317Y-89.694
X258.445Y-70.644
X259.08Y-23.019
X259.08Y-51.594
X260.826Y-127.794
X263.207Y-89.694
X267.97Y-23.019
X268.605Y-70.644
X270.351Y-108.744
X270.986Y-127.794
X273.368Y-89.694
X277.495Y-51.594
X278.13Y-23.019
X280.511Y-108.744
X284.639Y-80.169
X284.639Y-127.794
X287.02Y-23.019
X287.655Y-51.594
X294.799Y-80.169
X294.799Y-127.794
X297.18Y-23.019
X310.832Y-23.019
X310.832Y-51.594
X310.832Y-70.644
X310.832Y-127.794
X320.993Y-23.019
X320.993Y-51.594
X320.993Y-70.644
X320.993Y-127.794
X329.882Y-23.019
X329.882Y-51.594
X329.882Y-70.644
X329.882Y-108.744
X329.882Y-127.794
X340.042Y-23.019
X340.042Y-51.594
X340.042Y-70.644
X340.042Y-108.744
X340.042Y-127.794
X348.933Y-23.019
X348.933Y-51.594
X348.933Y-70.644
X348.933Y-127.794
X359.092Y-23.019
X359.092Y-51.594
X359.092Y-70.644
X359.092Y-127.794
T3
X25.4Y-23.019
X25.4Y-51.594
X25.4Y-100.489
X27.781Y-127.794
X30.162Y-70.644
X32.544Y-89.694
X37.306Y-108.744
X44.45Y-51.594
X49.212Y-100.489
X51.594Y-127.794
X53.975Y-70.644
X58.737Y-89.694
X63.5Y-23.019
X63.5Y-51.594
X68.263Y-108.744
X73.025Y-70.644
X75.406Y-127.794
X77.787Y-89.694
X82.55Y-23.019
X82.55Y-51.594
X87.312Y-108.744
X92.075Y-70.644
X96.837Y-89.694
X96.837Y-119.539
X101.6Y-23.019
X101.6Y-51.594
X106.362Y-108.744
X111.125Y-70.644
X115.887Y-89.694
X120.65Y-23.019
X120.65Y-51.594
X125.412Y-108.744
X130.175Y-70.644
X134.938Y-89.694
X139.7Y-51.594
X144.463Y-108.744
X146.844Y-127.794
X149.225Y-23.019
X149.225Y-70.644
X153.987Y-89.694
X158.75Y-51.594
X163.512Y-108.744
X168.275Y-23.019
X168.275Y-70.644
X173.037Y-89.694
X177.8Y-51.594
X182.562Y-108.744
X187.325Y-23.019
X187.325Y-70.644
X192.087Y-89.694
X196.85Y-51.594
X196.85Y-119.539
X201.612Y-108.744
X206.375Y-23.019
X206.375Y-70.644
X211.137Y-89.694
X215.9Y-51.594
X218.281Y-127.794
X220.662Y-108.744
X225.425Y-70.644
X230.188Y-89.694
X234.95Y-23.019
X234.95Y-51.594
X239.712Y-108.744
X242.094Y-127.794
X244.475Y-70.644
X249.237Y-89.694
X254.0Y-23.019
X254.0Y-51.594
X263.525Y-70.644
X263.525Y-100.489
X265.906Y-127.794
X268.287Y-89.694
X270.669Y-43.339
X273.05Y-23.019
X275.431Y-108.744
X281.464Y-68.263
X281.464Y-92.075
X282.575Y-51.594
X287.337Y-100.489
X289.719Y-80.169
X289.719Y-127.794
X292.1Y-23.019
X294.481Y-43.339
X315.912Y-23.019
X315.912Y-51.594
X315.912Y-70.644
X315.912Y-127.794
X334.962Y-23.019
X334.962Y-51.594
X334.962Y-70.644
X334.962Y-108.744
X334.962Y-127.794
X354.012Y-23.019
X354.012Y-51.594
X354.012Y-70.644
X354.012Y-127.794
T0
M30
