%TF.GenerationSoftware,KiCad,Pcbnew,(7.0.0)*%
%TF.CreationDate,2023-12-09T11:02:40+00:00*%
%TF.ProjectId,TKL_PCB,544b4c5f-5043-4422-9e6b-696361645f70,rev?*%
%TF.SameCoordinates,Original*%
%TF.FileFunction,Soldermask,Bot*%
%TF.FilePolarity,Negative*%
%FSLAX46Y46*%
G04 Gerber Fmt 4.6, Leading zero omitted, Abs format (unit mm)*
G04 Created by KiCad (PCBNEW (7.0.0)) date 2023-12-09 11:02:40*
%MOMM*%
%LPD*%
G01*
G04 APERTURE LIST*
G04 Aperture macros list*
%AMRoundRect*
0 Rectangle with rounded corners*
0 $1 Rounding radius*
0 $2 $3 $4 $5 $6 $7 $8 $9 X,Y pos of 4 corners*
0 Add a 4 corners polygon primitive as box body*
4,1,4,$2,$3,$4,$5,$6,$7,$8,$9,$2,$3,0*
0 Add four circle primitives for the rounded corners*
1,1,$1+$1,$2,$3*
1,1,$1+$1,$4,$5*
1,1,$1+$1,$6,$7*
1,1,$1+$1,$8,$9*
0 Add four rect primitives between the rounded corners*
20,1,$1+$1,$2,$3,$4,$5,0*
20,1,$1+$1,$4,$5,$6,$7,0*
20,1,$1+$1,$6,$7,$8,$9,0*
20,1,$1+$1,$8,$9,$2,$3,0*%
%AMRotRect*
0 Rectangle, with rotation*
0 The origin of the aperture is its center*
0 $1 length*
0 $2 width*
0 $3 Rotation angle, in degrees counterclockwise*
0 Add horizontal line*
21,1,$1,$2,0,0,$3*%
G04 Aperture macros list end*
%ADD10C,4.000000*%
%ADD11C,3.987800*%
%ADD12R,1.700000X1.700000*%
%ADD13O,1.700000X1.700000*%
%ADD14RoundRect,0.225000X0.375000X-0.225000X0.375000X0.225000X-0.375000X0.225000X-0.375000X-0.225000X0*%
%ADD15RoundRect,0.135000X0.135000X0.185000X-0.135000X0.185000X-0.135000X-0.185000X0.135000X-0.185000X0*%
%ADD16C,1.750000*%
%ADD17C,3.300000*%
%ADD18RoundRect,0.250000X1.025000X1.000000X-1.025000X1.000000X-1.025000X-1.000000X1.025000X-1.000000X0*%
%ADD19RoundRect,0.135000X-0.185000X0.135000X-0.185000X-0.135000X0.185000X-0.135000X0.185000X0.135000X0*%
%ADD20RoundRect,0.150000X0.475000X0.150000X-0.475000X0.150000X-0.475000X-0.150000X0.475000X-0.150000X0*%
%ADD21R,1.700000X1.000000*%
%ADD22RoundRect,0.150000X0.650000X0.150000X-0.650000X0.150000X-0.650000X-0.150000X0.650000X-0.150000X0*%
%ADD23RoundRect,0.140000X0.140000X0.170000X-0.140000X0.170000X-0.140000X-0.170000X0.140000X-0.170000X0*%
%ADD24RoundRect,0.140000X0.021213X-0.219203X0.219203X-0.021213X-0.021213X0.219203X-0.219203X0.021213X0*%
%ADD25RoundRect,0.140000X-0.140000X-0.170000X0.140000X-0.170000X0.140000X0.170000X-0.140000X0.170000X0*%
%ADD26RoundRect,0.150000X0.625000X-0.150000X0.625000X0.150000X-0.625000X0.150000X-0.625000X-0.150000X0*%
%ADD27RoundRect,0.250000X0.650000X-0.350000X0.650000X0.350000X-0.650000X0.350000X-0.650000X-0.350000X0*%
%ADD28RoundRect,0.140000X0.170000X-0.140000X0.170000X0.140000X-0.170000X0.140000X-0.170000X-0.140000X0*%
%ADD29C,0.650000*%
%ADD30R,0.600000X1.450000*%
%ADD31R,0.300000X1.450000*%
%ADD32O,1.000000X1.600000*%
%ADD33O,1.000000X2.100000*%
%ADD34RoundRect,0.150000X0.512500X0.150000X-0.512500X0.150000X-0.512500X-0.150000X0.512500X-0.150000X0*%
%ADD35RoundRect,0.140000X-0.021213X0.219203X-0.219203X0.021213X0.021213X-0.219203X0.219203X-0.021213X0*%
%ADD36RoundRect,0.140000X0.219203X0.021213X0.021213X0.219203X-0.219203X-0.021213X-0.021213X-0.219203X0*%
%ADD37RoundRect,0.135000X-0.135000X-0.185000X0.135000X-0.185000X0.135000X0.185000X-0.135000X0.185000X0*%
%ADD38R,2.000000X2.000000*%
%ADD39C,2.000000*%
%ADD40R,3.000000X2.500000*%
%ADD41RoundRect,0.225000X-0.250000X0.225000X-0.250000X-0.225000X0.250000X-0.225000X0.250000X0.225000X0*%
%ADD42RoundRect,0.250000X-0.625000X0.375000X-0.625000X-0.375000X0.625000X-0.375000X0.625000X0.375000X0*%
%ADD43RotRect,1.400000X1.200000X45.000000*%
%ADD44RoundRect,0.135000X0.035355X-0.226274X0.226274X-0.035355X-0.035355X0.226274X-0.226274X0.035355X0*%
%ADD45RoundRect,0.050000X0.387500X0.050000X-0.387500X0.050000X-0.387500X-0.050000X0.387500X-0.050000X0*%
%ADD46RoundRect,0.050000X0.050000X0.387500X-0.050000X0.387500X-0.050000X-0.387500X0.050000X-0.387500X0*%
%ADD47R,3.200000X3.200000*%
G04 APERTURE END LIST*
D10*
%TO.C,S1*%
X49212500Y-115728750D03*
D11*
X49212500Y-100488750D03*
D10*
X25400000Y-115728750D03*
D11*
X25400000Y-100488750D03*
%TD*%
D10*
%TO.C,S3*%
X287337500Y-115728750D03*
D11*
X287337500Y-100488750D03*
D10*
X263525000Y-115728750D03*
D11*
X263525000Y-100488750D03*
%TD*%
%TO.C,S4*%
X281463750Y-68262500D03*
X281463750Y-92075000D03*
D10*
X296703750Y-68262500D03*
X296703750Y-92075000D03*
%TD*%
D12*
%TO.C,J3*%
X373948749Y-45239152D03*
D13*
X376488749Y-45239152D03*
X379028749Y-45239152D03*
X381568749Y-45239152D03*
%TD*%
D10*
%TO.C,S2*%
X196850000Y-134778750D03*
D11*
X196850000Y-119538750D03*
D10*
X96837500Y-134778750D03*
D11*
X96837500Y-119538750D03*
%TD*%
D10*
%TO.C,S5*%
X294481250Y-58578750D03*
D11*
X294481250Y-43338750D03*
D10*
X270668750Y-58578750D03*
D11*
X270668750Y-43338750D03*
%TD*%
D14*
%TO.C,D9*%
X209550000Y-27843750D03*
X209550000Y-24543750D03*
%TD*%
D15*
%TO.C,R3*%
X383097500Y-26193750D03*
X382077500Y-26193750D03*
%TD*%
D14*
%TO.C,D27*%
X219075000Y-56418750D03*
X219075000Y-53118750D03*
%TD*%
D16*
%TO.C,SW83*%
X270986250Y-127793750D03*
D11*
X265906250Y-127793750D03*
D16*
X260826250Y-127793750D03*
D17*
X262096250Y-125253750D03*
D18*
X258546250Y-125253750D03*
X271996250Y-122713750D03*
D17*
X268446250Y-122713750D03*
%TD*%
D16*
%TO.C,SW42*%
X192405000Y-70643750D03*
D11*
X187325000Y-70643750D03*
D16*
X182245000Y-70643750D03*
D17*
X183515000Y-68103750D03*
D18*
X179965000Y-68103750D03*
X193415000Y-65563750D03*
D17*
X189865000Y-65563750D03*
%TD*%
D16*
%TO.C,SW67*%
X111442500Y-108743750D03*
D11*
X106362500Y-108743750D03*
D16*
X101282500Y-108743750D03*
D17*
X102552500Y-106203750D03*
D18*
X99002500Y-106203750D03*
X112452500Y-103663750D03*
D17*
X108902500Y-103663750D03*
%TD*%
D16*
%TO.C,SW33*%
X359092500Y-51593750D03*
D11*
X354012500Y-51593750D03*
D16*
X348932500Y-51593750D03*
D17*
X350202500Y-49053750D03*
D18*
X346652500Y-49053750D03*
X360102500Y-46513750D03*
D17*
X356552500Y-46513750D03*
%TD*%
D14*
%TO.C,D40*%
X152400000Y-75468750D03*
X152400000Y-72168750D03*
%TD*%
D16*
%TO.C,SW86*%
X340042500Y-127793750D03*
D11*
X334962500Y-127793750D03*
D16*
X329882500Y-127793750D03*
D17*
X331152500Y-125253750D03*
D18*
X327602500Y-125253750D03*
X341052500Y-122713750D03*
D17*
X337502500Y-122713750D03*
%TD*%
D14*
%TO.C,D33*%
X357187500Y-56418750D03*
X357187500Y-53118750D03*
%TD*%
D16*
%TO.C,SW20*%
X87630000Y-51593750D03*
D11*
X82550000Y-51593750D03*
D16*
X77470000Y-51593750D03*
D17*
X78740000Y-49053750D03*
D18*
X75190000Y-49053750D03*
X88640000Y-46513750D03*
D17*
X85090000Y-46513750D03*
%TD*%
D14*
%TO.C,D87*%
X357187500Y-132618750D03*
X357187500Y-129318750D03*
%TD*%
%TO.C,D73*%
X223837500Y-113568750D03*
X223837500Y-110268750D03*
%TD*%
%TO.C,D80*%
X150018750Y-132618750D03*
X150018750Y-129318750D03*
%TD*%
D16*
%TO.C,SW69*%
X149542500Y-108743750D03*
D11*
X144462500Y-108743750D03*
D16*
X139382500Y-108743750D03*
D17*
X140652500Y-106203750D03*
D18*
X137102500Y-106203750D03*
X150552500Y-103663750D03*
D17*
X147002500Y-103663750D03*
%TD*%
D19*
%TO.C,R5*%
X357603648Y-108730877D03*
X357603648Y-109750877D03*
%TD*%
D14*
%TO.C,D34*%
X33337500Y-75468750D03*
X33337500Y-72168750D03*
%TD*%
%TO.C,D53*%
X80962500Y-94518750D03*
X80962500Y-91218750D03*
%TD*%
%TO.C,D26*%
X200025000Y-56418750D03*
X200025000Y-53118750D03*
%TD*%
%TO.C,D58*%
X176212500Y-94518750D03*
X176212500Y-91218750D03*
%TD*%
%TO.C,D56*%
X138112500Y-94518750D03*
X138112500Y-91218750D03*
%TD*%
%TO.C,D29*%
X257175000Y-56418750D03*
X257175000Y-53118750D03*
%TD*%
D16*
%TO.C,SW50*%
X359092500Y-70643750D03*
D11*
X354012500Y-70643750D03*
D16*
X348932500Y-70643750D03*
D17*
X350202500Y-68103750D03*
D18*
X346652500Y-68103750D03*
X360102500Y-65563750D03*
D17*
X356552500Y-65563750D03*
%TD*%
D14*
%TO.C,D3*%
X85725000Y-27843750D03*
X85725000Y-24543750D03*
%TD*%
D20*
%TO.C,U2*%
X221837500Y-26037500D03*
X221837500Y-26987500D03*
X221837500Y-27937500D03*
X219487500Y-27937500D03*
X219487500Y-26987500D03*
X219487500Y-26037500D03*
%TD*%
D15*
%TO.C,R6*%
X374316250Y-79375000D03*
X373296250Y-79375000D03*
%TD*%
D16*
%TO.C,SW28*%
X240030000Y-51593750D03*
D11*
X234950000Y-51593750D03*
D16*
X229870000Y-51593750D03*
D17*
X231140000Y-49053750D03*
D18*
X227590000Y-49053750D03*
X241040000Y-46513750D03*
D17*
X237490000Y-46513750D03*
%TD*%
D14*
%TO.C,D47*%
X292893750Y-84993750D03*
X292893750Y-81693750D03*
%TD*%
%TO.C,D39*%
X133350000Y-75468750D03*
X133350000Y-72168750D03*
%TD*%
%TO.C,D44*%
X228600000Y-75468750D03*
X228600000Y-72168750D03*
%TD*%
%TO.C,D14*%
X319087500Y-27843750D03*
X319087500Y-24543750D03*
%TD*%
%TO.C,D28*%
X238125000Y-56418750D03*
X238125000Y-53118750D03*
%TD*%
%TO.C,D2*%
X66675000Y-27843750D03*
X66675000Y-24543750D03*
%TD*%
%TO.C,D43*%
X209550000Y-75468750D03*
X209550000Y-72168750D03*
%TD*%
%TO.C,D63*%
X271462500Y-94518750D03*
X271462500Y-91218750D03*
%TD*%
%TO.C,D52*%
X61912500Y-94518750D03*
X61912500Y-91218750D03*
%TD*%
%TO.C,D79*%
X78581250Y-132618750D03*
X78581250Y-129318750D03*
%TD*%
D21*
%TO.C,RST1*%
X353459147Y-108091768D03*
X347159147Y-108091768D03*
X353459147Y-111891768D03*
X347159147Y-111891768D03*
%TD*%
D16*
%TO.C,SW38*%
X116205000Y-70643750D03*
D11*
X111125000Y-70643750D03*
D16*
X106045000Y-70643750D03*
D17*
X107315000Y-68103750D03*
D18*
X103765000Y-68103750D03*
X117215000Y-65563750D03*
D17*
X113665000Y-65563750D03*
%TD*%
D14*
%TO.C,D83*%
X269081250Y-132618750D03*
X269081250Y-129318750D03*
%TD*%
D16*
%TO.C,SW22*%
X125730000Y-51593750D03*
D11*
X120650000Y-51593750D03*
D16*
X115570000Y-51593750D03*
D17*
X116840000Y-49053750D03*
D18*
X113290000Y-49053750D03*
X126740000Y-46513750D03*
D17*
X123190000Y-46513750D03*
%TD*%
D16*
%TO.C,SW6*%
X154305000Y-23018750D03*
D11*
X149225000Y-23018750D03*
D16*
X144145000Y-23018750D03*
D17*
X145415000Y-20478750D03*
D18*
X141865000Y-20478750D03*
X155315000Y-17938750D03*
D17*
X151765000Y-17938750D03*
%TD*%
D22*
%TO.C,Flash*%
X382218750Y-91757500D03*
X382218750Y-93027500D03*
X382218750Y-94297500D03*
X382218750Y-95567500D03*
X375018750Y-95567500D03*
X375018750Y-94297500D03*
X375018750Y-93027500D03*
X375018750Y-91757500D03*
%TD*%
D14*
%TO.C,D37*%
X95250000Y-75468750D03*
X95250000Y-72168750D03*
%TD*%
D23*
%TO.C,C10*%
X361762390Y-98748485D03*
X360802390Y-98748485D03*
%TD*%
D14*
%TO.C,D68*%
X128587500Y-113568750D03*
X128587500Y-110268750D03*
%TD*%
D16*
%TO.C,SW74*%
X244792500Y-108743750D03*
D11*
X239712500Y-108743750D03*
D16*
X234632500Y-108743750D03*
D17*
X235902500Y-106203750D03*
D18*
X232352500Y-106203750D03*
X245802500Y-103663750D03*
D17*
X242252500Y-103663750D03*
%TD*%
D14*
%TO.C,D81*%
X221456250Y-132618750D03*
X221456250Y-129318750D03*
%TD*%
D16*
%TO.C,SW41*%
X173355000Y-70643750D03*
D11*
X168275000Y-70643750D03*
D16*
X163195000Y-70643750D03*
D17*
X164465000Y-68103750D03*
D18*
X160915000Y-68103750D03*
X174365000Y-65563750D03*
D17*
X170815000Y-65563750D03*
%TD*%
D23*
%TO.C,C5*%
X372996466Y-93688597D03*
X372036466Y-93688597D03*
%TD*%
D16*
%TO.C,SW11*%
X259080000Y-23018750D03*
D11*
X254000000Y-23018750D03*
D16*
X248920000Y-23018750D03*
D17*
X250190000Y-20478750D03*
D18*
X246640000Y-20478750D03*
X260090000Y-17938750D03*
D17*
X256540000Y-17938750D03*
%TD*%
D14*
%TO.C,D1*%
X28575000Y-27843750D03*
X28575000Y-24543750D03*
%TD*%
D24*
%TO.C,C3*%
X369747504Y-114695183D03*
X370426326Y-114016361D03*
%TD*%
D25*
%TO.C,C13*%
X373096446Y-103447575D03*
X374056446Y-103447575D03*
%TD*%
D14*
%TO.C,D25*%
X180975000Y-56418750D03*
X180975000Y-53118750D03*
%TD*%
D26*
%TO.C,J2*%
X222662500Y-38806250D03*
X222662500Y-37806250D03*
X222662500Y-36806250D03*
X222662500Y-35806250D03*
D27*
X218787500Y-40106250D03*
X218787500Y-34506250D03*
%TD*%
D14*
%TO.C,D49*%
X338137500Y-75468750D03*
X338137500Y-72168750D03*
%TD*%
D28*
%TO.C,C6*%
X363899353Y-95728434D03*
X363899353Y-94768434D03*
%TD*%
D16*
%TO.C,SW82*%
X247173750Y-127793750D03*
D11*
X242093750Y-127793750D03*
D16*
X237013750Y-127793750D03*
D17*
X238283750Y-125253750D03*
D18*
X234733750Y-125253750D03*
X248183750Y-122713750D03*
D17*
X244633750Y-122713750D03*
%TD*%
D16*
%TO.C,SW59*%
X197167500Y-89693750D03*
D11*
X192087500Y-89693750D03*
D16*
X187007500Y-89693750D03*
D17*
X188277500Y-87153750D03*
D18*
X184727500Y-87153750D03*
X198177500Y-84613750D03*
D17*
X194627500Y-84613750D03*
%TD*%
D14*
%TO.C,D65*%
X71437500Y-113568750D03*
X71437500Y-110268750D03*
%TD*%
D16*
%TO.C,SW16*%
X359092500Y-23018750D03*
D11*
X354012500Y-23018750D03*
D16*
X348932500Y-23018750D03*
D17*
X350202500Y-20478750D03*
D18*
X346652500Y-20478750D03*
X360102500Y-17938750D03*
D17*
X356552500Y-17938750D03*
%TD*%
D29*
%TO.C,J1*%
X217772500Y-19268750D03*
X223552500Y-19268750D03*
D30*
X217412499Y-20713749D03*
X218212499Y-20713749D03*
D31*
X219412499Y-20713749D03*
X220412499Y-20713749D03*
X220912499Y-20713749D03*
X221912499Y-20713749D03*
D30*
X223112499Y-20713749D03*
X223912499Y-20713749D03*
X223912499Y-20713749D03*
X223112499Y-20713749D03*
D31*
X222412499Y-20713749D03*
X221412499Y-20713749D03*
X219912499Y-20713749D03*
X218912499Y-20713749D03*
D30*
X218212499Y-20713749D03*
X217412499Y-20713749D03*
D32*
X216342499Y-15618749D03*
D33*
X216342499Y-19798749D03*
D32*
X224982499Y-15618749D03*
D33*
X224982499Y-19798749D03*
%TD*%
D16*
%TO.C,SW4*%
X106680000Y-23018750D03*
D11*
X101600000Y-23018750D03*
D16*
X96520000Y-23018750D03*
D17*
X97790000Y-20478750D03*
D18*
X94240000Y-20478750D03*
X107690000Y-17938750D03*
D17*
X104140000Y-17938750D03*
%TD*%
D16*
%TO.C,SW46*%
X268605000Y-70643750D03*
D11*
X263525000Y-70643750D03*
D16*
X258445000Y-70643750D03*
D17*
X259715000Y-68103750D03*
D18*
X256165000Y-68103750D03*
X269615000Y-65563750D03*
D17*
X266065000Y-65563750D03*
%TD*%
D14*
%TO.C,D51*%
X35718750Y-94518750D03*
X35718750Y-91218750D03*
%TD*%
%TO.C,D62*%
X252412500Y-94518750D03*
X252412500Y-91218750D03*
%TD*%
D16*
%TO.C,SW7*%
X173355000Y-23018750D03*
D11*
X168275000Y-23018750D03*
D16*
X163195000Y-23018750D03*
D17*
X164465000Y-20478750D03*
D18*
X160915000Y-20478750D03*
X174365000Y-17938750D03*
D17*
X170815000Y-17938750D03*
%TD*%
D14*
%TO.C,D38*%
X114300000Y-75468750D03*
X114300000Y-72168750D03*
%TD*%
D16*
%TO.C,SW85*%
X320992500Y-127793750D03*
D11*
X315912500Y-127793750D03*
D16*
X310832500Y-127793750D03*
D17*
X312102500Y-125253750D03*
D18*
X308552500Y-125253750D03*
X322002500Y-122713750D03*
D17*
X318452500Y-122713750D03*
%TD*%
D16*
%TO.C,SW17*%
X30480000Y-51593750D03*
D11*
X25400000Y-51593750D03*
D16*
X20320000Y-51593750D03*
D17*
X21590000Y-49053750D03*
D18*
X18040000Y-49053750D03*
X31490000Y-46513750D03*
D17*
X27940000Y-46513750D03*
%TD*%
D16*
%TO.C,SW23*%
X144780000Y-51593750D03*
D11*
X139700000Y-51593750D03*
D16*
X134620000Y-51593750D03*
D17*
X135890000Y-49053750D03*
D18*
X132340000Y-49053750D03*
X145790000Y-46513750D03*
D17*
X142240000Y-46513750D03*
%TD*%
D16*
%TO.C,SW58*%
X178117500Y-89693750D03*
D11*
X173037500Y-89693750D03*
D16*
X167957500Y-89693750D03*
D17*
X169227500Y-87153750D03*
D18*
X165677500Y-87153750D03*
X179127500Y-84613750D03*
D17*
X175577500Y-84613750D03*
%TD*%
D16*
%TO.C,SW76*%
X340042500Y-108743750D03*
D11*
X334962500Y-108743750D03*
D16*
X329882500Y-108743750D03*
D17*
X331152500Y-106203750D03*
D18*
X327602500Y-106203750D03*
X341052500Y-103663750D03*
D17*
X337502500Y-103663750D03*
%TD*%
D16*
%TO.C,SW19*%
X68580000Y-51593750D03*
D11*
X63500000Y-51593750D03*
D16*
X58420000Y-51593750D03*
D17*
X59690000Y-49053750D03*
D18*
X56140000Y-49053750D03*
X69590000Y-46513750D03*
D17*
X66040000Y-46513750D03*
%TD*%
D14*
%TO.C,D76*%
X338137500Y-113568750D03*
X338137500Y-110268750D03*
%TD*%
D16*
%TO.C,SW12*%
X278130000Y-23018750D03*
D11*
X273050000Y-23018750D03*
D16*
X267970000Y-23018750D03*
D17*
X269240000Y-20478750D03*
D18*
X265690000Y-20478750D03*
X279140000Y-17938750D03*
D17*
X275590000Y-17938750D03*
%TD*%
D16*
%TO.C,SW53*%
X82867500Y-89693750D03*
D11*
X77787500Y-89693750D03*
D16*
X72707500Y-89693750D03*
D17*
X73977500Y-87153750D03*
D18*
X70427500Y-87153750D03*
X83877500Y-84613750D03*
D17*
X80327500Y-84613750D03*
%TD*%
D14*
%TO.C,D59*%
X195262500Y-94518750D03*
X195262500Y-91218750D03*
%TD*%
%TO.C,D32*%
X338137500Y-56418750D03*
X338137500Y-53118750D03*
%TD*%
D16*
%TO.C,SW37*%
X97155000Y-70643750D03*
D11*
X92075000Y-70643750D03*
D16*
X86995000Y-70643750D03*
D17*
X88265000Y-68103750D03*
D18*
X84715000Y-68103750D03*
X98165000Y-65563750D03*
D17*
X94615000Y-65563750D03*
%TD*%
D34*
%TO.C,Regulator*%
X299587500Y-37943750D03*
X299587500Y-39843750D03*
X297312500Y-38893750D03*
%TD*%
D35*
%TO.C,C7*%
X364859741Y-109187032D03*
X364180919Y-109865854D03*
%TD*%
D36*
%TO.C,C4*%
X366592833Y-114959248D03*
X365914011Y-114280426D03*
%TD*%
D14*
%TO.C,D50*%
X357187500Y-75468750D03*
X357187500Y-72168750D03*
%TD*%
D16*
%TO.C,SW31*%
X320992500Y-51593750D03*
D11*
X315912500Y-51593750D03*
D16*
X310832500Y-51593750D03*
D17*
X312102500Y-49053750D03*
D18*
X308552500Y-49053750D03*
X322002500Y-46513750D03*
D17*
X318452500Y-46513750D03*
%TD*%
D16*
%TO.C,SW75*%
X280511250Y-108743750D03*
D11*
X275431250Y-108743750D03*
D16*
X270351250Y-108743750D03*
D17*
X271621250Y-106203750D03*
D18*
X268071250Y-106203750D03*
X281521250Y-103663750D03*
D17*
X277971250Y-103663750D03*
%TD*%
D16*
%TO.C,SW77*%
X32861250Y-127793750D03*
D11*
X27781250Y-127793750D03*
D16*
X22701250Y-127793750D03*
D17*
X23971250Y-125253750D03*
D18*
X20421250Y-125253750D03*
X33871250Y-122713750D03*
D17*
X30321250Y-122713750D03*
%TD*%
D16*
%TO.C,SW32*%
X340042500Y-51593750D03*
D11*
X334962500Y-51593750D03*
D16*
X329882500Y-51593750D03*
D17*
X331152500Y-49053750D03*
D18*
X327602500Y-49053750D03*
X341052500Y-46513750D03*
D17*
X337502500Y-46513750D03*
%TD*%
D28*
%TO.C,C14*%
X366318961Y-94898200D03*
X366318961Y-93938200D03*
%TD*%
D14*
%TO.C,D17*%
X28575000Y-56418750D03*
X28575000Y-53118750D03*
%TD*%
D37*
%TO.C,R4*%
X382077500Y-20637500D03*
X383097500Y-20637500D03*
%TD*%
D16*
%TO.C,SW48*%
X320992500Y-70643750D03*
D11*
X315912500Y-70643750D03*
D16*
X310832500Y-70643750D03*
D17*
X312102500Y-68103750D03*
D18*
X308552500Y-68103750D03*
X322002500Y-65563750D03*
D17*
X318452500Y-65563750D03*
%TD*%
D28*
%TO.C,C15*%
X362743750Y-95730000D03*
X362743750Y-94770000D03*
%TD*%
D16*
%TO.C,SW72*%
X206692500Y-108743750D03*
D11*
X201612500Y-108743750D03*
D16*
X196532500Y-108743750D03*
D17*
X197802500Y-106203750D03*
D18*
X194252500Y-106203750D03*
X207702500Y-103663750D03*
D17*
X204152500Y-103663750D03*
%TD*%
D16*
%TO.C,SW34*%
X35242500Y-70643750D03*
D11*
X30162500Y-70643750D03*
D16*
X25082500Y-70643750D03*
D17*
X26352500Y-68103750D03*
D18*
X22802500Y-68103750D03*
X36252500Y-65563750D03*
D17*
X32702500Y-65563750D03*
%TD*%
D16*
%TO.C,SW36*%
X78105000Y-70643750D03*
D11*
X73025000Y-70643750D03*
D16*
X67945000Y-70643750D03*
D17*
X69215000Y-68103750D03*
D18*
X65665000Y-68103750D03*
X79115000Y-65563750D03*
D17*
X75565000Y-65563750D03*
%TD*%
D16*
%TO.C,SW18*%
X49530000Y-51593750D03*
D11*
X44450000Y-51593750D03*
D16*
X39370000Y-51593750D03*
D17*
X40640000Y-49053750D03*
D18*
X37090000Y-49053750D03*
X50540000Y-46513750D03*
D17*
X46990000Y-46513750D03*
%TD*%
D16*
%TO.C,SW8*%
X192405000Y-23018750D03*
D11*
X187325000Y-23018750D03*
D16*
X182245000Y-23018750D03*
D17*
X183515000Y-20478750D03*
D18*
X179965000Y-20478750D03*
X193415000Y-17938750D03*
D17*
X189865000Y-17938750D03*
%TD*%
D14*
%TO.C,D69*%
X147637500Y-113568750D03*
X147637500Y-110268750D03*
%TD*%
%TO.C,D31*%
X319087500Y-56418750D03*
X319087500Y-53118750D03*
%TD*%
D16*
%TO.C,SW79*%
X80486250Y-127793750D03*
D11*
X75406250Y-127793750D03*
D16*
X70326250Y-127793750D03*
D17*
X71596250Y-125253750D03*
D18*
X68046250Y-125253750D03*
X81496250Y-122713750D03*
D17*
X77946250Y-122713750D03*
%TD*%
D16*
%TO.C,SW71*%
X187642500Y-108743750D03*
D11*
X182562500Y-108743750D03*
D16*
X177482500Y-108743750D03*
D17*
X178752500Y-106203750D03*
D18*
X175202500Y-106203750D03*
X188652500Y-103663750D03*
D17*
X185102500Y-103663750D03*
%TD*%
D12*
%TO.C,J4*%
X362262499Y-115093749D03*
D13*
X359722499Y-115093749D03*
X357182499Y-115093749D03*
X354642499Y-115093749D03*
X352102499Y-115093749D03*
%TD*%
D15*
%TO.C,R1*%
X218097890Y-23794288D03*
X217077890Y-23794288D03*
%TD*%
D16*
%TO.C,SW3*%
X87630000Y-23018750D03*
D11*
X82550000Y-23018750D03*
D16*
X77470000Y-23018750D03*
D17*
X78740000Y-20478750D03*
D18*
X75190000Y-20478750D03*
X88640000Y-17938750D03*
D17*
X85090000Y-17938750D03*
%TD*%
D14*
%TO.C,D70*%
X166687500Y-113568750D03*
X166687500Y-110268750D03*
%TD*%
D16*
%TO.C,SW81*%
X223361250Y-127793750D03*
D11*
X218281250Y-127793750D03*
D16*
X213201250Y-127793750D03*
D17*
X214471250Y-125253750D03*
D18*
X210921250Y-125253750D03*
X224371250Y-122713750D03*
D17*
X220821250Y-122713750D03*
%TD*%
D16*
%TO.C,SW9*%
X211455000Y-23018750D03*
D11*
X206375000Y-23018750D03*
D16*
X201295000Y-23018750D03*
D17*
X202565000Y-20478750D03*
D18*
X199015000Y-20478750D03*
X212465000Y-17938750D03*
D17*
X208915000Y-17938750D03*
%TD*%
D25*
%TO.C,C12*%
X371718072Y-98617275D03*
X372678072Y-98617275D03*
%TD*%
D14*
%TO.C,D84*%
X292893750Y-132618750D03*
X292893750Y-129318750D03*
%TD*%
%TO.C,D77*%
X30956250Y-132618750D03*
X30956250Y-129318750D03*
%TD*%
D38*
%TO.C,SW88*%
X385070499Y-20796249D03*
D39*
X385070500Y-25796250D03*
X385070500Y-23296250D03*
D40*
X377450499Y-29146249D03*
X377450499Y-17446249D03*
D39*
X370570500Y-20796250D03*
X370570500Y-25796250D03*
%TD*%
D14*
%TO.C,D78*%
X54768750Y-132618750D03*
X54768750Y-129318750D03*
%TD*%
D16*
%TO.C,SW70*%
X168592500Y-108743750D03*
D11*
X163512500Y-108743750D03*
D16*
X158432500Y-108743750D03*
D17*
X159702500Y-106203750D03*
D18*
X156152500Y-106203750D03*
X169602500Y-103663750D03*
D17*
X166052500Y-103663750D03*
%TD*%
D14*
%TO.C,D12*%
X276225000Y-27843750D03*
X276225000Y-24543750D03*
%TD*%
%TO.C,D88*%
X367445295Y-29123948D03*
X367445295Y-25823948D03*
%TD*%
D23*
%TO.C,C11*%
X360048750Y-103414598D03*
X359088750Y-103414598D03*
%TD*%
D14*
%TO.C,D5*%
X123825000Y-27843750D03*
X123825000Y-24543750D03*
%TD*%
%TO.C,D72*%
X204787500Y-113568750D03*
X204787500Y-110268750D03*
%TD*%
D16*
%TO.C,SW5*%
X125730000Y-23018750D03*
D11*
X120650000Y-23018750D03*
D16*
X115570000Y-23018750D03*
D17*
X116840000Y-20478750D03*
D18*
X113290000Y-20478750D03*
X126740000Y-17938750D03*
D17*
X123190000Y-17938750D03*
%TD*%
D16*
%TO.C,SW13*%
X297180000Y-23018750D03*
D11*
X292100000Y-23018750D03*
D16*
X287020000Y-23018750D03*
D17*
X288290000Y-20478750D03*
D18*
X284740000Y-20478750D03*
X298190000Y-17938750D03*
D17*
X294640000Y-17938750D03*
%TD*%
D16*
%TO.C,SW26*%
X201930000Y-51593750D03*
D11*
X196850000Y-51593750D03*
D16*
X191770000Y-51593750D03*
D17*
X193040000Y-49053750D03*
D18*
X189490000Y-49053750D03*
X202940000Y-46513750D03*
D17*
X199390000Y-46513750D03*
%TD*%
D16*
%TO.C,SW47*%
X294798750Y-80168750D03*
D11*
X289718750Y-80168750D03*
D16*
X284638750Y-80168750D03*
D17*
X285908750Y-77628750D03*
D18*
X282358750Y-77628750D03*
X295808750Y-75088750D03*
D17*
X292258750Y-75088750D03*
%TD*%
D14*
%TO.C,D23*%
X142875000Y-56418750D03*
X142875000Y-53118750D03*
%TD*%
D41*
%TO.C,C9*%
X357187500Y-95268750D03*
X357187500Y-96818750D03*
%TD*%
D14*
%TO.C,D66*%
X90487500Y-113568750D03*
X90487500Y-110268750D03*
%TD*%
%TO.C,D54*%
X100012500Y-94518750D03*
X100012500Y-91218750D03*
%TD*%
D42*
%TO.C,F1*%
X215900000Y-27175000D03*
X215900000Y-29975000D03*
%TD*%
D16*
%TO.C,SW80*%
X151923750Y-127793750D03*
D11*
X146843750Y-127793750D03*
D16*
X141763750Y-127793750D03*
D17*
X143033750Y-125253750D03*
D18*
X139483750Y-125253750D03*
X152933750Y-122713750D03*
D17*
X149383750Y-122713750D03*
%TD*%
D14*
%TO.C,D85*%
X319087500Y-132618750D03*
X319087500Y-129318750D03*
%TD*%
D16*
%TO.C,SW14*%
X320992500Y-23018750D03*
D11*
X315912500Y-23018750D03*
D16*
X310832500Y-23018750D03*
D17*
X312102500Y-20478750D03*
D18*
X308552500Y-20478750D03*
X322002500Y-17938750D03*
D17*
X318452500Y-17938750D03*
%TD*%
D14*
%TO.C,D10*%
X238125000Y-27843750D03*
X238125000Y-24543750D03*
%TD*%
D16*
%TO.C,SW21*%
X106680000Y-51593750D03*
D11*
X101600000Y-51593750D03*
D16*
X96520000Y-51593750D03*
D17*
X97790000Y-49053750D03*
D18*
X94240000Y-49053750D03*
X107690000Y-46513750D03*
D17*
X104140000Y-46513750D03*
%TD*%
D16*
%TO.C,SW73*%
X225742500Y-108743750D03*
D11*
X220662500Y-108743750D03*
D16*
X215582500Y-108743750D03*
D17*
X216852500Y-106203750D03*
D18*
X213302500Y-106203750D03*
X226752500Y-103663750D03*
D17*
X223202500Y-103663750D03*
%TD*%
D14*
%TO.C,D19*%
X66675000Y-56418750D03*
X66675000Y-53118750D03*
%TD*%
D16*
%TO.C,SW57*%
X159067500Y-89693750D03*
D11*
X153987500Y-89693750D03*
D16*
X148907500Y-89693750D03*
D17*
X150177500Y-87153750D03*
D18*
X146627500Y-87153750D03*
X160077500Y-84613750D03*
D17*
X156527500Y-84613750D03*
%TD*%
D14*
%TO.C,D74*%
X242887500Y-113568750D03*
X242887500Y-110268750D03*
%TD*%
%TO.C,D46*%
X266700000Y-75468750D03*
X266700000Y-72168750D03*
%TD*%
D19*
%TO.C,R10*%
X365467229Y-91183663D03*
X365467229Y-92203663D03*
%TD*%
D14*
%TO.C,D24*%
X161925000Y-56418750D03*
X161925000Y-53118750D03*
%TD*%
%TO.C,D11*%
X257175000Y-27843750D03*
X257175000Y-24543750D03*
%TD*%
D16*
%TO.C,SW87*%
X359092500Y-127793750D03*
D11*
X354012500Y-127793750D03*
D16*
X348932500Y-127793750D03*
D17*
X350202500Y-125253750D03*
D18*
X346652500Y-125253750D03*
X360102500Y-122713750D03*
D17*
X356552500Y-122713750D03*
%TD*%
D16*
%TO.C,SW35*%
X59055000Y-70643750D03*
D11*
X53975000Y-70643750D03*
D16*
X48895000Y-70643750D03*
D17*
X50165000Y-68103750D03*
D18*
X46615000Y-68103750D03*
X60065000Y-65563750D03*
D17*
X56515000Y-65563750D03*
%TD*%
D15*
%TO.C,R8*%
X374316250Y-82156250D03*
X373296250Y-82156250D03*
%TD*%
D14*
%TO.C,D4*%
X104775000Y-27843750D03*
X104775000Y-24543750D03*
%TD*%
D16*
%TO.C,SW56*%
X140017500Y-89693750D03*
D11*
X134937500Y-89693750D03*
D16*
X129857500Y-89693750D03*
D17*
X131127500Y-87153750D03*
D18*
X127577500Y-87153750D03*
X141027500Y-84613750D03*
D17*
X137477500Y-84613750D03*
%TD*%
D16*
%TO.C,SW15*%
X340042500Y-23018750D03*
D11*
X334962500Y-23018750D03*
D16*
X329882500Y-23018750D03*
D17*
X331152500Y-20478750D03*
D18*
X327602500Y-20478750D03*
X341052500Y-17938750D03*
D17*
X337502500Y-17938750D03*
%TD*%
D14*
%TO.C,D57*%
X157162500Y-94518750D03*
X157162500Y-91218750D03*
%TD*%
D16*
%TO.C,SW55*%
X120967500Y-89693750D03*
D11*
X115887500Y-89693750D03*
D16*
X110807500Y-89693750D03*
D17*
X112077500Y-87153750D03*
D18*
X108527500Y-87153750D03*
X121977500Y-84613750D03*
D17*
X118427500Y-84613750D03*
%TD*%
D14*
%TO.C,D75*%
X278606250Y-113568750D03*
X278606250Y-110268750D03*
%TD*%
%TO.C,D13*%
X295275000Y-27843750D03*
X295275000Y-24543750D03*
%TD*%
%TO.C,D55*%
X119062500Y-94518750D03*
X119062500Y-91218750D03*
%TD*%
%TO.C,D48*%
X319087500Y-75468750D03*
X319087500Y-72168750D03*
%TD*%
D16*
%TO.C,SW65*%
X73342500Y-108743750D03*
D11*
X68262500Y-108743750D03*
D16*
X63182500Y-108743750D03*
D17*
X64452500Y-106203750D03*
D18*
X60902500Y-106203750D03*
X74352500Y-103663750D03*
D17*
X70802500Y-103663750D03*
%TD*%
D14*
%TO.C,D16*%
X357187500Y-27843750D03*
X357187500Y-24543750D03*
%TD*%
D16*
%TO.C,SW63*%
X273367500Y-89693750D03*
D11*
X268287500Y-89693750D03*
D16*
X263207500Y-89693750D03*
D17*
X264477500Y-87153750D03*
D18*
X260927500Y-87153750D03*
X274377500Y-84613750D03*
D17*
X270827500Y-84613750D03*
%TD*%
D16*
%TO.C,SW49*%
X340042500Y-70643750D03*
D11*
X334962500Y-70643750D03*
D16*
X329882500Y-70643750D03*
D17*
X331152500Y-68103750D03*
D18*
X327602500Y-68103750D03*
X341052500Y-65563750D03*
D17*
X337502500Y-65563750D03*
%TD*%
D14*
%TO.C,D64*%
X40481250Y-113568750D03*
X40481250Y-110268750D03*
%TD*%
D16*
%TO.C,SW24*%
X163830000Y-51593750D03*
D11*
X158750000Y-51593750D03*
D16*
X153670000Y-51593750D03*
D17*
X154940000Y-49053750D03*
D18*
X151390000Y-49053750D03*
X164840000Y-46513750D03*
D17*
X161290000Y-46513750D03*
%TD*%
D16*
%TO.C,SW51*%
X37623750Y-89693750D03*
D11*
X32543750Y-89693750D03*
D16*
X27463750Y-89693750D03*
D17*
X28733750Y-87153750D03*
D18*
X25183750Y-87153750D03*
X38633750Y-84613750D03*
D17*
X35083750Y-84613750D03*
%TD*%
D14*
%TO.C,D60*%
X214312500Y-94518750D03*
X214312500Y-91218750D03*
%TD*%
D16*
%TO.C,SW66*%
X92392500Y-108743750D03*
D11*
X87312500Y-108743750D03*
D16*
X82232500Y-108743750D03*
D17*
X83502500Y-106203750D03*
D18*
X79952500Y-106203750D03*
X93402500Y-103663750D03*
D17*
X89852500Y-103663750D03*
%TD*%
D16*
%TO.C,SW84*%
X294798750Y-127793750D03*
D11*
X289718750Y-127793750D03*
D16*
X284638750Y-127793750D03*
D17*
X285908750Y-125253750D03*
D18*
X282358750Y-125253750D03*
X295808750Y-122713750D03*
D17*
X292258750Y-122713750D03*
%TD*%
D14*
%TO.C,D61*%
X233362500Y-94518750D03*
X233362500Y-91218750D03*
%TD*%
D16*
%TO.C,SW43*%
X211455000Y-70643750D03*
D11*
X206375000Y-70643750D03*
D16*
X201295000Y-70643750D03*
D17*
X202565000Y-68103750D03*
D18*
X199015000Y-68103750D03*
X212465000Y-65563750D03*
D17*
X208915000Y-65563750D03*
%TD*%
D16*
%TO.C,SW52*%
X63817500Y-89693750D03*
D11*
X58737500Y-89693750D03*
D16*
X53657500Y-89693750D03*
D17*
X54927500Y-87153750D03*
D18*
X51377500Y-87153750D03*
X64827500Y-84613750D03*
D17*
X61277500Y-84613750D03*
%TD*%
D16*
%TO.C,SW40*%
X154305000Y-70643750D03*
D11*
X149225000Y-70643750D03*
D16*
X144145000Y-70643750D03*
D17*
X145415000Y-68103750D03*
D18*
X141865000Y-68103750D03*
X155315000Y-65563750D03*
D17*
X151765000Y-65563750D03*
%TD*%
D14*
%TO.C,D67*%
X109537500Y-113568750D03*
X109537500Y-110268750D03*
%TD*%
D16*
%TO.C,SW1*%
X30480000Y-23018750D03*
D11*
X25400000Y-23018750D03*
D16*
X20320000Y-23018750D03*
D17*
X21590000Y-20478750D03*
D18*
X18040000Y-20478750D03*
X31490000Y-17938750D03*
D17*
X27940000Y-17938750D03*
%TD*%
D28*
%TO.C,C8*%
X367407596Y-94881144D03*
X367407596Y-93921144D03*
%TD*%
D14*
%TO.C,D22*%
X123825000Y-56418750D03*
X123825000Y-53118750D03*
%TD*%
%TO.C,D21*%
X104775000Y-56418750D03*
X104775000Y-53118750D03*
%TD*%
%TO.C,D6*%
X152400000Y-27843750D03*
X152400000Y-24543750D03*
%TD*%
D16*
%TO.C,SW62*%
X254317500Y-89693750D03*
D11*
X249237500Y-89693750D03*
D16*
X244157500Y-89693750D03*
D17*
X245427500Y-87153750D03*
D18*
X241877500Y-87153750D03*
X255327500Y-84613750D03*
D17*
X251777500Y-84613750D03*
%TD*%
D16*
%TO.C,SW30*%
X287655000Y-51593750D03*
D11*
X282575000Y-51593750D03*
D16*
X277495000Y-51593750D03*
D17*
X278765000Y-49053750D03*
D18*
X275215000Y-49053750D03*
X288665000Y-46513750D03*
D17*
X285115000Y-46513750D03*
%TD*%
D16*
%TO.C,SW45*%
X249555000Y-70643750D03*
D11*
X244475000Y-70643750D03*
D16*
X239395000Y-70643750D03*
D17*
X240665000Y-68103750D03*
D18*
X237115000Y-68103750D03*
X250565000Y-65563750D03*
D17*
X247015000Y-65563750D03*
%TD*%
D14*
%TO.C,D35*%
X57150000Y-75468750D03*
X57150000Y-72168750D03*
%TD*%
%TO.C,D86*%
X338137500Y-132618750D03*
X338137500Y-129318750D03*
%TD*%
%TO.C,D30*%
X285750000Y-56418750D03*
X285750000Y-53118750D03*
%TD*%
%TO.C,D71*%
X185737500Y-113568750D03*
X185737500Y-110268750D03*
%TD*%
%TO.C,D82*%
X245268750Y-132618750D03*
X245268750Y-129318750D03*
%TD*%
D16*
%TO.C,SW68*%
X130492500Y-108743750D03*
D11*
X125412500Y-108743750D03*
D16*
X120332500Y-108743750D03*
D17*
X121602500Y-106203750D03*
D18*
X118052500Y-106203750D03*
X131502500Y-103663750D03*
D17*
X127952500Y-103663750D03*
%TD*%
D14*
%TO.C,D8*%
X190500000Y-27843750D03*
X190500000Y-24543750D03*
%TD*%
D19*
%TO.C,R11*%
X364356323Y-91188472D03*
X364356323Y-92208472D03*
%TD*%
D37*
%TO.C,R2*%
X223324307Y-23794288D03*
X224344307Y-23794288D03*
%TD*%
D43*
%TO.C,Y1*%
X366921141Y-112889276D03*
X368476776Y-111333641D03*
X369678857Y-112535722D03*
X368123222Y-114091357D03*
%TD*%
D16*
%TO.C,SW60*%
X216217500Y-89693750D03*
D11*
X211137500Y-89693750D03*
D16*
X206057500Y-89693750D03*
D17*
X207327500Y-87153750D03*
D18*
X203777500Y-87153750D03*
X217227500Y-84613750D03*
D17*
X213677500Y-84613750D03*
%TD*%
D44*
%TO.C,R9*%
X366096888Y-111358554D03*
X366818136Y-110637306D03*
%TD*%
D14*
%TO.C,D7*%
X171450000Y-27843750D03*
X171450000Y-24543750D03*
%TD*%
%TO.C,D41*%
X171450000Y-75468750D03*
X171450000Y-72168750D03*
%TD*%
D21*
%TO.C,BOOT1*%
X382556249Y-78274999D03*
X376256249Y-78274999D03*
X382556249Y-82074999D03*
X376256249Y-82074999D03*
%TD*%
D28*
%TO.C,C2*%
X301329864Y-39373750D03*
X301329864Y-38413750D03*
%TD*%
D37*
%TO.C,R7*%
X373296250Y-80775000D03*
X374316250Y-80775000D03*
%TD*%
D25*
%TO.C,C1*%
X296862500Y-36512500D03*
X297822500Y-36512500D03*
%TD*%
D14*
%TO.C,D18*%
X47625000Y-56418750D03*
X47625000Y-53118750D03*
%TD*%
D16*
%TO.C,SW10*%
X240030000Y-23018750D03*
D11*
X234950000Y-23018750D03*
D16*
X229870000Y-23018750D03*
D17*
X231140000Y-20478750D03*
D18*
X227590000Y-20478750D03*
X241040000Y-17938750D03*
D17*
X237490000Y-17938750D03*
%TD*%
D16*
%TO.C,SW29*%
X259080000Y-51593750D03*
D11*
X254000000Y-51593750D03*
D16*
X248920000Y-51593750D03*
D17*
X250190000Y-49053750D03*
D18*
X246640000Y-49053750D03*
X260090000Y-46513750D03*
D17*
X256540000Y-46513750D03*
%TD*%
D45*
%TO.C,U3*%
X370150000Y-99793750D03*
X370150000Y-100193750D03*
X370150000Y-100593750D03*
X370150000Y-100993750D03*
X370150000Y-101393750D03*
X370150000Y-101793750D03*
X370150000Y-102193750D03*
X370150000Y-102593750D03*
X370150000Y-102993750D03*
X370150000Y-103393750D03*
X370150000Y-103793750D03*
X370150000Y-104193750D03*
X370150000Y-104593750D03*
X370150000Y-104993750D03*
D46*
X369312500Y-105831250D03*
X368912500Y-105831250D03*
X368512500Y-105831250D03*
X368112500Y-105831250D03*
X367712500Y-105831250D03*
X367312500Y-105831250D03*
X366912500Y-105831250D03*
X366512500Y-105831250D03*
X366112500Y-105831250D03*
X365712500Y-105831250D03*
X365312500Y-105831250D03*
X364912500Y-105831250D03*
X364512500Y-105831250D03*
X364112500Y-105831250D03*
D45*
X363275000Y-104993750D03*
X363275000Y-104593750D03*
X363275000Y-104193750D03*
X363275000Y-103793750D03*
X363275000Y-103393750D03*
X363275000Y-102993750D03*
X363275000Y-102593750D03*
X363275000Y-102193750D03*
X363275000Y-101793750D03*
X363275000Y-101393750D03*
X363275000Y-100993750D03*
X363275000Y-100593750D03*
X363275000Y-100193750D03*
X363275000Y-99793750D03*
D46*
X364112500Y-98956250D03*
X364512500Y-98956250D03*
X364912500Y-98956250D03*
X365312500Y-98956250D03*
X365712500Y-98956250D03*
X366112500Y-98956250D03*
X366512500Y-98956250D03*
X366912500Y-98956250D03*
X367312500Y-98956250D03*
X367712500Y-98956250D03*
X368112500Y-98956250D03*
X368512500Y-98956250D03*
X368912500Y-98956250D03*
X369312500Y-98956250D03*
D47*
X366712499Y-102393749D03*
%TD*%
D16*
%TO.C,SW78*%
X56673750Y-127793750D03*
D11*
X51593750Y-127793750D03*
D16*
X46513750Y-127793750D03*
D17*
X47783750Y-125253750D03*
D18*
X44233750Y-125253750D03*
X57683750Y-122713750D03*
D17*
X54133750Y-122713750D03*
%TD*%
D16*
%TO.C,SW44*%
X230505000Y-70643750D03*
D11*
X225425000Y-70643750D03*
D16*
X220345000Y-70643750D03*
D17*
X221615000Y-68103750D03*
D18*
X218065000Y-68103750D03*
X231515000Y-65563750D03*
D17*
X227965000Y-65563750D03*
%TD*%
D14*
%TO.C,D15*%
X338137500Y-27843750D03*
X338137500Y-24543750D03*
%TD*%
%TO.C,D20*%
X85725000Y-56418750D03*
X85725000Y-53118750D03*
%TD*%
D16*
%TO.C,SW61*%
X235267500Y-89693750D03*
D11*
X230187500Y-89693750D03*
D16*
X225107500Y-89693750D03*
D17*
X226377500Y-87153750D03*
D18*
X222827500Y-87153750D03*
X236277500Y-84613750D03*
D17*
X232727500Y-84613750D03*
%TD*%
D16*
%TO.C,SW27*%
X220980000Y-51593750D03*
D11*
X215900000Y-51593750D03*
D16*
X210820000Y-51593750D03*
D17*
X212090000Y-49053750D03*
D18*
X208540000Y-49053750D03*
X221990000Y-46513750D03*
D17*
X218440000Y-46513750D03*
%TD*%
D35*
%TO.C,C16*%
X365933888Y-109819106D03*
X365255066Y-110497928D03*
%TD*%
D16*
%TO.C,SW54*%
X101917500Y-89693750D03*
D11*
X96837500Y-89693750D03*
D16*
X91757500Y-89693750D03*
D17*
X93027500Y-87153750D03*
D18*
X89477500Y-87153750D03*
X102927500Y-84613750D03*
D17*
X99377500Y-84613750D03*
%TD*%
D14*
%TO.C,D36*%
X76200000Y-75468750D03*
X76200000Y-72168750D03*
%TD*%
%TO.C,D42*%
X190500000Y-75468750D03*
X190500000Y-72168750D03*
%TD*%
%TO.C,D45*%
X247650000Y-75468750D03*
X247650000Y-72168750D03*
%TD*%
D16*
%TO.C,SW39*%
X135255000Y-70643750D03*
D11*
X130175000Y-70643750D03*
D16*
X125095000Y-70643750D03*
D17*
X126365000Y-68103750D03*
D18*
X122815000Y-68103750D03*
X136265000Y-65563750D03*
D17*
X132715000Y-65563750D03*
%TD*%
D16*
%TO.C,SW2*%
X68580000Y-23018750D03*
D11*
X63500000Y-23018750D03*
D16*
X58420000Y-23018750D03*
D17*
X59690000Y-20478750D03*
D18*
X56140000Y-20478750D03*
X69590000Y-17938750D03*
D17*
X66040000Y-17938750D03*
%TD*%
D16*
%TO.C,SW64*%
X42386250Y-108743750D03*
D11*
X37306250Y-108743750D03*
D16*
X32226250Y-108743750D03*
D17*
X33496250Y-106203750D03*
D18*
X29946250Y-106203750D03*
X43396250Y-103663750D03*
D17*
X39846250Y-103663750D03*
%TD*%
D16*
%TO.C,SW25*%
X182880000Y-51593750D03*
D11*
X177800000Y-51593750D03*
D16*
X172720000Y-51593750D03*
D17*
X173990000Y-49053750D03*
D18*
X170440000Y-49053750D03*
X183890000Y-46513750D03*
D17*
X180340000Y-46513750D03*
%TD*%
M02*
