<?xml version="1.0" standalone="no"?>
 <!DOCTYPE svg PUBLIC "-//W3C//DTD SVG 1.1//EN" 
 "http://www.w3.org/Graphics/SVG/1.1/DTD/svg11.dtd"> 
<svg
  xmlns:svg="http://www.w3.org/2000/svg"
  xmlns="http://www.w3.org/2000/svg"
  xmlns:xlink="http://www.w3.org/1999/xlink"
  version="1.1"
  width="297.0022mm" height="210.0072mm" viewBox="0.0000 0.0000 297.0022 210.0072">
<title>SVG Image created as TKL_PCB-brd.svg date 2024/01/10 23:04:05 </title>
  <desc>Image generated by PCBNEW </desc>
<g style="fill:#000000; fill-opacity:1.0000;stroke:#000000; stroke-opacity:1.0000;
stroke-linecap:round; stroke-linejoin:round;"
 transform="translate(0 0) scale(1 1)">
</g>
<g style="fill:#000000; fill-opacity:0.0; 
stroke:#000000; stroke-width:0.0000; stroke-opacity:1; 
stroke-linecap:round; stroke-linejoin:round;">
</g>
<g style="fill:#000000; fill-opacity:0.0; 
stroke:#000000; stroke-width:0.0212; stroke-opacity:1; 
stroke-linecap:round; stroke-linejoin:round;">
</g>
<g style="fill:#000000; fill-opacity:0.0; 
stroke:#000000; stroke-width:0.1500; stroke-opacity:1; 
stroke-linecap:round; stroke-linejoin:round;">
<path d="M177.0022 166.0072
L285.0022 166.0072
L285.0022 198.0072
L177.0022 198.0072
L177.0022 166.0072
" />
</g>
<g style="fill:#000000; fill-opacity:0.0; 
stroke:#000000; stroke-width:0.0212; stroke-opacity:1; 
stroke-linecap:round; stroke-linejoin:round;">
</g>
<g style="fill:#000000; fill-opacity:0.0; 
stroke:#000000; stroke-width:0.1500; stroke-opacity:1; 
stroke-linecap:round; stroke-linejoin:round;">
<path d="M10.0000 10.0000
L287.0022 10.0000
L287.0022 200.0072
L10.0000 200.0072
L10.0000 10.0000
" />
</g>
<g style="fill:#000000; fill-opacity:0.0; 
stroke:#000000; stroke-width:0.0212; stroke-opacity:1; 
stroke-linecap:round; stroke-linejoin:round;">
</g>
<g style="fill:#000000; fill-opacity:0.0; 
stroke:#000000; stroke-width:0.1500; stroke-opacity:1; 
stroke-linecap:round; stroke-linejoin:round;">
<path d="M12.0000 12.0000
L285.0022 12.0000
L285.0022 198.0072
L12.0000 198.0072
L12.0000 12.0000
" />
</g>
<g style="fill:#000000; fill-opacity:0.0; 
stroke:#000000; stroke-width:0.0212; stroke-opacity:1; 
stroke-linecap:round; stroke-linejoin:round;">
</g>
<g style="fill:#000000; fill-opacity:0.0; 
stroke:#000000; stroke-width:0.1500; stroke-opacity:1; 
stroke-linecap:round; stroke-linejoin:round;">
<path d="M60.0000 12.0000
L60.0000 10.0000
" />
</g>
<g style="fill:#000000; fill-opacity:0.0; 
stroke:#000000; stroke-width:0.0212; stroke-opacity:1; 
stroke-linecap:round; stroke-linejoin:round;">
</g>
<g style="fill:#000000; fill-opacity:0.0; 
stroke:#000000; stroke-width:0.1500; stroke-opacity:1; 
stroke-linecap:round; stroke-linejoin:round;">
<path d="M110.0000 12.0000
L110.0000 10.0000
" />
</g>
<g style="fill:#000000; fill-opacity:0.0; 
stroke:#000000; stroke-width:0.0212; stroke-opacity:1; 
stroke-linecap:round; stroke-linejoin:round;">
</g>
<g style="fill:#000000; fill-opacity:0.0; 
stroke:#000000; stroke-width:0.1500; stroke-opacity:1; 
stroke-linecap:round; stroke-linejoin:round;">
<path d="M160.0000 12.0000
L160.0000 10.0000
" />
</g>
<g style="fill:#000000; fill-opacity:0.0; 
stroke:#000000; stroke-width:0.0212; stroke-opacity:1; 
stroke-linecap:round; stroke-linejoin:round;">
</g>
<g style="fill:#000000; fill-opacity:0.0; 
stroke:#000000; stroke-width:0.1500; stroke-opacity:1; 
stroke-linecap:round; stroke-linejoin:round;">
<path d="M210.0000 12.0000
L210.0000 10.0000
" />
</g>
<g style="fill:#000000; fill-opacity:0.0; 
stroke:#000000; stroke-width:0.0212; stroke-opacity:1; 
stroke-linecap:round; stroke-linejoin:round;">
</g>
<g style="fill:#000000; fill-opacity:0.0; 
stroke:#000000; stroke-width:0.1500; stroke-opacity:1; 
stroke-linecap:round; stroke-linejoin:round;">
<path d="M260.0000 12.0000
L260.0000 10.0000
" />
</g>
<g style="fill:#000000; fill-opacity:0.0; 
stroke:#000000; stroke-width:0.0212; stroke-opacity:1; 
stroke-linecap:round; stroke-linejoin:round;">
</g>
<g style="fill:#000000; fill-opacity:0.0; 
stroke:#000000; stroke-width:0.1500; stroke-opacity:1; 
stroke-linecap:round; stroke-linejoin:round;">
<text x="35.0000" y="11.6500"
textLength="1.3531" font-size="1.7333" lengthAdjust="spacingAndGlyphs"
text-anchor="start" opacity="0">1</text>
<g class="stroked-text"><desc>1</desc>
<path d="M35.9905 11.4776
L35.2476 11.4776
" />
<path d="M35.6190 11.4776
L35.6190 10.1776
" />
<path d="M35.6190 10.1776
L35.4952 10.3633
" />
<path d="M35.4952 10.3633
L35.3714 10.4871
" />
<path d="M35.3714 10.4871
L35.2476 10.5490
" />
</g></g>
<g style="fill:#000000; fill-opacity:0.0; 
stroke:#000000; stroke-width:0.0212; stroke-opacity:1; 
stroke-linecap:round; stroke-linejoin:round;">
</g>
<g style="fill:#000000; fill-opacity:0.0; 
stroke:#000000; stroke-width:0.1500; stroke-opacity:1; 
stroke-linecap:round; stroke-linejoin:round;">
<text x="85.0000" y="11.6500"
textLength="1.3531" font-size="1.7333" lengthAdjust="spacingAndGlyphs"
text-anchor="start" opacity="0">2</text>
<g class="stroked-text"><desc>2</desc>
<path d="M85.2476 10.3014
L85.3095 10.2395
" />
<path d="M85.3095 10.2395
L85.4333 10.1776
" />
<path d="M85.4333 10.1776
L85.7429 10.1776
" />
<path d="M85.7429 10.1776
L85.8667 10.2395
" />
<path d="M85.8667 10.2395
L85.9286 10.3014
" />
<path d="M85.9286 10.3014
L85.9905 10.4252
" />
<path d="M85.9905 10.4252
L85.9905 10.5490
" />
<path d="M85.9905 10.5490
L85.9286 10.7347
" />
<path d="M85.9286 10.7347
L85.1857 11.4776
" />
<path d="M85.1857 11.4776
L85.9905 11.4776
" />
</g></g>
<g style="fill:#000000; fill-opacity:0.0; 
stroke:#000000; stroke-width:0.0212; stroke-opacity:1; 
stroke-linecap:round; stroke-linejoin:round;">
</g>
<g style="fill:#000000; fill-opacity:0.0; 
stroke:#000000; stroke-width:0.1500; stroke-opacity:1; 
stroke-linecap:round; stroke-linejoin:round;">
<text x="135.0000" y="11.6500"
textLength="1.3531" font-size="1.7333" lengthAdjust="spacingAndGlyphs"
text-anchor="start" opacity="0">3</text>
<g class="stroked-text"><desc>3</desc>
<path d="M135.1857 10.1776
L135.9905 10.1776
" />
<path d="M135.9905 10.1776
L135.5571 10.6728
" />
<path d="M135.5571 10.6728
L135.7429 10.6728
" />
<path d="M135.7429 10.6728
L135.8667 10.7347
" />
<path d="M135.8667 10.7347
L135.9286 10.7966
" />
<path d="M135.9286 10.7966
L135.9905 10.9205
" />
<path d="M135.9905 10.9205
L135.9905 11.2300
" />
<path d="M135.9905 11.2300
L135.9286 11.3538
" />
<path d="M135.9286 11.3538
L135.8667 11.4157
" />
<path d="M135.8667 11.4157
L135.7429 11.4776
" />
<path d="M135.7429 11.4776
L135.3714 11.4776
" />
<path d="M135.3714 11.4776
L135.2476 11.4157
" />
<path d="M135.2476 11.4157
L135.1857 11.3538
" />
</g></g>
<g style="fill:#000000; fill-opacity:0.0; 
stroke:#000000; stroke-width:0.0212; stroke-opacity:1; 
stroke-linecap:round; stroke-linejoin:round;">
</g>
<g style="fill:#000000; fill-opacity:0.0; 
stroke:#000000; stroke-width:0.1500; stroke-opacity:1; 
stroke-linecap:round; stroke-linejoin:round;">
<text x="185.0000" y="11.6500"
textLength="1.3531" font-size="1.7333" lengthAdjust="spacingAndGlyphs"
text-anchor="start" opacity="0">4</text>
<g class="stroked-text"><desc>4</desc>
<path d="M185.8667 10.6109
L185.8667 11.4776
" />
<path d="M185.5571 10.1157
L185.2476 11.0443
" />
<path d="M185.2476 11.0443
L186.0524 11.0443
" />
</g></g>
<g style="fill:#000000; fill-opacity:0.0; 
stroke:#000000; stroke-width:0.0212; stroke-opacity:1; 
stroke-linecap:round; stroke-linejoin:round;">
</g>
<g style="fill:#000000; fill-opacity:0.0; 
stroke:#000000; stroke-width:0.1500; stroke-opacity:1; 
stroke-linecap:round; stroke-linejoin:round;">
<text x="235.0000" y="11.6500"
textLength="1.3531" font-size="1.7333" lengthAdjust="spacingAndGlyphs"
text-anchor="start" opacity="0">5</text>
<g class="stroked-text"><desc>5</desc>
<path d="M235.9286 10.1776
L235.3095 10.1776
" />
<path d="M235.3095 10.1776
L235.2476 10.7966
" />
<path d="M235.2476 10.7966
L235.3095 10.7347
" />
<path d="M235.3095 10.7347
L235.4333 10.6728
" />
<path d="M235.4333 10.6728
L235.7429 10.6728
" />
<path d="M235.7429 10.6728
L235.8667 10.7347
" />
<path d="M235.8667 10.7347
L235.9286 10.7966
" />
<path d="M235.9286 10.7966
L235.9905 10.9205
" />
<path d="M235.9905 10.9205
L235.9905 11.2300
" />
<path d="M235.9905 11.2300
L235.9286 11.3538
" />
<path d="M235.9286 11.3538
L235.8667 11.4157
" />
<path d="M235.8667 11.4157
L235.7429 11.4776
" />
<path d="M235.7429 11.4776
L235.4333 11.4776
" />
<path d="M235.4333 11.4776
L235.3095 11.4157
" />
<path d="M235.3095 11.4157
L235.2476 11.3538
" />
</g></g>
<g style="fill:#000000; fill-opacity:0.0; 
stroke:#000000; stroke-width:0.0212; stroke-opacity:1; 
stroke-linecap:round; stroke-linejoin:round;">
</g>
<g style="fill:#000000; fill-opacity:0.0; 
stroke:#000000; stroke-width:0.1500; stroke-opacity:1; 
stroke-linecap:round; stroke-linejoin:round;">
<text x="285.0000" y="11.6500"
textLength="1.3531" font-size="1.7333" lengthAdjust="spacingAndGlyphs"
text-anchor="start" opacity="0">6</text>
<g class="stroked-text"><desc>6</desc>
<path d="M285.8667 10.1776
L285.6190 10.1776
" />
<path d="M285.6190 10.1776
L285.4952 10.2395
" />
<path d="M285.4952 10.2395
L285.4333 10.3014
" />
<path d="M285.4333 10.3014
L285.3095 10.4871
" />
<path d="M285.3095 10.4871
L285.2476 10.7347
" />
<path d="M285.2476 10.7347
L285.2476 11.2300
" />
<path d="M285.2476 11.2300
L285.3095 11.3538
" />
<path d="M285.3095 11.3538
L285.3714 11.4157
" />
<path d="M285.3714 11.4157
L285.4952 11.4776
" />
<path d="M285.4952 11.4776
L285.7429 11.4776
" />
<path d="M285.7429 11.4776
L285.8667 11.4157
" />
<path d="M285.8667 11.4157
L285.9286 11.3538
" />
<path d="M285.9286 11.3538
L285.9905 11.2300
" />
<path d="M285.9905 11.2300
L285.9905 10.9205
" />
<path d="M285.9905 10.9205
L285.9286 10.7966
" />
<path d="M285.9286 10.7966
L285.8667 10.7347
" />
<path d="M285.8667 10.7347
L285.7429 10.6728
" />
<path d="M285.7429 10.6728
L285.4952 10.6728
" />
<path d="M285.4952 10.6728
L285.3714 10.7347
" />
<path d="M285.3714 10.7347
L285.3095 10.7966
" />
<path d="M285.3095 10.7966
L285.2476 10.9205
" />
</g></g>
<g style="fill:#000000; fill-opacity:0.0; 
stroke:#000000; stroke-width:0.0212; stroke-opacity:1; 
stroke-linecap:round; stroke-linejoin:round;">
</g>
<g style="fill:#000000; fill-opacity:0.0; 
stroke:#000000; stroke-width:0.1500; stroke-opacity:1; 
stroke-linecap:round; stroke-linejoin:round;">
<path d="M60.0000 198.0072
L60.0000 200.0072
" />
</g>
<g style="fill:#000000; fill-opacity:0.0; 
stroke:#000000; stroke-width:0.0212; stroke-opacity:1; 
stroke-linecap:round; stroke-linejoin:round;">
</g>
<g style="fill:#000000; fill-opacity:0.0; 
stroke:#000000; stroke-width:0.1500; stroke-opacity:1; 
stroke-linecap:round; stroke-linejoin:round;">
<path d="M110.0000 198.0072
L110.0000 200.0072
" />
</g>
<g style="fill:#000000; fill-opacity:0.0; 
stroke:#000000; stroke-width:0.0212; stroke-opacity:1; 
stroke-linecap:round; stroke-linejoin:round;">
</g>
<g style="fill:#000000; fill-opacity:0.0; 
stroke:#000000; stroke-width:0.1500; stroke-opacity:1; 
stroke-linecap:round; stroke-linejoin:round;">
<path d="M160.0000 198.0072
L160.0000 200.0072
" />
</g>
<g style="fill:#000000; fill-opacity:0.0; 
stroke:#000000; stroke-width:0.0212; stroke-opacity:1; 
stroke-linecap:round; stroke-linejoin:round;">
</g>
<g style="fill:#000000; fill-opacity:0.0; 
stroke:#000000; stroke-width:0.1500; stroke-opacity:1; 
stroke-linecap:round; stroke-linejoin:round;">
<path d="M210.0000 198.0072
L210.0000 200.0072
" />
</g>
<g style="fill:#000000; fill-opacity:0.0; 
stroke:#000000; stroke-width:0.0212; stroke-opacity:1; 
stroke-linecap:round; stroke-linejoin:round;">
</g>
<g style="fill:#000000; fill-opacity:0.0; 
stroke:#000000; stroke-width:0.1500; stroke-opacity:1; 
stroke-linecap:round; stroke-linejoin:round;">
<path d="M260.0000 198.0072
L260.0000 200.0072
" />
</g>
<g style="fill:#000000; fill-opacity:0.0; 
stroke:#000000; stroke-width:0.0212; stroke-opacity:1; 
stroke-linecap:round; stroke-linejoin:round;">
</g>
<g style="fill:#000000; fill-opacity:0.0; 
stroke:#000000; stroke-width:0.1500; stroke-opacity:1; 
stroke-linecap:round; stroke-linejoin:round;">
<text x="35.0000" y="199.6572"
textLength="1.3531" font-size="1.7333" lengthAdjust="spacingAndGlyphs"
text-anchor="start" opacity="0">1</text>
<g class="stroked-text"><desc>1</desc>
<path d="M35.9905 199.4848
L35.2476 199.4848
" />
<path d="M35.6190 199.4848
L35.6190 198.1848
" />
<path d="M35.6190 198.1848
L35.4952 198.3705
" />
<path d="M35.4952 198.3705
L35.3714 198.4943
" />
<path d="M35.3714 198.4943
L35.2476 198.5562
" />
</g></g>
<g style="fill:#000000; fill-opacity:0.0; 
stroke:#000000; stroke-width:0.0212; stroke-opacity:1; 
stroke-linecap:round; stroke-linejoin:round;">
</g>
<g style="fill:#000000; fill-opacity:0.0; 
stroke:#000000; stroke-width:0.1500; stroke-opacity:1; 
stroke-linecap:round; stroke-linejoin:round;">
<text x="85.0000" y="199.6572"
textLength="1.3531" font-size="1.7333" lengthAdjust="spacingAndGlyphs"
text-anchor="start" opacity="0">2</text>
<g class="stroked-text"><desc>2</desc>
<path d="M85.2476 198.3086
L85.3095 198.2467
" />
<path d="M85.3095 198.2467
L85.4333 198.1848
" />
<path d="M85.4333 198.1848
L85.7429 198.1848
" />
<path d="M85.7429 198.1848
L85.8667 198.2467
" />
<path d="M85.8667 198.2467
L85.9286 198.3086
" />
<path d="M85.9286 198.3086
L85.9905 198.4324
" />
<path d="M85.9905 198.4324
L85.9905 198.5562
" />
<path d="M85.9905 198.5562
L85.9286 198.7419
" />
<path d="M85.9286 198.7419
L85.1857 199.4848
" />
<path d="M85.1857 199.4848
L85.9905 199.4848
" />
</g></g>
<g style="fill:#000000; fill-opacity:0.0; 
stroke:#000000; stroke-width:0.0212; stroke-opacity:1; 
stroke-linecap:round; stroke-linejoin:round;">
</g>
<g style="fill:#000000; fill-opacity:0.0; 
stroke:#000000; stroke-width:0.1500; stroke-opacity:1; 
stroke-linecap:round; stroke-linejoin:round;">
<text x="135.0000" y="199.6572"
textLength="1.3531" font-size="1.7333" lengthAdjust="spacingAndGlyphs"
text-anchor="start" opacity="0">3</text>
<g class="stroked-text"><desc>3</desc>
<path d="M135.1857 198.1848
L135.9905 198.1848
" />
<path d="M135.9905 198.1848
L135.5571 198.6800
" />
<path d="M135.5571 198.6800
L135.7429 198.6800
" />
<path d="M135.7429 198.6800
L135.8667 198.7419
" />
<path d="M135.8667 198.7419
L135.9286 198.8038
" />
<path d="M135.9286 198.8038
L135.9905 198.9277
" />
<path d="M135.9905 198.9277
L135.9905 199.2372
" />
<path d="M135.9905 199.2372
L135.9286 199.3610
" />
<path d="M135.9286 199.3610
L135.8667 199.4229
" />
<path d="M135.8667 199.4229
L135.7429 199.4848
" />
<path d="M135.7429 199.4848
L135.3714 199.4848
" />
<path d="M135.3714 199.4848
L135.2476 199.4229
" />
<path d="M135.2476 199.4229
L135.1857 199.3610
" />
</g></g>
<g style="fill:#000000; fill-opacity:0.0; 
stroke:#000000; stroke-width:0.0212; stroke-opacity:1; 
stroke-linecap:round; stroke-linejoin:round;">
</g>
<g style="fill:#000000; fill-opacity:0.0; 
stroke:#000000; stroke-width:0.1500; stroke-opacity:1; 
stroke-linecap:round; stroke-linejoin:round;">
<text x="185.0000" y="199.6572"
textLength="1.3531" font-size="1.7333" lengthAdjust="spacingAndGlyphs"
text-anchor="start" opacity="0">4</text>
<g class="stroked-text"><desc>4</desc>
<path d="M185.8667 198.6181
L185.8667 199.4848
" />
<path d="M185.5571 198.1229
L185.2476 199.0515
" />
<path d="M185.2476 199.0515
L186.0524 199.0515
" />
</g></g>
<g style="fill:#000000; fill-opacity:0.0; 
stroke:#000000; stroke-width:0.0212; stroke-opacity:1; 
stroke-linecap:round; stroke-linejoin:round;">
</g>
<g style="fill:#000000; fill-opacity:0.0; 
stroke:#000000; stroke-width:0.1500; stroke-opacity:1; 
stroke-linecap:round; stroke-linejoin:round;">
<text x="235.0000" y="199.6572"
textLength="1.3531" font-size="1.7333" lengthAdjust="spacingAndGlyphs"
text-anchor="start" opacity="0">5</text>
<g class="stroked-text"><desc>5</desc>
<path d="M235.9286 198.1848
L235.3095 198.1848
" />
<path d="M235.3095 198.1848
L235.2476 198.8038
" />
<path d="M235.2476 198.8038
L235.3095 198.7419
" />
<path d="M235.3095 198.7419
L235.4333 198.6800
" />
<path d="M235.4333 198.6800
L235.7429 198.6800
" />
<path d="M235.7429 198.6800
L235.8667 198.7419
" />
<path d="M235.8667 198.7419
L235.9286 198.8038
" />
<path d="M235.9286 198.8038
L235.9905 198.9277
" />
<path d="M235.9905 198.9277
L235.9905 199.2372
" />
<path d="M235.9905 199.2372
L235.9286 199.3610
" />
<path d="M235.9286 199.3610
L235.8667 199.4229
" />
<path d="M235.8667 199.4229
L235.7429 199.4848
" />
<path d="M235.7429 199.4848
L235.4333 199.4848
" />
<path d="M235.4333 199.4848
L235.3095 199.4229
" />
<path d="M235.3095 199.4229
L235.2476 199.3610
" />
</g></g>
<g style="fill:#000000; fill-opacity:0.0; 
stroke:#000000; stroke-width:0.0212; stroke-opacity:1; 
stroke-linecap:round; stroke-linejoin:round;">
</g>
<g style="fill:#000000; fill-opacity:0.0; 
stroke:#000000; stroke-width:0.1500; stroke-opacity:1; 
stroke-linecap:round; stroke-linejoin:round;">
<text x="285.0000" y="199.6572"
textLength="1.3531" font-size="1.7333" lengthAdjust="spacingAndGlyphs"
text-anchor="start" opacity="0">6</text>
<g class="stroked-text"><desc>6</desc>
<path d="M285.8667 198.1848
L285.6190 198.1848
" />
<path d="M285.6190 198.1848
L285.4952 198.2467
" />
<path d="M285.4952 198.2467
L285.4333 198.3086
" />
<path d="M285.4333 198.3086
L285.3095 198.4943
" />
<path d="M285.3095 198.4943
L285.2476 198.7419
" />
<path d="M285.2476 198.7419
L285.2476 199.2372
" />
<path d="M285.2476 199.2372
L285.3095 199.3610
" />
<path d="M285.3095 199.3610
L285.3714 199.4229
" />
<path d="M285.3714 199.4229
L285.4952 199.4848
" />
<path d="M285.4952 199.4848
L285.7429 199.4848
" />
<path d="M285.7429 199.4848
L285.8667 199.4229
" />
<path d="M285.8667 199.4229
L285.9286 199.3610
" />
<path d="M285.9286 199.3610
L285.9905 199.2372
" />
<path d="M285.9905 199.2372
L285.9905 198.9277
" />
<path d="M285.9905 198.9277
L285.9286 198.8038
" />
<path d="M285.9286 198.8038
L285.8667 198.7419
" />
<path d="M285.8667 198.7419
L285.7429 198.6800
" />
<path d="M285.7429 198.6800
L285.4952 198.6800
" />
<path d="M285.4952 198.6800
L285.3714 198.7419
" />
<path d="M285.3714 198.7419
L285.3095 198.8038
" />
<path d="M285.3095 198.8038
L285.2476 198.9277
" />
</g></g>
<g style="fill:#000000; fill-opacity:0.0; 
stroke:#000000; stroke-width:0.0212; stroke-opacity:1; 
stroke-linecap:round; stroke-linejoin:round;">
</g>
<g style="fill:#000000; fill-opacity:0.0; 
stroke:#000000; stroke-width:0.1500; stroke-opacity:1; 
stroke-linecap:round; stroke-linejoin:round;">
<path d="M10.0000 60.0000
L12.0000 60.0000
" />
</g>
<g style="fill:#000000; fill-opacity:0.0; 
stroke:#000000; stroke-width:0.0212; stroke-opacity:1; 
stroke-linecap:round; stroke-linejoin:round;">
</g>
<g style="fill:#000000; fill-opacity:0.0; 
stroke:#000000; stroke-width:0.1500; stroke-opacity:1; 
stroke-linecap:round; stroke-linejoin:round;">
<path d="M10.0000 110.0000
L12.0000 110.0000
" />
</g>
<g style="fill:#000000; fill-opacity:0.0; 
stroke:#000000; stroke-width:0.0212; stroke-opacity:1; 
stroke-linecap:round; stroke-linejoin:round;">
</g>
<g style="fill:#000000; fill-opacity:0.0; 
stroke:#000000; stroke-width:0.1500; stroke-opacity:1; 
stroke-linecap:round; stroke-linejoin:round;">
<path d="M10.0000 160.0000
L12.0000 160.0000
" />
</g>
<g style="fill:#000000; fill-opacity:0.0; 
stroke:#000000; stroke-width:0.0212; stroke-opacity:1; 
stroke-linecap:round; stroke-linejoin:round;">
</g>
<g style="fill:#000000; fill-opacity:0.0; 
stroke:#000000; stroke-width:0.1500; stroke-opacity:1; 
stroke-linecap:round; stroke-linejoin:round;">
<text x="11.0000" y="35.6500"
textLength="1.2293" font-size="1.7333" lengthAdjust="spacingAndGlyphs"
text-anchor="middle" opacity="0">A</text>
<g class="stroked-text"><desc>A</desc>
<path d="M10.6905 35.1062
L11.3095 35.1062
" />
<path d="M10.5667 35.4776
L11.0000 34.1776
" />
<path d="M11.0000 34.1776
L11.4333 35.4776
" />
</g></g>
<g style="fill:#000000; fill-opacity:0.0; 
stroke:#000000; stroke-width:0.0212; stroke-opacity:1; 
stroke-linecap:round; stroke-linejoin:round;">
</g>
<g style="fill:#000000; fill-opacity:0.0; 
stroke:#000000; stroke-width:0.1500; stroke-opacity:1; 
stroke-linecap:round; stroke-linejoin:round;">
<text x="11.0000" y="85.6500"
textLength="1.4150" font-size="1.7333" lengthAdjust="spacingAndGlyphs"
text-anchor="middle" opacity="0">B</text>
<g class="stroked-text"><desc>B</desc>
<path d="M11.0929 84.7966
L11.2786 84.8585
" />
<path d="M11.2786 84.8585
L11.3405 84.9205
" />
<path d="M11.3405 84.9205
L11.4024 85.0443
" />
<path d="M11.4024 85.0443
L11.4024 85.2300
" />
<path d="M11.4024 85.2300
L11.3405 85.3538
" />
<path d="M11.3405 85.3538
L11.2786 85.4157
" />
<path d="M11.2786 85.4157
L11.1548 85.4776
" />
<path d="M11.1548 85.4776
L10.6595 85.4776
" />
<path d="M10.6595 85.4776
L10.6595 84.1776
" />
<path d="M10.6595 84.1776
L11.0929 84.1776
" />
<path d="M11.0929 84.1776
L11.2167 84.2395
" />
<path d="M11.2167 84.2395
L11.2786 84.3014
" />
<path d="M11.2786 84.3014
L11.3405 84.4252
" />
<path d="M11.3405 84.4252
L11.3405 84.5490
" />
<path d="M11.3405 84.5490
L11.2786 84.6728
" />
<path d="M11.2786 84.6728
L11.2167 84.7347
" />
<path d="M11.2167 84.7347
L11.0929 84.7966
" />
<path d="M11.0929 84.7966
L10.6595 84.7966
" />
</g></g>
<g style="fill:#000000; fill-opacity:0.0; 
stroke:#000000; stroke-width:0.0212; stroke-opacity:1; 
stroke-linecap:round; stroke-linejoin:round;">
</g>
<g style="fill:#000000; fill-opacity:0.0; 
stroke:#000000; stroke-width:0.1500; stroke-opacity:1; 
stroke-linecap:round; stroke-linejoin:round;">
<text x="11.0000" y="135.6500"
textLength="1.4150" font-size="1.7333" lengthAdjust="spacingAndGlyphs"
text-anchor="middle" opacity="0">C</text>
<g class="stroked-text"><desc>C</desc>
<path d="M11.4024 135.3538
L11.3405 135.4157
" />
<path d="M11.3405 135.4157
L11.1548 135.4776
" />
<path d="M11.1548 135.4776
L11.0310 135.4776
" />
<path d="M11.0310 135.4776
L10.8452 135.4157
" />
<path d="M10.8452 135.4157
L10.7214 135.2919
" />
<path d="M10.7214 135.2919
L10.6595 135.1681
" />
<path d="M10.6595 135.1681
L10.5976 134.9205
" />
<path d="M10.5976 134.9205
L10.5976 134.7347
" />
<path d="M10.5976 134.7347
L10.6595 134.4871
" />
<path d="M10.6595 134.4871
L10.7214 134.3633
" />
<path d="M10.7214 134.3633
L10.8452 134.2395
" />
<path d="M10.8452 134.2395
L11.0310 134.1776
" />
<path d="M11.0310 134.1776
L11.1548 134.1776
" />
<path d="M11.1548 134.1776
L11.3405 134.2395
" />
<path d="M11.3405 134.2395
L11.4024 134.3014
" />
</g></g>
<g style="fill:#000000; fill-opacity:0.0; 
stroke:#000000; stroke-width:0.0212; stroke-opacity:1; 
stroke-linecap:round; stroke-linejoin:round;">
</g>
<g style="fill:#000000; fill-opacity:0.0; 
stroke:#000000; stroke-width:0.1500; stroke-opacity:1; 
stroke-linecap:round; stroke-linejoin:round;">
<text x="11.0000" y="185.6500"
textLength="1.4150" font-size="1.7333" lengthAdjust="spacingAndGlyphs"
text-anchor="middle" opacity="0">D</text>
<g class="stroked-text"><desc>D</desc>
<path d="M10.6595 185.4776
L10.6595 184.1776
" />
<path d="M10.6595 184.1776
L10.9690 184.1776
" />
<path d="M10.9690 184.1776
L11.1548 184.2395
" />
<path d="M11.1548 184.2395
L11.2786 184.3633
" />
<path d="M11.2786 184.3633
L11.3405 184.4871
" />
<path d="M11.3405 184.4871
L11.4024 184.7347
" />
<path d="M11.4024 184.7347
L11.4024 184.9205
" />
<path d="M11.4024 184.9205
L11.3405 185.1681
" />
<path d="M11.3405 185.1681
L11.2786 185.2919
" />
<path d="M11.2786 185.2919
L11.1548 185.4157
" />
<path d="M11.1548 185.4157
L10.9690 185.4776
" />
<path d="M10.9690 185.4776
L10.6595 185.4776
" />
</g></g>
<g style="fill:#000000; fill-opacity:0.0; 
stroke:#000000; stroke-width:0.0212; stroke-opacity:1; 
stroke-linecap:round; stroke-linejoin:round;">
</g>
<g style="fill:#000000; fill-opacity:0.0; 
stroke:#000000; stroke-width:0.1500; stroke-opacity:1; 
stroke-linecap:round; stroke-linejoin:round;">
<path d="M287.0022 60.0000
L285.0022 60.0000
" />
</g>
<g style="fill:#000000; fill-opacity:0.0; 
stroke:#000000; stroke-width:0.0212; stroke-opacity:1; 
stroke-linecap:round; stroke-linejoin:round;">
</g>
<g style="fill:#000000; fill-opacity:0.0; 
stroke:#000000; stroke-width:0.1500; stroke-opacity:1; 
stroke-linecap:round; stroke-linejoin:round;">
<path d="M287.0022 110.0000
L285.0022 110.0000
" />
</g>
<g style="fill:#000000; fill-opacity:0.0; 
stroke:#000000; stroke-width:0.0212; stroke-opacity:1; 
stroke-linecap:round; stroke-linejoin:round;">
</g>
<g style="fill:#000000; fill-opacity:0.0; 
stroke:#000000; stroke-width:0.1500; stroke-opacity:1; 
stroke-linecap:round; stroke-linejoin:round;">
<path d="M287.0022 160.0000
L285.0022 160.0000
" />
</g>
<g style="fill:#000000; fill-opacity:0.0; 
stroke:#000000; stroke-width:0.0212; stroke-opacity:1; 
stroke-linecap:round; stroke-linejoin:round;">
</g>
<g style="fill:#000000; fill-opacity:0.0; 
stroke:#000000; stroke-width:0.1500; stroke-opacity:1; 
stroke-linecap:round; stroke-linejoin:round;">
<text x="286.0022" y="35.6500"
textLength="1.2293" font-size="1.7333" lengthAdjust="spacingAndGlyphs"
text-anchor="middle" opacity="0">A</text>
<g class="stroked-text"><desc>A</desc>
<path d="M285.6927 35.1062
L286.3117 35.1062
" />
<path d="M285.5689 35.4776
L286.0022 34.1776
" />
<path d="M286.0022 34.1776
L286.4355 35.4776
" />
</g></g>
<g style="fill:#000000; fill-opacity:0.0; 
stroke:#000000; stroke-width:0.0212; stroke-opacity:1; 
stroke-linecap:round; stroke-linejoin:round;">
</g>
<g style="fill:#000000; fill-opacity:0.0; 
stroke:#000000; stroke-width:0.1500; stroke-opacity:1; 
stroke-linecap:round; stroke-linejoin:round;">
<text x="286.0022" y="85.6500"
textLength="1.4150" font-size="1.7333" lengthAdjust="spacingAndGlyphs"
text-anchor="middle" opacity="0">B</text>
<g class="stroked-text"><desc>B</desc>
<path d="M286.0951 84.7966
L286.2808 84.8585
" />
<path d="M286.2808 84.8585
L286.3427 84.9205
" />
<path d="M286.3427 84.9205
L286.4046 85.0443
" />
<path d="M286.4046 85.0443
L286.4046 85.2300
" />
<path d="M286.4046 85.2300
L286.3427 85.3538
" />
<path d="M286.3427 85.3538
L286.2808 85.4157
" />
<path d="M286.2808 85.4157
L286.1570 85.4776
" />
<path d="M286.1570 85.4776
L285.6617 85.4776
" />
<path d="M285.6617 85.4776
L285.6617 84.1776
" />
<path d="M285.6617 84.1776
L286.0951 84.1776
" />
<path d="M286.0951 84.1776
L286.2189 84.2395
" />
<path d="M286.2189 84.2395
L286.2808 84.3014
" />
<path d="M286.2808 84.3014
L286.3427 84.4252
" />
<path d="M286.3427 84.4252
L286.3427 84.5490
" />
<path d="M286.3427 84.5490
L286.2808 84.6728
" />
<path d="M286.2808 84.6728
L286.2189 84.7347
" />
<path d="M286.2189 84.7347
L286.0951 84.7966
" />
<path d="M286.0951 84.7966
L285.6617 84.7966
" />
</g></g>
<g style="fill:#000000; fill-opacity:0.0; 
stroke:#000000; stroke-width:0.0212; stroke-opacity:1; 
stroke-linecap:round; stroke-linejoin:round;">
</g>
<g style="fill:#000000; fill-opacity:0.0; 
stroke:#000000; stroke-width:0.1500; stroke-opacity:1; 
stroke-linecap:round; stroke-linejoin:round;">
<text x="286.0022" y="135.6500"
textLength="1.4150" font-size="1.7333" lengthAdjust="spacingAndGlyphs"
text-anchor="middle" opacity="0">C</text>
<g class="stroked-text"><desc>C</desc>
<path d="M286.4046 135.3538
L286.3427 135.4157
" />
<path d="M286.3427 135.4157
L286.1570 135.4776
" />
<path d="M286.1570 135.4776
L286.0332 135.4776
" />
<path d="M286.0332 135.4776
L285.8474 135.4157
" />
<path d="M285.8474 135.4157
L285.7236 135.2919
" />
<path d="M285.7236 135.2919
L285.6617 135.1681
" />
<path d="M285.6617 135.1681
L285.5998 134.9205
" />
<path d="M285.5998 134.9205
L285.5998 134.7347
" />
<path d="M285.5998 134.7347
L285.6617 134.4871
" />
<path d="M285.6617 134.4871
L285.7236 134.3633
" />
<path d="M285.7236 134.3633
L285.8474 134.2395
" />
<path d="M285.8474 134.2395
L286.0332 134.1776
" />
<path d="M286.0332 134.1776
L286.1570 134.1776
" />
<path d="M286.1570 134.1776
L286.3427 134.2395
" />
<path d="M286.3427 134.2395
L286.4046 134.3014
" />
</g></g>
<g style="fill:#000000; fill-opacity:0.0; 
stroke:#000000; stroke-width:0.0212; stroke-opacity:1; 
stroke-linecap:round; stroke-linejoin:round;">
</g>
<g style="fill:#000000; fill-opacity:0.0; 
stroke:#000000; stroke-width:0.1500; stroke-opacity:1; 
stroke-linecap:round; stroke-linejoin:round;">
<text x="286.0022" y="185.6500"
textLength="1.4150" font-size="1.7333" lengthAdjust="spacingAndGlyphs"
text-anchor="middle" opacity="0">D</text>
<g class="stroked-text"><desc>D</desc>
<path d="M285.6617 185.4776
L285.6617 184.1776
" />
<path d="M285.6617 184.1776
L285.9712 184.1776
" />
<path d="M285.9712 184.1776
L286.1570 184.2395
" />
<path d="M286.1570 184.2395
L286.2808 184.3633
" />
<path d="M286.2808 184.3633
L286.3427 184.4871
" />
<path d="M286.3427 184.4871
L286.4046 184.7347
" />
<path d="M286.4046 184.7347
L286.4046 184.9205
" />
<path d="M286.4046 184.9205
L286.3427 185.1681
" />
<path d="M286.3427 185.1681
L286.2808 185.2919
" />
<path d="M286.2808 185.2919
L286.1570 185.4157
" />
<path d="M286.1570 185.4157
L285.9712 185.4776
" />
<path d="M285.9712 185.4776
L285.6617 185.4776
" />
</g></g>
<g style="fill:#000000; fill-opacity:0.0; 
stroke:#000000; stroke-width:0.0212; stroke-opacity:1; 
stroke-linecap:round; stroke-linejoin:round;">
</g>
<g style="fill:#000000; fill-opacity:0.0; 
stroke:#000000; stroke-width:0.1500; stroke-opacity:1; 
stroke-linecap:round; stroke-linejoin:round;">
<text x="200.0022" y="193.8572"
textLength="6.6893" font-size="2.0000" lengthAdjust="spacingAndGlyphs"
text-anchor="start" opacity="0">Date: </text>
<g class="stroked-text"><desc>Date: </desc>
<path d="M200.3593 193.6583
L200.3593 192.1583
" />
<path d="M200.3593 192.1583
L200.7165 192.1583
" />
<path d="M200.7165 192.1583
L200.9308 192.2297
" />
<path d="M200.9308 192.2297
L201.0736 192.3726
" />
<path d="M201.0736 192.3726
L201.1451 192.5154
" />
<path d="M201.1451 192.5154
L201.2165 192.8011
" />
<path d="M201.2165 192.8011
L201.2165 193.0154
" />
<path d="M201.2165 193.0154
L201.1451 193.3011
" />
<path d="M201.1451 193.3011
L201.0736 193.4440
" />
<path d="M201.0736 193.4440
L200.9308 193.5868
" />
<path d="M200.9308 193.5868
L200.7165 193.6583
" />
<path d="M200.7165 193.6583
L200.3593 193.6583
" />
<path d="M202.5022 193.6583
L202.5022 192.8726
" />
<path d="M202.5022 192.8726
L202.4308 192.7297
" />
<path d="M202.4308 192.7297
L202.2879 192.6583
" />
<path d="M202.2879 192.6583
L202.0022 192.6583
" />
<path d="M202.0022 192.6583
L201.8593 192.7297
" />
<path d="M202.5022 193.5868
L202.3593 193.6583
" />
<path d="M202.3593 193.6583
L202.0022 193.6583
" />
<path d="M202.0022 193.6583
L201.8593 193.5868
" />
<path d="M201.8593 193.5868
L201.7879 193.4440
" />
<path d="M201.7879 193.4440
L201.7879 193.3011
" />
<path d="M201.7879 193.3011
L201.8593 193.1583
" />
<path d="M201.8593 193.1583
L202.0022 193.0868
" />
<path d="M202.0022 193.0868
L202.3593 193.0868
" />
<path d="M202.3593 193.0868
L202.5022 193.0154
" />
<path d="M203.0022 192.6583
L203.5736 192.6583
" />
<path d="M203.2165 192.1583
L203.2165 193.4440
" />
<path d="M203.2165 193.4440
L203.2879 193.5868
" />
<path d="M203.2879 193.5868
L203.4308 193.6583
" />
<path d="M203.4308 193.6583
L203.5736 193.6583
" />
<path d="M204.6451 193.5868
L204.5022 193.6583
" />
<path d="M204.5022 193.6583
L204.2165 193.6583
" />
<path d="M204.2165 193.6583
L204.0736 193.5868
" />
<path d="M204.0736 193.5868
L204.0022 193.4440
" />
<path d="M204.0022 193.4440
L204.0022 192.8726
" />
<path d="M204.0022 192.8726
L204.0736 192.7297
" />
<path d="M204.0736 192.7297
L204.2165 192.6583
" />
<path d="M204.2165 192.6583
L204.5022 192.6583
" />
<path d="M204.5022 192.6583
L204.6451 192.7297
" />
<path d="M204.6451 192.7297
L204.7165 192.8726
" />
<path d="M204.7165 192.8726
L204.7165 193.0154
" />
<path d="M204.7165 193.0154
L204.0022 193.1583
" />
<path d="M205.3593 193.5154
L205.4308 193.5868
" />
<path d="M205.4308 193.5868
L205.3593 193.6583
" />
<path d="M205.3593 193.6583
L205.2879 193.5868
" />
<path d="M205.2879 193.5868
L205.3593 193.5154
" />
<path d="M205.3593 193.5154
L205.3593 193.6583
" />
<path d="M205.3593 192.7297
L205.4308 192.8011
" />
<path d="M205.4308 192.8011
L205.3593 192.8726
" />
<path d="M205.3593 192.8726
L205.2879 192.8011
" />
<path d="M205.2879 192.8011
L205.3593 192.7297
" />
<path d="M205.3593 192.7297
L205.3593 192.8726
" />
</g></g>
<g style="fill:#000000; fill-opacity:0.0; 
stroke:#000000; stroke-width:0.0212; stroke-opacity:1; 
stroke-linecap:round; stroke-linejoin:round;">
</g>
<g style="fill:#000000; fill-opacity:0.0; 
stroke:#000000; stroke-width:0.1500; stroke-opacity:1; 
stroke-linecap:round; stroke-linejoin:round;">
<path d="M177.0022 194.5072
L285.0022 194.5072
" />
</g>
<g style="fill:#000000; fill-opacity:0.0; 
stroke:#000000; stroke-width:0.0212; stroke-opacity:1; 
stroke-linecap:round; stroke-linejoin:round;">
</g>
<g style="fill:#000000; fill-opacity:0.0; 
stroke:#000000; stroke-width:0.1500; stroke-opacity:1; 
stroke-linecap:round; stroke-linejoin:round;">
<text x="178.0022" y="196.6572"
textLength="32.3179" font-size="2.0000" lengthAdjust="spacingAndGlyphs"
text-anchor="start" opacity="0">KiCad E.D.A.  pcbnew (7.0.0)</text>
<g class="stroked-text"><desc>KiCad E.D.A.  pcbnew (7.0.0)</desc>
<path d="M178.3593 196.4583
L178.3593 194.9583
" />
<path d="M179.2165 196.4583
L178.5736 195.6011
" />
<path d="M179.2165 194.9583
L178.3593 195.8154
" />
<path d="M179.8593 196.4583
L179.8593 195.4583
" />
<path d="M179.8593 194.9583
L179.7879 195.0297
" />
<path d="M179.7879 195.0297
L179.8593 195.1011
" />
<path d="M179.8593 195.1011
L179.9308 195.0297
" />
<path d="M179.9308 195.0297
L179.8593 194.9583
" />
<path d="M179.8593 194.9583
L179.8593 195.1011
" />
<path d="M181.4308 196.3154
L181.3593 196.3868
" />
<path d="M181.3593 196.3868
L181.1451 196.4583
" />
<path d="M181.1451 196.4583
L181.0022 196.4583
" />
<path d="M181.0022 196.4583
L180.7879 196.3868
" />
<path d="M180.7879 196.3868
L180.6451 196.2440
" />
<path d="M180.6451 196.2440
L180.5736 196.1011
" />
<path d="M180.5736 196.1011
L180.5022 195.8154
" />
<path d="M180.5022 195.8154
L180.5022 195.6011
" />
<path d="M180.5022 195.6011
L180.5736 195.3154
" />
<path d="M180.5736 195.3154
L180.6451 195.1726
" />
<path d="M180.6451 195.1726
L180.7879 195.0297
" />
<path d="M180.7879 195.0297
L181.0022 194.9583
" />
<path d="M181.0022 194.9583
L181.1451 194.9583
" />
<path d="M181.1451 194.9583
L181.3593 195.0297
" />
<path d="M181.3593 195.0297
L181.4308 195.1011
" />
<path d="M182.7165 196.4583
L182.7165 195.6726
" />
<path d="M182.7165 195.6726
L182.6451 195.5297
" />
<path d="M182.6451 195.5297
L182.5022 195.4583
" />
<path d="M182.5022 195.4583
L182.2165 195.4583
" />
<path d="M182.2165 195.4583
L182.0736 195.5297
" />
<path d="M182.7165 196.3868
L182.5736 196.4583
" />
<path d="M182.5736 196.4583
L182.2165 196.4583
" />
<path d="M182.2165 196.4583
L182.0736 196.3868
" />
<path d="M182.0736 196.3868
L182.0022 196.2440
" />
<path d="M182.0022 196.2440
L182.0022 196.1011
" />
<path d="M182.0022 196.1011
L182.0736 195.9583
" />
<path d="M182.0736 195.9583
L182.2165 195.8868
" />
<path d="M182.2165 195.8868
L182.5736 195.8868
" />
<path d="M182.5736 195.8868
L182.7165 195.8154
" />
<path d="M184.0736 196.4583
L184.0736 194.9583
" />
<path d="M184.0736 196.3868
L183.9308 196.4583
" />
<path d="M183.9308 196.4583
L183.6451 196.4583
" />
<path d="M183.6451 196.4583
L183.5022 196.3868
" />
<path d="M183.5022 196.3868
L183.4308 196.3154
" />
<path d="M183.4308 196.3154
L183.3593 196.1726
" />
<path d="M183.3593 196.1726
L183.3593 195.7440
" />
<path d="M183.3593 195.7440
L183.4308 195.6011
" />
<path d="M183.4308 195.6011
L183.5022 195.5297
" />
<path d="M183.5022 195.5297
L183.6451 195.4583
" />
<path d="M183.6451 195.4583
L183.9308 195.4583
" />
<path d="M183.9308 195.4583
L184.0736 195.5297
" />
<path d="M185.6879 195.6726
L186.1879 195.6726
" />
<path d="M186.4022 196.4583
L185.6879 196.4583
" />
<path d="M185.6879 196.4583
L185.6879 194.9583
" />
<path d="M185.6879 194.9583
L186.4022 194.9583
" />
<path d="M187.0451 196.3154
L187.1165 196.3868
" />
<path d="M187.1165 196.3868
L187.0451 196.4583
" />
<path d="M187.0451 196.4583
L186.9736 196.3868
" />
<path d="M186.9736 196.3868
L187.0451 196.3154
" />
<path d="M187.0451 196.3154
L187.0451 196.4583
" />
<path d="M187.7593 196.4583
L187.7593 194.9583
" />
<path d="M187.7593 194.9583
L188.1165 194.9583
" />
<path d="M188.1165 194.9583
L188.3308 195.0297
" />
<path d="M188.3308 195.0297
L188.4736 195.1726
" />
<path d="M188.4736 195.1726
L188.5451 195.3154
" />
<path d="M188.5451 195.3154
L188.6165 195.6011
" />
<path d="M188.6165 195.6011
L188.6165 195.8154
" />
<path d="M188.6165 195.8154
L188.5451 196.1011
" />
<path d="M188.5451 196.1011
L188.4736 196.2440
" />
<path d="M188.4736 196.2440
L188.3308 196.3868
" />
<path d="M188.3308 196.3868
L188.1165 196.4583
" />
<path d="M188.1165 196.4583
L187.7593 196.4583
" />
<path d="M189.2593 196.3154
L189.3308 196.3868
" />
<path d="M189.3308 196.3868
L189.2593 196.4583
" />
<path d="M189.2593 196.4583
L189.1879 196.3868
" />
<path d="M189.1879 196.3868
L189.2593 196.3154
" />
<path d="M189.2593 196.3154
L189.2593 196.4583
" />
<path d="M189.9022 196.0297
L190.6165 196.0297
" />
<path d="M189.7593 196.4583
L190.2593 194.9583
" />
<path d="M190.2593 194.9583
L190.7593 196.4583
" />
<path d="M191.2593 196.3154
L191.3308 196.3868
" />
<path d="M191.3308 196.3868
L191.2593 196.4583
" />
<path d="M191.2593 196.4583
L191.1879 196.3868
" />
<path d="M191.1879 196.3868
L191.2593 196.3154
" />
<path d="M191.2593 196.3154
L191.2593 196.4583
" />
<path d="M193.7736 195.4583
L193.7736 196.9583
" />
<path d="M193.7736 195.5297
L193.9165 195.4583
" />
<path d="M193.9165 195.4583
L194.2022 195.4583
" />
<path d="M194.2022 195.4583
L194.3451 195.5297
" />
<path d="M194.3451 195.5297
L194.4165 195.6011
" />
<path d="M194.4165 195.6011
L194.4879 195.7440
" />
<path d="M194.4879 195.7440
L194.4879 196.1726
" />
<path d="M194.4879 196.1726
L194.4165 196.3154
" />
<path d="M194.4165 196.3154
L194.3451 196.3868
" />
<path d="M194.3451 196.3868
L194.2022 196.4583
" />
<path d="M194.2022 196.4583
L193.9165 196.4583
" />
<path d="M193.9165 196.4583
L193.7736 196.3868
" />
<path d="M195.7736 196.3868
L195.6308 196.4583
" />
<path d="M195.6308 196.4583
L195.3451 196.4583
" />
<path d="M195.3451 196.4583
L195.2022 196.3868
" />
<path d="M195.2022 196.3868
L195.1308 196.3154
" />
<path d="M195.1308 196.3154
L195.0593 196.1726
" />
<path d="M195.0593 196.1726
L195.0593 195.7440
" />
<path d="M195.0593 195.7440
L195.1308 195.6011
" />
<path d="M195.1308 195.6011
L195.2022 195.5297
" />
<path d="M195.2022 195.5297
L195.3451 195.4583
" />
<path d="M195.3451 195.4583
L195.6308 195.4583
" />
<path d="M195.6308 195.4583
L195.7736 195.5297
" />
<path d="M196.4165 196.4583
L196.4165 194.9583
" />
<path d="M196.4165 195.5297
L196.5593 195.4583
" />
<path d="M196.5593 195.4583
L196.8451 195.4583
" />
<path d="M196.8451 195.4583
L196.9879 195.5297
" />
<path d="M196.9879 195.5297
L197.0593 195.6011
" />
<path d="M197.0593 195.6011
L197.1308 195.7440
" />
<path d="M197.1308 195.7440
L197.1308 196.1726
" />
<path d="M197.1308 196.1726
L197.0593 196.3154
" />
<path d="M197.0593 196.3154
L196.9879 196.3868
" />
<path d="M196.9879 196.3868
L196.8451 196.4583
" />
<path d="M196.8451 196.4583
L196.5593 196.4583
" />
<path d="M196.5593 196.4583
L196.4165 196.3868
" />
<path d="M197.7736 195.4583
L197.7736 196.4583
" />
<path d="M197.7736 195.6011
L197.8451 195.5297
" />
<path d="M197.8451 195.5297
L197.9879 195.4583
" />
<path d="M197.9879 195.4583
L198.2022 195.4583
" />
<path d="M198.2022 195.4583
L198.3451 195.5297
" />
<path d="M198.3451 195.5297
L198.4165 195.6726
" />
<path d="M198.4165 195.6726
L198.4165 196.4583
" />
<path d="M199.7022 196.3868
L199.5593 196.4583
" />
<path d="M199.5593 196.4583
L199.2736 196.4583
" />
<path d="M199.2736 196.4583
L199.1308 196.3868
" />
<path d="M199.1308 196.3868
L199.0593 196.2440
" />
<path d="M199.0593 196.2440
L199.0593 195.6726
" />
<path d="M199.0593 195.6726
L199.1308 195.5297
" />
<path d="M199.1308 195.5297
L199.2736 195.4583
" />
<path d="M199.2736 195.4583
L199.5593 195.4583
" />
<path d="M199.5593 195.4583
L199.7022 195.5297
" />
<path d="M199.7022 195.5297
L199.7736 195.6726
" />
<path d="M199.7736 195.6726
L199.7736 195.8154
" />
<path d="M199.7736 195.8154
L199.0593 195.9583
" />
<path d="M200.2736 195.4583
L200.5593 196.4583
" />
<path d="M200.5593 196.4583
L200.8451 195.7440
" />
<path d="M200.8451 195.7440
L201.1308 196.4583
" />
<path d="M201.1308 196.4583
L201.4165 195.4583
" />
<path d="M203.3165 197.0297
L203.2451 196.9583
" />
<path d="M203.2451 196.9583
L203.1022 196.7440
" />
<path d="M203.1022 196.7440
L203.0308 196.6011
" />
<path d="M203.0308 196.6011
L202.9593 196.3868
" />
<path d="M202.9593 196.3868
L202.8879 196.0297
" />
<path d="M202.8879 196.0297
L202.8879 195.7440
" />
<path d="M202.8879 195.7440
L202.9593 195.3868
" />
<path d="M202.9593 195.3868
L203.0308 195.1726
" />
<path d="M203.0308 195.1726
L203.1022 195.0297
" />
<path d="M203.1022 195.0297
L203.2451 194.8154
" />
<path d="M203.2451 194.8154
L203.3165 194.7440
" />
<path d="M203.7451 194.9583
L204.7451 194.9583
" />
<path d="M204.7451 194.9583
L204.1022 196.4583
" />
<path d="M205.3165 196.3154
L205.3879 196.3868
" />
<path d="M205.3879 196.3868
L205.3165 196.4583
" />
<path d="M205.3165 196.4583
L205.2451 196.3868
" />
<path d="M205.2451 196.3868
L205.3165 196.3154
" />
<path d="M205.3165 196.3154
L205.3165 196.4583
" />
<path d="M206.3165 194.9583
L206.4593 194.9583
" />
<path d="M206.4593 194.9583
L206.6022 195.0297
" />
<path d="M206.6022 195.0297
L206.6736 195.1011
" />
<path d="M206.6736 195.1011
L206.7451 195.2440
" />
<path d="M206.7451 195.2440
L206.8165 195.5297
" />
<path d="M206.8165 195.5297
L206.8165 195.8868
" />
<path d="M206.8165 195.8868
L206.7451 196.1726
" />
<path d="M206.7451 196.1726
L206.6736 196.3154
" />
<path d="M206.6736 196.3154
L206.6022 196.3868
" />
<path d="M206.6022 196.3868
L206.4593 196.4583
" />
<path d="M206.4593 196.4583
L206.3165 196.4583
" />
<path d="M206.3165 196.4583
L206.1736 196.3868
" />
<path d="M206.1736 196.3868
L206.1022 196.3154
" />
<path d="M206.1022 196.3154
L206.0308 196.1726
" />
<path d="M206.0308 196.1726
L205.9593 195.8868
" />
<path d="M205.9593 195.8868
L205.9593 195.5297
" />
<path d="M205.9593 195.5297
L206.0308 195.2440
" />
<path d="M206.0308 195.2440
L206.1022 195.1011
" />
<path d="M206.1022 195.1011
L206.1736 195.0297
" />
<path d="M206.1736 195.0297
L206.3165 194.9583
" />
<path d="M207.4593 196.3154
L207.5308 196.3868
" />
<path d="M207.5308 196.3868
L207.4593 196.4583
" />
<path d="M207.4593 196.4583
L207.3879 196.3868
" />
<path d="M207.3879 196.3868
L207.4593 196.3154
" />
<path d="M207.4593 196.3154
L207.4593 196.4583
" />
<path d="M208.4593 194.9583
L208.6022 194.9583
" />
<path d="M208.6022 194.9583
L208.7451 195.0297
" />
<path d="M208.7451 195.0297
L208.8165 195.1011
" />
<path d="M208.8165 195.1011
L208.8879 195.2440
" />
<path d="M208.8879 195.2440
L208.9593 195.5297
" />
<path d="M208.9593 195.5297
L208.9593 195.8868
" />
<path d="M208.9593 195.8868
L208.8879 196.1726
" />
<path d="M208.8879 196.1726
L208.8165 196.3154
" />
<path d="M208.8165 196.3154
L208.7451 196.3868
" />
<path d="M208.7451 196.3868
L208.6022 196.4583
" />
<path d="M208.6022 196.4583
L208.4593 196.4583
" />
<path d="M208.4593 196.4583
L208.3165 196.3868
" />
<path d="M208.3165 196.3868
L208.2451 196.3154
" />
<path d="M208.2451 196.3154
L208.1736 196.1726
" />
<path d="M208.1736 196.1726
L208.1022 195.8868
" />
<path d="M208.1022 195.8868
L208.1022 195.5297
" />
<path d="M208.1022 195.5297
L208.1736 195.2440
" />
<path d="M208.1736 195.2440
L208.2451 195.1011
" />
<path d="M208.2451 195.1011
L208.3165 195.0297
" />
<path d="M208.3165 195.0297
L208.4593 194.9583
" />
<path d="M209.4593 197.0297
L209.5308 196.9583
" />
<path d="M209.5308 196.9583
L209.6736 196.7440
" />
<path d="M209.6736 196.7440
L209.7451 196.6011
" />
<path d="M209.7451 196.6011
L209.8165 196.3868
" />
<path d="M209.8165 196.3868
L209.8879 196.0297
" />
<path d="M209.8879 196.0297
L209.8879 195.7440
" />
<path d="M209.8879 195.7440
L209.8165 195.3868
" />
<path d="M209.8165 195.3868
L209.7451 195.1726
" />
<path d="M209.7451 195.1726
L209.6736 195.0297
" />
<path d="M209.6736 195.0297
L209.5308 194.8154
" />
<path d="M209.5308 194.8154
L209.4593 194.7440
" />
</g></g>
<g style="fill:#000000; fill-opacity:0.0; 
stroke:#000000; stroke-width:0.0212; stroke-opacity:1; 
stroke-linecap:round; stroke-linejoin:round;">
</g>
<g style="fill:#000000; fill-opacity:0.0; 
stroke:#000000; stroke-width:0.1500; stroke-opacity:1; 
stroke-linecap:round; stroke-linejoin:round;">
<path d="M177.0022 191.5072
L285.0022 191.5072
" />
</g>
<g style="fill:#000000; fill-opacity:0.0; 
stroke:#000000; stroke-width:0.0212; stroke-opacity:1; 
stroke-linecap:round; stroke-linejoin:round;">
</g>
<g style="fill:#000000; fill-opacity:0.0; 
stroke:#000000; stroke-width:0.3000; stroke-opacity:1; 
stroke-linecap:round; stroke-linejoin:round;">
<text x="263.0022" y="193.8572"
textLength="5.9929" font-size="2.0000" lengthAdjust="spacingAndGlyphs"
text-anchor="start" opacity="0">Rev: </text>
<g class="stroked-text"><desc>Rev: </desc>
<path d="M264.2165 193.6583
L263.7165 192.9440
" />
<path d="M263.3593 193.6583
L263.3593 192.1583
" />
<path d="M263.3593 192.1583
L263.9308 192.1583
" />
<path d="M263.9308 192.1583
L264.0736 192.2297
" />
<path d="M264.0736 192.2297
L264.1451 192.3011
" />
<path d="M264.1451 192.3011
L264.2165 192.4440
" />
<path d="M264.2165 192.4440
L264.2165 192.6583
" />
<path d="M264.2165 192.6583
L264.1451 192.8011
" />
<path d="M264.1451 192.8011
L264.0736 192.8726
" />
<path d="M264.0736 192.8726
L263.9308 192.9440
" />
<path d="M263.9308 192.9440
L263.3593 192.9440
" />
<path d="M265.4308 193.5868
L265.2879 193.6583
" />
<path d="M265.2879 193.6583
L265.0022 193.6583
" />
<path d="M265.0022 193.6583
L264.8593 193.5868
" />
<path d="M264.8593 193.5868
L264.7879 193.4440
" />
<path d="M264.7879 193.4440
L264.7879 192.8726
" />
<path d="M264.7879 192.8726
L264.8593 192.7297
" />
<path d="M264.8593 192.7297
L265.0022 192.6583
" />
<path d="M265.0022 192.6583
L265.2879 192.6583
" />
<path d="M265.2879 192.6583
L265.4308 192.7297
" />
<path d="M265.4308 192.7297
L265.5022 192.8726
" />
<path d="M265.5022 192.8726
L265.5022 193.0154
" />
<path d="M265.5022 193.0154
L264.7879 193.1583
" />
<path d="M266.0022 192.6583
L266.3593 193.6583
" />
<path d="M266.3593 193.6583
L266.7165 192.6583
" />
<path d="M267.2879 193.5154
L267.3593 193.5868
" />
<path d="M267.3593 193.5868
L267.2879 193.6583
" />
<path d="M267.2879 193.6583
L267.2165 193.5868
" />
<path d="M267.2165 193.5868
L267.2879 193.5154
" />
<path d="M267.2879 193.5154
L267.2879 193.6583
" />
<path d="M267.2879 192.7297
L267.3593 192.8011
" />
<path d="M267.3593 192.8011
L267.2879 192.8726
" />
<path d="M267.2879 192.8726
L267.2165 192.8011
" />
<path d="M267.2165 192.8011
L267.2879 192.7297
" />
<path d="M267.2879 192.7297
L267.2879 192.8726
" />
</g></g>
<g style="fill:#000000; fill-opacity:0.0; 
stroke:#000000; stroke-width:0.0212; stroke-opacity:1; 
stroke-linecap:round; stroke-linejoin:round;">
</g>
<g style="fill:#000000; fill-opacity:0.0; 
stroke:#000000; stroke-width:0.1500; stroke-opacity:1; 
stroke-linecap:round; stroke-linejoin:round;">
<text x="178.0022" y="193.8572"
textLength="9.0464" font-size="2.0000" lengthAdjust="spacingAndGlyphs"
text-anchor="start" opacity="0">Size: A4</text>
<g class="stroked-text"><desc>Size: A4</desc>
<path d="M178.2879 193.5868
L178.5022 193.6583
" />
<path d="M178.5022 193.6583
L178.8593 193.6583
" />
<path d="M178.8593 193.6583
L179.0022 193.5868
" />
<path d="M179.0022 193.5868
L179.0736 193.5154
" />
<path d="M179.0736 193.5154
L179.1451 193.3726
" />
<path d="M179.1451 193.3726
L179.1451 193.2297
" />
<path d="M179.1451 193.2297
L179.0736 193.0868
" />
<path d="M179.0736 193.0868
L179.0022 193.0154
" />
<path d="M179.0022 193.0154
L178.8593 192.9440
" />
<path d="M178.8593 192.9440
L178.5736 192.8726
" />
<path d="M178.5736 192.8726
L178.4308 192.8011
" />
<path d="M178.4308 192.8011
L178.3593 192.7297
" />
<path d="M178.3593 192.7297
L178.2879 192.5868
" />
<path d="M178.2879 192.5868
L178.2879 192.4440
" />
<path d="M178.2879 192.4440
L178.3593 192.3011
" />
<path d="M178.3593 192.3011
L178.4308 192.2297
" />
<path d="M178.4308 192.2297
L178.5736 192.1583
" />
<path d="M178.5736 192.1583
L178.9308 192.1583
" />
<path d="M178.9308 192.1583
L179.1451 192.2297
" />
<path d="M179.7879 193.6583
L179.7879 192.6583
" />
<path d="M179.7879 192.1583
L179.7165 192.2297
" />
<path d="M179.7165 192.2297
L179.7879 192.3011
" />
<path d="M179.7879 192.3011
L179.8593 192.2297
" />
<path d="M179.8593 192.2297
L179.7879 192.1583
" />
<path d="M179.7879 192.1583
L179.7879 192.3011
" />
<path d="M180.3593 192.6583
L181.1451 192.6583
" />
<path d="M181.1451 192.6583
L180.3593 193.6583
" />
<path d="M180.3593 193.6583
L181.1451 193.6583
" />
<path d="M182.2879 193.5868
L182.1451 193.6583
" />
<path d="M182.1451 193.6583
L181.8593 193.6583
" />
<path d="M181.8593 193.6583
L181.7165 193.5868
" />
<path d="M181.7165 193.5868
L181.6451 193.4440
" />
<path d="M181.6451 193.4440
L181.6451 192.8726
" />
<path d="M181.6451 192.8726
L181.7165 192.7297
" />
<path d="M181.7165 192.7297
L181.8593 192.6583
" />
<path d="M181.8593 192.6583
L182.1451 192.6583
" />
<path d="M182.1451 192.6583
L182.2879 192.7297
" />
<path d="M182.2879 192.7297
L182.3593 192.8726
" />
<path d="M182.3593 192.8726
L182.3593 193.0154
" />
<path d="M182.3593 193.0154
L181.6451 193.1583
" />
<path d="M183.0022 193.5154
L183.0736 193.5868
" />
<path d="M183.0736 193.5868
L183.0022 193.6583
" />
<path d="M183.0022 193.6583
L182.9308 193.5868
" />
<path d="M182.9308 193.5868
L183.0022 193.5154
" />
<path d="M183.0022 193.5154
L183.0022 193.6583
" />
<path d="M183.0022 192.7297
L183.0736 192.8011
" />
<path d="M183.0736 192.8011
L183.0022 192.8726
" />
<path d="M183.0022 192.8726
L182.9308 192.8011
" />
<path d="M182.9308 192.8011
L183.0022 192.7297
" />
<path d="M183.0022 192.7297
L183.0022 192.8726
" />
<path d="M184.5451 193.2297
L185.2593 193.2297
" />
<path d="M184.4022 193.6583
L184.9022 192.1583
" />
<path d="M184.9022 192.1583
L185.4022 193.6583
" />
<path d="M186.5451 192.6583
L186.5451 193.6583
" />
<path d="M186.1879 192.0868
L185.8308 193.1583
" />
<path d="M185.8308 193.1583
L186.7593 193.1583
" />
</g></g>
<g style="fill:#000000; fill-opacity:0.0; 
stroke:#000000; stroke-width:0.0212; stroke-opacity:1; 
stroke-linecap:round; stroke-linejoin:round;">
</g>
<g style="fill:#000000; fill-opacity:0.0; 
stroke:#000000; stroke-width:0.1500; stroke-opacity:1; 
stroke-linecap:round; stroke-linejoin:round;">
<text x="263.0022" y="196.6572"
textLength="8.1893" font-size="2.0000" lengthAdjust="spacingAndGlyphs"
text-anchor="start" opacity="0">Id: 1/1</text>
<g class="stroked-text"><desc>Id: 1/1</desc>
<path d="M263.3593 196.4583
L263.3593 194.9583
" />
<path d="M264.7165 196.4583
L264.7165 194.9583
" />
<path d="M264.7165 196.3868
L264.5736 196.4583
" />
<path d="M264.5736 196.4583
L264.2879 196.4583
" />
<path d="M264.2879 196.4583
L264.1451 196.3868
" />
<path d="M264.1451 196.3868
L264.0736 196.3154
" />
<path d="M264.0736 196.3154
L264.0022 196.1726
" />
<path d="M264.0022 196.1726
L264.0022 195.7440
" />
<path d="M264.0022 195.7440
L264.0736 195.6011
" />
<path d="M264.0736 195.6011
L264.1451 195.5297
" />
<path d="M264.1451 195.5297
L264.2879 195.4583
" />
<path d="M264.2879 195.4583
L264.5736 195.4583
" />
<path d="M264.5736 195.4583
L264.7165 195.5297
" />
<path d="M265.4308 196.3154
L265.5022 196.3868
" />
<path d="M265.5022 196.3868
L265.4308 196.4583
" />
<path d="M265.4308 196.4583
L265.3593 196.3868
" />
<path d="M265.3593 196.3868
L265.4308 196.3154
" />
<path d="M265.4308 196.3154
L265.4308 196.4583
" />
<path d="M265.4308 195.5297
L265.5022 195.6011
" />
<path d="M265.5022 195.6011
L265.4308 195.6726
" />
<path d="M265.4308 195.6726
L265.3593 195.6011
" />
<path d="M265.3593 195.6011
L265.4308 195.5297
" />
<path d="M265.4308 195.5297
L265.4308 195.6726
" />
<path d="M267.8308 196.4583
L266.9736 196.4583
" />
<path d="M267.4022 196.4583
L267.4022 194.9583
" />
<path d="M267.4022 194.9583
L267.2593 195.1726
" />
<path d="M267.2593 195.1726
L267.1165 195.3154
" />
<path d="M267.1165 195.3154
L266.9736 195.3868
" />
<path d="M269.5451 194.8868
L268.2593 196.8154
" />
<path d="M270.8308 196.4583
L269.9736 196.4583
" />
<path d="M270.4022 196.4583
L270.4022 194.9583
" />
<path d="M270.4022 194.9583
L270.2593 195.1726
" />
<path d="M270.2593 195.1726
L270.1165 195.3154
" />
<path d="M270.1165 195.3154
L269.9736 195.3868
" />
</g></g>
<g style="fill:#000000; fill-opacity:0.0; 
stroke:#000000; stroke-width:0.0212; stroke-opacity:1; 
stroke-linecap:round; stroke-linejoin:round;">
</g>
<g style="fill:#000000; fill-opacity:0.0; 
stroke:#000000; stroke-width:0.1500; stroke-opacity:1; 
stroke-linecap:round; stroke-linejoin:round;">
<path d="M177.0022 187.5072
L285.0022 187.5072
" />
</g>
<g style="fill:#000000; fill-opacity:0.0; 
stroke:#000000; stroke-width:0.0212; stroke-opacity:1; 
stroke-linecap:round; stroke-linejoin:round;">
</g>
<g style="fill:#000000; fill-opacity:0.0; 
stroke:#000000; stroke-width:0.4000; stroke-opacity:1; 
stroke-linecap:round; stroke-linejoin:round;">
<text x="178.0022" y="190.3072"
textLength="9.1333" font-size="2.6667" lengthAdjust="spacingAndGlyphs"
text-anchor="start" opacity="0">Title: </text>
<g class="stroked-text"><desc>Title: </desc>
<path d="M178.4546 188.0420
L179.5974 188.0420
" />
<path d="M178.7760 190.0420
L179.0260 188.0420
" />
<path d="M180.0141 190.0420
L180.1808 188.7086
" />
<path d="M180.2641 188.0420
L180.1570 188.1372
" />
<path d="M180.1570 188.1372
L180.2403 188.2324
" />
<path d="M180.2403 188.2324
L180.3474 188.1372
" />
<path d="M180.3474 188.1372
L180.2641 188.0420
" />
<path d="M180.2641 188.0420
L180.2403 188.2324
" />
<path d="M180.8474 188.7086
L181.6093 188.7086
" />
<path d="M181.2165 188.0420
L181.0022 189.7562
" />
<path d="M181.0022 189.7562
L181.0736 189.9467
" />
<path d="M181.0736 189.9467
L181.2522 190.0420
" />
<path d="M181.2522 190.0420
L181.4427 190.0420
" />
<path d="M182.3951 190.0420
L182.2165 189.9467
" />
<path d="M182.2165 189.9467
L182.1451 189.7562
" />
<path d="M182.1451 189.7562
L182.3593 188.0420
" />
<path d="M183.9308 189.9467
L183.7284 190.0420
" />
<path d="M183.7284 190.0420
L183.3474 190.0420
" />
<path d="M183.3474 190.0420
L183.1689 189.9467
" />
<path d="M183.1689 189.9467
L183.0974 189.7562
" />
<path d="M183.0974 189.7562
L183.1927 188.9943
" />
<path d="M183.1927 188.9943
L183.3117 188.8039
" />
<path d="M183.3117 188.8039
L183.5141 188.7086
" />
<path d="M183.5141 188.7086
L183.8951 188.7086
" />
<path d="M183.8951 188.7086
L184.0736 188.8039
" />
<path d="M184.0736 188.8039
L184.1451 188.9943
" />
<path d="M184.1451 188.9943
L184.1212 189.1848
" />
<path d="M184.1212 189.1848
L183.1451 189.3753
" />
<path d="M184.8951 189.8515
L184.9784 189.9467
" />
<path d="M184.9784 189.9467
L184.8712 190.0420
" />
<path d="M184.8712 190.0420
L184.7879 189.9467
" />
<path d="M184.7879 189.9467
L184.8951 189.8515
" />
<path d="M184.8951 189.8515
L184.8712 190.0420
" />
<path d="M185.0260 188.8039
L185.1093 188.8991
" />
<path d="M185.1093 188.8991
L185.0022 188.9943
" />
<path d="M185.0022 188.9943
L184.9189 188.8991
" />
<path d="M184.9189 188.8991
L185.0260 188.8039
" />
<path d="M185.0260 188.8039
L185.0022 188.9943
" />
</g></g>
<g style="fill:#000000; fill-opacity:0.0; 
stroke:#000000; stroke-width:0.0212; stroke-opacity:1; 
stroke-linecap:round; stroke-linejoin:round;">
</g>
<g style="fill:#000000; fill-opacity:0.0; 
stroke:#000000; stroke-width:0.1500; stroke-opacity:1; 
stroke-linecap:round; stroke-linejoin:round;">
<text x="178.0022" y="186.4572"
textLength="27.0464" font-size="2.0000" lengthAdjust="spacingAndGlyphs"
text-anchor="start" opacity="0">File: TKL_PCB.kicad_pcb</text>
<g class="stroked-text"><desc>File: TKL_PCB.kicad_pcb</desc>
<path d="M178.8593 185.4726
L178.3593 185.4726
" />
<path d="M178.3593 186.2583
L178.3593 184.7583
" />
<path d="M178.3593 184.7583
L179.0736 184.7583
" />
<path d="M179.6451 186.2583
L179.6451 185.2583
" />
<path d="M179.6451 184.7583
L179.5736 184.8297
" />
<path d="M179.5736 184.8297
L179.6451 184.9011
" />
<path d="M179.6451 184.9011
L179.7165 184.8297
" />
<path d="M179.7165 184.8297
L179.6451 184.7583
" />
<path d="M179.6451 184.7583
L179.6451 184.9011
" />
<path d="M180.5736 186.2583
L180.4308 186.1868
" />
<path d="M180.4308 186.1868
L180.3593 186.0440
" />
<path d="M180.3593 186.0440
L180.3593 184.7583
" />
<path d="M181.7165 186.1868
L181.5736 186.2583
" />
<path d="M181.5736 186.2583
L181.2879 186.2583
" />
<path d="M181.2879 186.2583
L181.1451 186.1868
" />
<path d="M181.1451 186.1868
L181.0736 186.0440
" />
<path d="M181.0736 186.0440
L181.0736 185.4726
" />
<path d="M181.0736 185.4726
L181.1451 185.3297
" />
<path d="M181.1451 185.3297
L181.2879 185.2583
" />
<path d="M181.2879 185.2583
L181.5736 185.2583
" />
<path d="M181.5736 185.2583
L181.7165 185.3297
" />
<path d="M181.7165 185.3297
L181.7879 185.4726
" />
<path d="M181.7879 185.4726
L181.7879 185.6154
" />
<path d="M181.7879 185.6154
L181.0736 185.7583
" />
<path d="M182.4308 186.1154
L182.5022 186.1868
" />
<path d="M182.5022 186.1868
L182.4308 186.2583
" />
<path d="M182.4308 186.2583
L182.3593 186.1868
" />
<path d="M182.3593 186.1868
L182.4308 186.1154
" />
<path d="M182.4308 186.1154
L182.4308 186.2583
" />
<path d="M182.4308 185.3297
L182.5022 185.4011
" />
<path d="M182.5022 185.4011
L182.4308 185.4726
" />
<path d="M182.4308 185.4726
L182.3593 185.4011
" />
<path d="M182.3593 185.4011
L182.4308 185.3297
" />
<path d="M182.4308 185.3297
L182.4308 185.4726
" />
<path d="M183.8308 184.7583
L184.6879 184.7583
" />
<path d="M184.2593 186.2583
L184.2593 184.7583
" />
<path d="M185.1879 186.2583
L185.1879 184.7583
" />
<path d="M186.0451 186.2583
L185.4022 185.4011
" />
<path d="M186.0451 184.7583
L185.1879 185.6154
" />
<path d="M187.4022 186.2583
L186.6879 186.2583
" />
<path d="M186.6879 186.2583
L186.6879 184.7583
" />
<path d="M187.5451 186.4011
L188.6879 186.4011
" />
<path d="M189.0451 186.2583
L189.0451 184.7583
" />
<path d="M189.0451 184.7583
L189.6165 184.7583
" />
<path d="M189.6165 184.7583
L189.7593 184.8297
" />
<path d="M189.7593 184.8297
L189.8308 184.9011
" />
<path d="M189.8308 184.9011
L189.9022 185.0440
" />
<path d="M189.9022 185.0440
L189.9022 185.2583
" />
<path d="M189.9022 185.2583
L189.8308 185.4011
" />
<path d="M189.8308 185.4011
L189.7593 185.4726
" />
<path d="M189.7593 185.4726
L189.6165 185.5440
" />
<path d="M189.6165 185.5440
L189.0451 185.5440
" />
<path d="M191.4022 186.1154
L191.3308 186.1868
" />
<path d="M191.3308 186.1868
L191.1165 186.2583
" />
<path d="M191.1165 186.2583
L190.9736 186.2583
" />
<path d="M190.9736 186.2583
L190.7593 186.1868
" />
<path d="M190.7593 186.1868
L190.6165 186.0440
" />
<path d="M190.6165 186.0440
L190.5451 185.9011
" />
<path d="M190.5451 185.9011
L190.4736 185.6154
" />
<path d="M190.4736 185.6154
L190.4736 185.4011
" />
<path d="M190.4736 185.4011
L190.5451 185.1154
" />
<path d="M190.5451 185.1154
L190.6165 184.9726
" />
<path d="M190.6165 184.9726
L190.7593 184.8297
" />
<path d="M190.7593 184.8297
L190.9736 184.7583
" />
<path d="M190.9736 184.7583
L191.1165 184.7583
" />
<path d="M191.1165 184.7583
L191.3308 184.8297
" />
<path d="M191.3308 184.8297
L191.4022 184.9011
" />
<path d="M192.5451 185.4726
L192.7593 185.5440
" />
<path d="M192.7593 185.5440
L192.8308 185.6154
" />
<path d="M192.8308 185.6154
L192.9022 185.7583
" />
<path d="M192.9022 185.7583
L192.9022 185.9726
" />
<path d="M192.9022 185.9726
L192.8308 186.1154
" />
<path d="M192.8308 186.1154
L192.7593 186.1868
" />
<path d="M192.7593 186.1868
L192.6165 186.2583
" />
<path d="M192.6165 186.2583
L192.0451 186.2583
" />
<path d="M192.0451 186.2583
L192.0451 184.7583
" />
<path d="M192.0451 184.7583
L192.5451 184.7583
" />
<path d="M192.5451 184.7583
L192.6879 184.8297
" />
<path d="M192.6879 184.8297
L192.7593 184.9011
" />
<path d="M192.7593 184.9011
L192.8308 185.0440
" />
<path d="M192.8308 185.0440
L192.8308 185.1868
" />
<path d="M192.8308 185.1868
L192.7593 185.3297
" />
<path d="M192.7593 185.3297
L192.6879 185.4011
" />
<path d="M192.6879 185.4011
L192.5451 185.4726
" />
<path d="M192.5451 185.4726
L192.0451 185.4726
" />
<path d="M193.5451 186.1154
L193.6165 186.1868
" />
<path d="M193.6165 186.1868
L193.5451 186.2583
" />
<path d="M193.5451 186.2583
L193.4736 186.1868
" />
<path d="M193.4736 186.1868
L193.5451 186.1154
" />
<path d="M193.5451 186.1154
L193.5451 186.2583
" />
<path d="M194.2593 186.2583
L194.2593 184.7583
" />
<path d="M194.4022 185.6868
L194.8308 186.2583
" />
<path d="M194.8308 185.2583
L194.2593 185.8297
" />
<path d="M195.4736 186.2583
L195.4736 185.2583
" />
<path d="M195.4736 184.7583
L195.4022 184.8297
" />
<path d="M195.4022 184.8297
L195.4736 184.9011
" />
<path d="M195.4736 184.9011
L195.5451 184.8297
" />
<path d="M195.5451 184.8297
L195.4736 184.7583
" />
<path d="M195.4736 184.7583
L195.4736 184.9011
" />
<path d="M196.8308 186.1868
L196.6879 186.2583
" />
<path d="M196.6879 186.2583
L196.4022 186.2583
" />
<path d="M196.4022 186.2583
L196.2593 186.1868
" />
<path d="M196.2593 186.1868
L196.1879 186.1154
" />
<path d="M196.1879 186.1154
L196.1165 185.9726
" />
<path d="M196.1165 185.9726
L196.1165 185.5440
" />
<path d="M196.1165 185.5440
L196.1879 185.4011
" />
<path d="M196.1879 185.4011
L196.2593 185.3297
" />
<path d="M196.2593 185.3297
L196.4022 185.2583
" />
<path d="M196.4022 185.2583
L196.6879 185.2583
" />
<path d="M196.6879 185.2583
L196.8308 185.3297
" />
<path d="M198.1165 186.2583
L198.1165 185.4726
" />
<path d="M198.1165 185.4726
L198.0451 185.3297
" />
<path d="M198.0451 185.3297
L197.9022 185.2583
" />
<path d="M197.9022 185.2583
L197.6165 185.2583
" />
<path d="M197.6165 185.2583
L197.4736 185.3297
" />
<path d="M198.1165 186.1868
L197.9736 186.2583
" />
<path d="M197.9736 186.2583
L197.6165 186.2583
" />
<path d="M197.6165 186.2583
L197.4736 186.1868
" />
<path d="M197.4736 186.1868
L197.4022 186.0440
" />
<path d="M197.4022 186.0440
L197.4022 185.9011
" />
<path d="M197.4022 185.9011
L197.4736 185.7583
" />
<path d="M197.4736 185.7583
L197.6165 185.6868
" />
<path d="M197.6165 185.6868
L197.9736 185.6868
" />
<path d="M197.9736 185.6868
L198.1165 185.6154
" />
<path d="M199.4736 186.2583
L199.4736 184.7583
" />
<path d="M199.4736 186.1868
L199.3308 186.2583
" />
<path d="M199.3308 186.2583
L199.0451 186.2583
" />
<path d="M199.0451 186.2583
L198.9022 186.1868
" />
<path d="M198.9022 186.1868
L198.8308 186.1154
" />
<path d="M198.8308 186.1154
L198.7593 185.9726
" />
<path d="M198.7593 185.9726
L198.7593 185.5440
" />
<path d="M198.7593 185.5440
L198.8308 185.4011
" />
<path d="M198.8308 185.4011
L198.9022 185.3297
" />
<path d="M198.9022 185.3297
L199.0451 185.2583
" />
<path d="M199.0451 185.2583
L199.3308 185.2583
" />
<path d="M199.3308 185.2583
L199.4736 185.3297
" />
<path d="M199.8308 186.4011
L200.9736 186.4011
" />
<path d="M201.3308 185.2583
L201.3308 186.7583
" />
<path d="M201.3308 185.3297
L201.4736 185.2583
" />
<path d="M201.4736 185.2583
L201.7593 185.2583
" />
<path d="M201.7593 185.2583
L201.9022 185.3297
" />
<path d="M201.9022 185.3297
L201.9736 185.4011
" />
<path d="M201.9736 185.4011
L202.0451 185.5440
" />
<path d="M202.0451 185.5440
L202.0451 185.9726
" />
<path d="M202.0451 185.9726
L201.9736 186.1154
" />
<path d="M201.9736 186.1154
L201.9022 186.1868
" />
<path d="M201.9022 186.1868
L201.7593 186.2583
" />
<path d="M201.7593 186.2583
L201.4736 186.2583
" />
<path d="M201.4736 186.2583
L201.3308 186.1868
" />
<path d="M203.3308 186.1868
L203.1879 186.2583
" />
<path d="M203.1879 186.2583
L202.9022 186.2583
" />
<path d="M202.9022 186.2583
L202.7593 186.1868
" />
<path d="M202.7593 186.1868
L202.6879 186.1154
" />
<path d="M202.6879 186.1154
L202.6165 185.9726
" />
<path d="M202.6165 185.9726
L202.6165 185.5440
" />
<path d="M202.6165 185.5440
L202.6879 185.4011
" />
<path d="M202.6879 185.4011
L202.7593 185.3297
" />
<path d="M202.7593 185.3297
L202.9022 185.2583
" />
<path d="M202.9022 185.2583
L203.1879 185.2583
" />
<path d="M203.1879 185.2583
L203.3308 185.3297
" />
<path d="M203.9736 186.2583
L203.9736 184.7583
" />
<path d="M203.9736 185.3297
L204.1165 185.2583
" />
<path d="M204.1165 185.2583
L204.4022 185.2583
" />
<path d="M204.4022 185.2583
L204.5451 185.3297
" />
<path d="M204.5451 185.3297
L204.6165 185.4011
" />
<path d="M204.6165 185.4011
L204.6879 185.5440
" />
<path d="M204.6879 185.5440
L204.6879 185.9726
" />
<path d="M204.6879 185.9726
L204.6165 186.1154
" />
<path d="M204.6165 186.1154
L204.5451 186.1868
" />
<path d="M204.5451 186.1868
L204.4022 186.2583
" />
<path d="M204.4022 186.2583
L204.1165 186.2583
" />
<path d="M204.1165 186.2583
L203.9736 186.1868
" />
</g></g>
<g style="fill:#000000; fill-opacity:0.0; 
stroke:#000000; stroke-width:0.0212; stroke-opacity:1; 
stroke-linecap:round; stroke-linejoin:round;">
</g>
<g style="fill:#000000; fill-opacity:0.0; 
stroke:#000000; stroke-width:0.1500; stroke-opacity:1; 
stroke-linecap:round; stroke-linejoin:round;">
<path d="M177.0022 181.5072
L285.0022 181.5072
" />
</g>
<g style="fill:#000000; fill-opacity:0.0; 
stroke:#000000; stroke-width:0.0212; stroke-opacity:1; 
stroke-linecap:round; stroke-linejoin:round;">
</g>
<g style="fill:#000000; fill-opacity:0.0; 
stroke:#000000; stroke-width:0.1500; stroke-opacity:1; 
stroke-linecap:round; stroke-linejoin:round;">
<text x="178.0022" y="183.7572"
textLength="7.9036" font-size="2.0000" lengthAdjust="spacingAndGlyphs"
text-anchor="start" opacity="0">Sheet: </text>
<g class="stroked-text"><desc>Sheet: </desc>
<path d="M178.2879 183.4868
L178.5022 183.5583
" />
<path d="M178.5022 183.5583
L178.8593 183.5583
" />
<path d="M178.8593 183.5583
L179.0022 183.4868
" />
<path d="M179.0022 183.4868
L179.0736 183.4154
" />
<path d="M179.0736 183.4154
L179.1451 183.2726
" />
<path d="M179.1451 183.2726
L179.1451 183.1297
" />
<path d="M179.1451 183.1297
L179.0736 182.9868
" />
<path d="M179.0736 182.9868
L179.0022 182.9154
" />
<path d="M179.0022 182.9154
L178.8593 182.8440
" />
<path d="M178.8593 182.8440
L178.5736 182.7726
" />
<path d="M178.5736 182.7726
L178.4308 182.7011
" />
<path d="M178.4308 182.7011
L178.3593 182.6297
" />
<path d="M178.3593 182.6297
L178.2879 182.4868
" />
<path d="M178.2879 182.4868
L178.2879 182.3440
" />
<path d="M178.2879 182.3440
L178.3593 182.2011
" />
<path d="M178.3593 182.2011
L178.4308 182.1297
" />
<path d="M178.4308 182.1297
L178.5736 182.0583
" />
<path d="M178.5736 182.0583
L178.9308 182.0583
" />
<path d="M178.9308 182.0583
L179.1451 182.1297
" />
<path d="M179.7879 183.5583
L179.7879 182.0583
" />
<path d="M180.4308 183.5583
L180.4308 182.7726
" />
<path d="M180.4308 182.7726
L180.3593 182.6297
" />
<path d="M180.3593 182.6297
L180.2165 182.5583
" />
<path d="M180.2165 182.5583
L180.0022 182.5583
" />
<path d="M180.0022 182.5583
L179.8593 182.6297
" />
<path d="M179.8593 182.6297
L179.7879 182.7011
" />
<path d="M181.7165 183.4868
L181.5736 183.5583
" />
<path d="M181.5736 183.5583
L181.2879 183.5583
" />
<path d="M181.2879 183.5583
L181.1451 183.4868
" />
<path d="M181.1451 183.4868
L181.0736 183.3440
" />
<path d="M181.0736 183.3440
L181.0736 182.7726
" />
<path d="M181.0736 182.7726
L181.1451 182.6297
" />
<path d="M181.1451 182.6297
L181.2879 182.5583
" />
<path d="M181.2879 182.5583
L181.5736 182.5583
" />
<path d="M181.5736 182.5583
L181.7165 182.6297
" />
<path d="M181.7165 182.6297
L181.7879 182.7726
" />
<path d="M181.7879 182.7726
L181.7879 182.9154
" />
<path d="M181.7879 182.9154
L181.0736 183.0583
" />
<path d="M183.0022 183.4868
L182.8593 183.5583
" />
<path d="M182.8593 183.5583
L182.5736 183.5583
" />
<path d="M182.5736 183.5583
L182.4308 183.4868
" />
<path d="M182.4308 183.4868
L182.3593 183.3440
" />
<path d="M182.3593 183.3440
L182.3593 182.7726
" />
<path d="M182.3593 182.7726
L182.4308 182.6297
" />
<path d="M182.4308 182.6297
L182.5736 182.5583
" />
<path d="M182.5736 182.5583
L182.8593 182.5583
" />
<path d="M182.8593 182.5583
L183.0022 182.6297
" />
<path d="M183.0022 182.6297
L183.0736 182.7726
" />
<path d="M183.0736 182.7726
L183.0736 182.9154
" />
<path d="M183.0736 182.9154
L182.3593 183.0583
" />
<path d="M183.5022 182.5583
L184.0736 182.5583
" />
<path d="M183.7165 182.0583
L183.7165 183.3440
" />
<path d="M183.7165 183.3440
L183.7879 183.4868
" />
<path d="M183.7879 183.4868
L183.9308 183.5583
" />
<path d="M183.9308 183.5583
L184.0736 183.5583
" />
<path d="M184.5736 183.4154
L184.6451 183.4868
" />
<path d="M184.6451 183.4868
L184.5736 183.5583
" />
<path d="M184.5736 183.5583
L184.5022 183.4868
" />
<path d="M184.5022 183.4868
L184.5736 183.4154
" />
<path d="M184.5736 183.4154
L184.5736 183.5583
" />
<path d="M184.5736 182.6297
L184.6451 182.7011
" />
<path d="M184.6451 182.7011
L184.5736 182.7726
" />
<path d="M184.5736 182.7726
L184.5022 182.7011
" />
<path d="M184.5022 182.7011
L184.5736 182.6297
" />
<path d="M184.5736 182.6297
L184.5736 182.7726
" />
</g></g>
<g style="fill:#000000; fill-opacity:0.0; 
stroke:#000000; stroke-width:0.0212; stroke-opacity:1; 
stroke-linecap:round; stroke-linejoin:round;">
</g>
<g style="fill:#000000; fill-opacity:0.0; 
stroke:#000000; stroke-width:0.3000; stroke-opacity:1; 
stroke-linecap:round; stroke-linejoin:round;">
<text x="178.0022" y="180.7572"
textLength="0.7500" font-size="2.0000" lengthAdjust="spacingAndGlyphs"
text-anchor="start" opacity="0"></text>
<g class="stroked-text"><desc></desc>
</g></g>
<g style="fill:#000000; fill-opacity:0.0; 
stroke:#000000; stroke-width:0.0212; stroke-opacity:1; 
stroke-linecap:round; stroke-linejoin:round;">
</g>
<g style="fill:#000000; fill-opacity:0.0; 
stroke:#000000; stroke-width:0.1500; stroke-opacity:1; 
stroke-linecap:round; stroke-linejoin:round;">
<text x="178.0022" y="177.7572"
textLength="0.3750" font-size="2.0000" lengthAdjust="spacingAndGlyphs"
text-anchor="start" opacity="0"></text>
<g class="stroked-text"><desc></desc>
</g></g>
<g style="fill:#000000; fill-opacity:0.0; 
stroke:#000000; stroke-width:0.0212; stroke-opacity:1; 
stroke-linecap:round; stroke-linejoin:round;">
</g>
<g style="fill:#000000; fill-opacity:0.0; 
stroke:#000000; stroke-width:0.1500; stroke-opacity:1; 
stroke-linecap:round; stroke-linejoin:round;">
<text x="178.0022" y="174.7572"
textLength="0.3750" font-size="2.0000" lengthAdjust="spacingAndGlyphs"
text-anchor="start" opacity="0"></text>
<g class="stroked-text"><desc></desc>
</g></g>
<g style="fill:#000000; fill-opacity:0.0; 
stroke:#000000; stroke-width:0.0212; stroke-opacity:1; 
stroke-linecap:round; stroke-linejoin:round;">
</g>
<g style="fill:#000000; fill-opacity:0.0; 
stroke:#000000; stroke-width:0.1500; stroke-opacity:1; 
stroke-linecap:round; stroke-linejoin:round;">
<text x="178.0022" y="171.7572"
textLength="0.3750" font-size="2.0000" lengthAdjust="spacingAndGlyphs"
text-anchor="start" opacity="0"></text>
<g class="stroked-text"><desc></desc>
</g></g>
<g style="fill:#000000; fill-opacity:0.0; 
stroke:#000000; stroke-width:0.0212; stroke-opacity:1; 
stroke-linecap:round; stroke-linejoin:round;">
</g>
<g style="fill:#000000; fill-opacity:0.0; 
stroke:#000000; stroke-width:0.1500; stroke-opacity:1; 
stroke-linecap:round; stroke-linejoin:round;">
<text x="178.0022" y="168.7572"
textLength="0.3750" font-size="2.0000" lengthAdjust="spacingAndGlyphs"
text-anchor="start" opacity="0"></text>
<g class="stroked-text"><desc></desc>
</g></g>
<g style="fill:#000000; fill-opacity:0.0; 
stroke:#000000; stroke-width:0.0212; stroke-opacity:1; 
stroke-linecap:round; stroke-linejoin:round;">
</g>
<g style="fill:#000000; fill-opacity:0.0; 
stroke:#000000; stroke-width:0.1500; stroke-opacity:1; 
stroke-linecap:round; stroke-linejoin:round;">
<path d="M197.0022 191.5072
L197.0022 194.5072
" />
</g>
<g style="fill:#000000; fill-opacity:0.0; 
stroke:#000000; stroke-width:0.0212; stroke-opacity:1; 
stroke-linecap:round; stroke-linejoin:round;">
</g>
<g style="fill:#000000; fill-opacity:0.0; 
stroke:#000000; stroke-width:0.1500; stroke-opacity:1; 
stroke-linecap:round; stroke-linejoin:round;">
<path d="M261.0022 191.5072
L261.0022 198.0072
" />
</g>
<g style="fill:#FF26E2; fill-opacity:0.0; 
stroke:#FF26E2; stroke-width:0.1500; stroke-opacity:1; 
stroke-linecap:round; stroke-linejoin:round;">
</g>
<g style="fill:#FF26E2; fill-opacity:0.0; 
stroke:#FF26E2; stroke-width:0.0500; stroke-opacity:1; 
stroke-linecap:round; stroke-linejoin:round;">
<path d="M369.0938 15.0812
L386.5562 15.0812
" />
<path d="M386.5562 15.0812
L386.5562 30.9562
" />
<path d="M386.5562 30.9562
L369.0938 30.9562
" />
<path d="M369.0938 30.9562
L369.0938 15.0812
" />
<path d="M356.4625 84.4637
L351.5625 84.4637
" />
<path d="M356.4625 82.2237
L356.4625 84.4637
" />
<path d="M351.5625 84.4637
L351.5625 82.2237
" />
<path d="M351.5625 82.2237
L356.4625 82.2237
" />
<path d="M372.1488 47.0392
L372.1488 43.4892
" />
<path d="M383.3487 47.0392
L372.1488 47.0392
" />
<path d="M372.1488 43.4892
L383.3487 43.4892
" />
<path d="M383.3487 43.4892
L383.3487 47.0392
" />
<path d="M350.9062 84.4637
L346.0062 84.4637
" />
<path d="M350.9062 82.2237
L350.9062 84.4637
" />
<path d="M346.0062 84.4637
L346.0062 82.2237
" />
<path d="M346.0062 82.2237
L350.9062 82.2237
" />
<path d="M272.9062 134.7937
L272.9062 120.7937
" />
<path d="M272.9062 120.7937
L258.9062 120.7937
" />
<path d="M258.9062 134.7937
L272.9062 134.7937
" />
<path d="M258.9062 120.7937
L258.9062 134.7937
" />
<path d="M194.3250 77.6437
L194.3250 63.6437
" />
<path d="M194.3250 63.6437
L180.3250 63.6437
" />
<path d="M180.3250 77.6437
L194.3250 77.6437
" />
<path d="M180.3250 63.6437
L180.3250 77.6437
" />
<path d="M113.3625 115.7437
L113.3625 101.7437
" />
<path d="M113.3625 101.7437
L99.3625 101.7437
" />
<path d="M99.3625 115.7437
L113.3625 115.7437
" />
<path d="M99.3625 101.7437
L99.3625 115.7437
" />
<path d="M361.0125 58.5938
L361.0125 44.5938
" />
<path d="M361.0125 44.5938
L347.0125 44.5938
" />
<path d="M347.0125 58.5938
L361.0125 58.5938
" />
<path d="M347.0125 44.5938
L347.0125 58.5938
" />
<path d="M341.9625 134.7937
L341.9625 120.7937
" />
<path d="M341.9625 120.7937
L327.9625 120.7937
" />
<path d="M327.9625 134.7937
L341.9625 134.7937
" />
<path d="M327.9625 120.7937
L327.9625 134.7937
" />
<path d="M89.5500 58.5938
L89.5500 44.5938
" />
<path d="M89.5500 44.5938
L75.5500 44.5938
" />
<path d="M75.5500 58.5938
L89.5500 58.5938
" />
<path d="M75.5500 44.5938
L75.5500 58.5938
" />
<path d="M151.4625 115.7437
L151.4625 101.7437
" />
<path d="M151.4625 101.7437
L137.4625 101.7437
" />
<path d="M137.4625 115.7437
L151.4625 115.7437
" />
<path d="M137.4625 101.7437
L137.4625 115.7437
" />
<path d="M361.0125 77.6437
L361.0125 63.6437
" />
<path d="M361.0125 63.6437
L347.0125 63.6437
" />
<path d="M347.0125 77.6437
L361.0125 77.6437
" />
<path d="M347.0125 63.6437
L347.0125 77.6437
" />
<path d="M241.9500 58.5938
L241.9500 44.5938
" />
<path d="M241.9500 44.5938
L227.9500 44.5938
" />
<path d="M227.9500 58.5938
L241.9500 58.5938
" />
<path d="M227.9500 44.5938
L227.9500 58.5938
" />
<path d="M118.1250 77.6437
L118.1250 63.6437
" />
<path d="M118.1250 63.6437
L104.1250 63.6437
" />
<path d="M104.1250 77.6437
L118.1250 77.6437
" />
<path d="M104.1250 63.6437
L104.1250 77.6437
" />
<path d="M127.6500 58.5938
L127.6500 44.5938
" />
<path d="M127.6500 44.5938
L113.6500 44.5938
" />
<path d="M113.6500 58.5938
L127.6500 58.5938
" />
<path d="M113.6500 44.5938
L113.6500 58.5938
" />
<path d="M156.2250 30.0187
L156.2250 16.0188
" />
<path d="M156.2250 16.0188
L142.2250 16.0188
" />
<path d="M142.2250 30.0187
L156.2250 30.0187
" />
<path d="M142.2250 16.0188
L142.2250 30.0187
" />
<path d="M246.7125 115.7437
L246.7125 101.7437
" />
<path d="M246.7125 101.7437
L232.7125 101.7437
" />
<path d="M232.7125 115.7437
L246.7125 115.7437
" />
<path d="M232.7125 101.7437
L232.7125 115.7437
" />
<path d="M175.2750 77.6437
L175.2750 63.6437
" />
<path d="M175.2750 63.6437
L161.2750 63.6437
" />
<path d="M161.2750 77.6437
L175.2750 77.6437
" />
<path d="M161.2750 63.6437
L161.2750 77.6437
" />
<path d="M261.0000 30.0187
L261.0000 16.0188
" />
<path d="M261.0000 16.0188
L247.0000 16.0188
" />
<path d="M247.0000 30.0187
L261.0000 30.0187
" />
<path d="M247.0000 16.0188
L247.0000 30.0187
" />
<path d="M249.0938 134.7937
L249.0938 120.7937
" />
<path d="M249.0938 120.7937
L235.0938 120.7937
" />
<path d="M235.0938 134.7937
L249.0938 134.7937
" />
<path d="M235.0938 120.7937
L235.0938 134.7937
" />
<path d="M199.0875 96.6937
L199.0875 82.6937
" />
<path d="M199.0875 82.6937
L185.0875 82.6937
" />
<path d="M185.0875 96.6937
L199.0875 96.6937
" />
<path d="M185.0875 82.6937
L185.0875 96.6937
" />
<path d="M361.0125 30.0187
L361.0125 16.0188
" />
<path d="M361.0125 16.0188
L347.0125 16.0188
" />
<path d="M347.0125 30.0187
L361.0125 30.0187
" />
<path d="M347.0125 16.0188
L347.0125 30.0187
" />
<path d="M108.6000 30.0187
L108.6000 16.0188
" />
<path d="M108.6000 16.0188
L94.6000 16.0188
" />
<path d="M94.6000 30.0187
L108.6000 30.0187
" />
<path d="M94.6000 16.0188
L94.6000 30.0187
" />
<path d="M270.5250 77.6437
L270.5250 63.6437
" />
<path d="M270.5250 63.6437
L256.5250 63.6437
" />
<path d="M256.5250 77.6437
L270.5250 77.6437
" />
<path d="M256.5250 63.6437
L256.5250 77.6437
" />
<path d="M175.2750 30.0187
L175.2750 16.0188
" />
<path d="M175.2750 16.0188
L161.2750 16.0188
" />
<path d="M161.2750 30.0187
L175.2750 30.0187
" />
<path d="M161.2750 16.0188
L161.2750 30.0187
" />
<path d="M322.9125 134.7937
L322.9125 120.7937
" />
<path d="M322.9125 120.7937
L308.9125 120.7937
" />
<path d="M308.9125 134.7937
L322.9125 134.7937
" />
<path d="M308.9125 120.7937
L308.9125 134.7937
" />
<path d="M32.4000 58.5938
L32.4000 44.5938
" />
<path d="M32.4000 44.5938
L18.4000 44.5938
" />
<path d="M18.4000 58.5938
L32.4000 58.5938
" />
<path d="M18.4000 44.5938
L18.4000 58.5938
" />
<path d="M146.7000 58.5938
L146.7000 44.5938
" />
<path d="M146.7000 44.5938
L132.7000 44.5938
" />
<path d="M132.7000 58.5938
L146.7000 58.5938
" />
<path d="M132.7000 44.5938
L132.7000 58.5938
" />
<path d="M180.0375 96.6937
L180.0375 82.6937
" />
<path d="M180.0375 82.6937
L166.0375 82.6937
" />
<path d="M166.0375 96.6937
L180.0375 96.6937
" />
<path d="M166.0375 82.6937
L166.0375 96.6937
" />
<path d="M341.9625 115.7437
L341.9625 101.7437
" />
<path d="M341.9625 101.7437
L327.9625 101.7437
" />
<path d="M327.9625 115.7437
L341.9625 115.7437
" />
<path d="M327.9625 101.7437
L327.9625 115.7437
" />
<path d="M70.5000 58.5938
L70.5000 44.5938
" />
<path d="M70.5000 44.5938
L56.5000 44.5938
" />
<path d="M56.5000 58.5938
L70.5000 58.5938
" />
<path d="M56.5000 44.5938
L56.5000 58.5938
" />
<path d="M280.0500 30.0187
L280.0500 16.0188
" />
<path d="M280.0500 16.0188
L266.0500 16.0188
" />
<path d="M266.0500 30.0187
L280.0500 30.0187
" />
<path d="M266.0500 16.0188
L266.0500 30.0187
" />
<path d="M84.7875 96.6937
L84.7875 82.6937
" />
<path d="M84.7875 82.6937
L70.7875 82.6937
" />
<path d="M70.7875 96.6937
L84.7875 96.6937
" />
<path d="M70.7875 82.6937
L70.7875 96.6937
" />
<path d="M99.0750 77.6437
L99.0750 63.6437
" />
<path d="M99.0750 63.6437
L85.0750 63.6437
" />
<path d="M85.0750 77.6437
L99.0750 77.6437
" />
<path d="M85.0750 63.6437
L85.0750 77.6437
" />
<path d="M322.9125 58.5938
L322.9125 44.5938
" />
<path d="M322.9125 44.5938
L308.9125 44.5938
" />
<path d="M308.9125 58.5938
L322.9125 58.5938
" />
<path d="M308.9125 44.5938
L308.9125 58.5938
" />
<path d="M282.4312 115.7437
L282.4312 101.7437
" />
<path d="M282.4312 101.7437
L268.4312 101.7437
" />
<path d="M268.4312 115.7437
L282.4312 115.7437
" />
<path d="M268.4312 101.7437
L268.4312 115.7437
" />
<path d="M34.7812 134.7937
L34.7812 120.7937
" />
<path d="M34.7812 120.7937
L20.7812 120.7937
" />
<path d="M20.7812 134.7937
L34.7812 134.7937
" />
<path d="M20.7812 120.7937
L20.7812 134.7937
" />
<path d="M341.9625 58.5938
L341.9625 44.5938
" />
<path d="M341.9625 44.5938
L327.9625 44.5938
" />
<path d="M327.9625 58.5938
L341.9625 58.5938
" />
<path d="M327.9625 44.5938
L327.9625 58.5938
" />
<path d="M322.9125 77.6437
L322.9125 63.6437
" />
<path d="M322.9125 63.6437
L308.9125 63.6437
" />
<path d="M308.9125 77.6437
L322.9125 77.6437
" />
<path d="M308.9125 63.6437
L308.9125 77.6437
" />
<path d="M208.6125 115.7437
L208.6125 101.7437
" />
<path d="M208.6125 101.7437
L194.6125 101.7437
" />
<path d="M194.6125 115.7437
L208.6125 115.7437
" />
<path d="M194.6125 101.7437
L194.6125 115.7437
" />
<path d="M37.1625 77.6437
L37.1625 63.6437
" />
<path d="M37.1625 63.6437
L23.1625 63.6437
" />
<path d="M23.1625 77.6437
L37.1625 77.6437
" />
<path d="M23.1625 63.6437
L23.1625 77.6437
" />
<path d="M80.0250 77.6437
L80.0250 63.6437
" />
<path d="M80.0250 63.6437
L66.0250 63.6437
" />
<path d="M66.0250 77.6437
L80.0250 77.6437
" />
<path d="M66.0250 63.6437
L66.0250 77.6437
" />
<path d="M51.4500 58.5938
L51.4500 44.5938
" />
<path d="M51.4500 44.5938
L37.4500 44.5938
" />
<path d="M37.4500 58.5938
L51.4500 58.5938
" />
<path d="M37.4500 44.5938
L37.4500 58.5938
" />
<path d="M194.3250 30.0187
L194.3250 16.0188
" />
<path d="M194.3250 16.0188
L180.3250 16.0188
" />
<path d="M180.3250 30.0187
L194.3250 30.0187
" />
<path d="M180.3250 16.0188
L180.3250 30.0187
" />
<path d="M82.4062 134.7937
L82.4062 120.7937
" />
<path d="M82.4062 120.7937
L68.4062 120.7937
" />
<path d="M68.4062 134.7937
L82.4062 134.7937
" />
<path d="M68.4062 120.7937
L68.4062 134.7937
" />
<path d="M189.5625 115.7437
L189.5625 101.7437
" />
<path d="M189.5625 101.7437
L175.5625 101.7437
" />
<path d="M175.5625 115.7437
L189.5625 115.7437
" />
<path d="M175.5625 101.7437
L175.5625 115.7437
" />
<path d="M89.5500 30.0187
L89.5500 16.0188
" />
<path d="M89.5500 16.0188
L75.5500 16.0188
" />
<path d="M75.5500 30.0187
L89.5500 30.0187
" />
<path d="M75.5500 16.0188
L75.5500 30.0187
" />
<path d="M225.2812 134.7937
L225.2812 120.7937
" />
<path d="M225.2812 120.7937
L211.2812 120.7937
" />
<path d="M211.2812 134.7937
L225.2812 134.7937
" />
<path d="M211.2812 120.7937
L211.2812 134.7937
" />
<path d="M213.3750 30.0187
L213.3750 16.0188
" />
<path d="M213.3750 16.0188
L199.3750 16.0188
" />
<path d="M199.3750 30.0187
L213.3750 30.0187
" />
<path d="M199.3750 16.0188
L199.3750 30.0187
" />
<path d="M170.5125 115.7437
L170.5125 101.7437
" />
<path d="M170.5125 101.7437
L156.5125 101.7437
" />
<path d="M156.5125 115.7437
L170.5125 115.7437
" />
<path d="M156.5125 101.7437
L156.5125 115.7437
" />
<path d="M127.6500 30.0187
L127.6500 16.0188
" />
<path d="M127.6500 16.0188
L113.6500 16.0188
" />
<path d="M113.6500 30.0187
L127.6500 30.0187
" />
<path d="M113.6500 16.0188
L113.6500 30.0187
" />
<path d="M299.1000 30.0187
L299.1000 16.0188
" />
<path d="M299.1000 16.0188
L285.1000 16.0188
" />
<path d="M285.1000 30.0187
L299.1000 30.0187
" />
<path d="M285.1000 16.0188
L285.1000 30.0187
" />
<path d="M203.8500 58.5938
L203.8500 44.5938
" />
<path d="M203.8500 44.5938
L189.8500 44.5938
" />
<path d="M189.8500 58.5938
L203.8500 58.5938
" />
<path d="M189.8500 44.5938
L189.8500 58.5938
" />
<path d="M296.7188 87.1688
L296.7188 73.1688
" />
<path d="M296.7188 73.1688
L282.7188 73.1688
" />
<path d="M282.7188 87.1688
L296.7188 87.1688
" />
<path d="M282.7188 73.1688
L282.7188 87.1688
" />
<path d="M153.8438 134.7937
L153.8438 120.7937
" />
<path d="M153.8438 120.7937
L139.8438 120.7937
" />
<path d="M139.8438 134.7937
L153.8438 134.7937
" />
<path d="M139.8438 120.7937
L139.8438 134.7937
" />
<path d="M322.9125 30.0187
L322.9125 16.0188
" />
<path d="M322.9125 16.0188
L308.9125 16.0188
" />
<path d="M308.9125 30.0187
L322.9125 30.0187
" />
<path d="M308.9125 16.0188
L308.9125 30.0187
" />
<path d="M108.6000 58.5938
L108.6000 44.5938
" />
<path d="M108.6000 44.5938
L94.6000 44.5938
" />
<path d="M94.6000 58.5938
L108.6000 58.5938
" />
<path d="M94.6000 44.5938
L94.6000 58.5938
" />
<path d="M227.6625 115.7437
L227.6625 101.7437
" />
<path d="M227.6625 101.7437
L213.6625 101.7437
" />
<path d="M213.6625 115.7437
L227.6625 115.7437
" />
<path d="M213.6625 101.7437
L213.6625 115.7437
" />
<path d="M160.9875 96.6937
L160.9875 82.6937
" />
<path d="M160.9875 82.6937
L146.9875 82.6937
" />
<path d="M146.9875 96.6937
L160.9875 96.6937
" />
<path d="M146.9875 82.6937
L146.9875 96.6937
" />
<path d="M361.0125 134.7937
L361.0125 120.7937
" />
<path d="M361.0125 120.7937
L347.0125 120.7937
" />
<path d="M347.0125 134.7937
L361.0125 134.7937
" />
<path d="M347.0125 120.7937
L347.0125 134.7937
" />
<path d="M60.9750 77.6437
L60.9750 63.6437
" />
<path d="M60.9750 63.6437
L46.9750 63.6437
" />
<path d="M46.9750 77.6437
L60.9750 77.6437
" />
<path d="M46.9750 63.6437
L46.9750 77.6437
" />
<path d="M141.9375 96.6937
L141.9375 82.6937
" />
<path d="M141.9375 82.6937
L127.9375 82.6937
" />
<path d="M127.9375 96.6937
L141.9375 96.6937
" />
<path d="M127.9375 82.6937
L127.9375 96.6937
" />
<path d="M341.9625 30.0187
L341.9625 16.0188
" />
<path d="M341.9625 16.0188
L327.9625 16.0188
" />
<path d="M327.9625 30.0187
L341.9625 30.0187
" />
<path d="M327.9625 16.0188
L327.9625 30.0187
" />
<path d="M122.8875 96.6937
L122.8875 82.6937
" />
<path d="M122.8875 82.6937
L108.8875 82.6937
" />
<path d="M108.8875 96.6937
L122.8875 96.6937
" />
<path d="M108.8875 82.6937
L108.8875 96.6937
" />
<path d="M75.2625 115.7437
L75.2625 101.7437
" />
<path d="M75.2625 101.7437
L61.2625 101.7437
" />
<path d="M61.2625 115.7437
L75.2625 115.7437
" />
<path d="M61.2625 101.7437
L61.2625 115.7437
" />
<path d="M275.2875 96.6937
L275.2875 82.6937
" />
<path d="M275.2875 82.6937
L261.2875 82.6937
" />
<path d="M261.2875 96.6937
L275.2875 96.6937
" />
<path d="M261.2875 82.6937
L261.2875 96.6937
" />
<path d="M341.9625 77.6437
L341.9625 63.6437
" />
<path d="M341.9625 63.6437
L327.9625 63.6437
" />
<path d="M327.9625 77.6437
L341.9625 77.6437
" />
<path d="M327.9625 63.6437
L327.9625 77.6437
" />
<path d="M165.7500 58.5938
L165.7500 44.5938
" />
<path d="M165.7500 44.5938
L151.7500 44.5938
" />
<path d="M151.7500 58.5938
L165.7500 58.5938
" />
<path d="M151.7500 44.5938
L151.7500 58.5938
" />
<path d="M39.5437 96.6937
L39.5437 82.6937
" />
<path d="M39.5437 82.6937
L25.5437 82.6937
" />
<path d="M25.5437 96.6937
L39.5437 96.6937
" />
<path d="M25.5437 82.6937
L25.5437 96.6937
" />
<path d="M94.3125 115.7437
L94.3125 101.7437
" />
<path d="M94.3125 101.7437
L80.3125 101.7437
" />
<path d="M80.3125 115.7437
L94.3125 115.7437
" />
<path d="M80.3125 101.7437
L80.3125 115.7437
" />
<path d="M296.7188 134.7937
L296.7188 120.7937
" />
<path d="M296.7188 120.7937
L282.7188 120.7937
" />
<path d="M282.7188 134.7937
L296.7188 134.7937
" />
<path d="M282.7188 120.7937
L282.7188 134.7937
" />
<path d="M213.3750 77.6437
L213.3750 63.6437
" />
<path d="M213.3750 63.6437
L199.3750 63.6437
" />
<path d="M199.3750 77.6437
L213.3750 77.6437
" />
<path d="M199.3750 63.6437
L199.3750 77.6437
" />
<path d="M65.7375 96.6937
L65.7375 82.6937
" />
<path d="M65.7375 82.6937
L51.7375 82.6937
" />
<path d="M51.7375 96.6937
L65.7375 96.6937
" />
<path d="M51.7375 82.6937
L51.7375 96.6937
" />
<path d="M156.2250 77.6437
L156.2250 63.6437
" />
<path d="M156.2250 63.6437
L142.2250 63.6437
" />
<path d="M142.2250 77.6437
L156.2250 77.6437
" />
<path d="M142.2250 63.6437
L142.2250 77.6437
" />
<path d="M32.4000 30.0187
L32.4000 16.0188
" />
<path d="M32.4000 16.0188
L18.4000 16.0188
" />
<path d="M18.4000 30.0187
L32.4000 30.0187
" />
<path d="M18.4000 16.0188
L18.4000 30.0187
" />
<path d="M256.2375 96.6937
L256.2375 82.6937
" />
<path d="M256.2375 82.6937
L242.2375 82.6937
" />
<path d="M242.2375 96.6937
L256.2375 96.6937
" />
<path d="M242.2375 82.6937
L242.2375 96.6937
" />
<path d="M289.5750 58.5938
L289.5750 44.5938
" />
<path d="M289.5750 44.5938
L275.5750 44.5938
" />
<path d="M275.5750 58.5938
L289.5750 58.5938
" />
<path d="M275.5750 44.5938
L275.5750 58.5938
" />
<path d="M251.4750 77.6437
L251.4750 63.6437
" />
<path d="M251.4750 63.6437
L237.4750 63.6437
" />
<path d="M237.4750 77.6437
L251.4750 77.6437
" />
<path d="M237.4750 63.6437
L237.4750 77.6437
" />
<path d="M132.4125 115.7437
L132.4125 101.7437
" />
<path d="M132.4125 101.7437
L118.4125 101.7437
" />
<path d="M118.4125 115.7437
L132.4125 115.7437
" />
<path d="M118.4125 101.7437
L118.4125 115.7437
" />
<path d="M218.1375 96.6937
L218.1375 82.6937
" />
<path d="M218.1375 82.6937
L204.1375 82.6937
" />
<path d="M204.1375 96.6937
L218.1375 96.6937
" />
<path d="M204.1375 82.6937
L204.1375 96.6937
" />
<path d="M241.9500 30.0187
L241.9500 16.0188
" />
<path d="M241.9500 16.0188
L227.9500 16.0188
" />
<path d="M227.9500 30.0187
L241.9500 30.0187
" />
<path d="M227.9500 16.0188
L227.9500 30.0187
" />
<path d="M261.0000 58.5938
L261.0000 44.5938
" />
<path d="M261.0000 44.5938
L247.0000 44.5938
" />
<path d="M247.0000 58.5938
L261.0000 58.5938
" />
<path d="M247.0000 44.5938
L247.0000 58.5938
" />
<path d="M58.5938 134.7937
L58.5938 120.7937
" />
<path d="M58.5938 120.7937
L44.5938 120.7937
" />
<path d="M44.5938 134.7937
L58.5938 134.7937
" />
<path d="M44.5938 120.7937
L44.5938 134.7937
" />
<path d="M232.4250 77.6437
L232.4250 63.6437
" />
<path d="M232.4250 63.6437
L218.4250 63.6437
" />
<path d="M218.4250 77.6437
L232.4250 77.6437
" />
<path d="M218.4250 63.6437
L218.4250 77.6437
" />
<path d="M237.1875 96.6937
L237.1875 82.6937
" />
<path d="M237.1875 82.6937
L223.1875 82.6937
" />
<path d="M223.1875 96.6937
L237.1875 96.6937
" />
<path d="M223.1875 82.6937
L223.1875 96.6937
" />
<path d="M222.9000 58.5938
L222.9000 44.5938
" />
<path d="M222.9000 44.5938
L208.9000 44.5938
" />
<path d="M208.9000 58.5938
L222.9000 58.5938
" />
<path d="M208.9000 44.5938
L208.9000 58.5938
" />
<path d="M103.8375 96.6937
L103.8375 82.6937
" />
<path d="M103.8375 82.6937
L89.8375 82.6937
" />
<path d="M89.8375 96.6937
L103.8375 96.6937
" />
<path d="M89.8375 82.6937
L89.8375 96.6937
" />
<path d="M137.1750 77.6437
L137.1750 63.6437
" />
<path d="M137.1750 63.6437
L123.1750 63.6437
" />
<path d="M123.1750 77.6437
L137.1750 77.6437
" />
<path d="M123.1750 63.6437
L123.1750 77.6437
" />
<path d="M70.5000 30.0187
L70.5000 16.0188
" />
<path d="M70.5000 16.0188
L56.5000 16.0188
" />
<path d="M56.5000 30.0187
L70.5000 30.0187
" />
<path d="M56.5000 16.0188
L56.5000 30.0187
" />
<path d="M44.3062 115.7437
L44.3062 101.7437
" />
<path d="M44.3062 101.7437
L30.3062 101.7437
" />
<path d="M30.3062 115.7437
L44.3062 115.7437
" />
<path d="M30.3062 101.7437
L30.3062 115.7437
" />
<path d="M184.8000 58.5938
L184.8000 44.5938
" />
<path d="M184.8000 44.5938
L170.8000 44.5938
" />
<path d="M170.8000 58.5938
L184.8000 58.5938
" />
<path d="M170.8000 44.5938
L170.8000 58.5938
" />
<g >
</g>
<g >
</g>
<g >
</g>
<g >
</g>
<g >
</g>
<g >
</g>
<g >
</g>
<g >
</g>
<g >
</g>
<g >
</g>
<g >
</g>
<g >
</g>
<g >
</g>
<g >
</g>
<g >
</g>
<g >
</g>
<g >
</g>
<g >
</g>
<g >
</g>
<g >
</g>
<g >
</g>
<g >
</g>
<g >
</g>
<g >
</g>
<g >
</g>
<g >
</g>
<g >
</g>
<g >
</g>
<g >
</g>
<g >
</g>
<g >
</g>
<g >
</g>
<g >
</g>
<g >
</g>
<g >
</g>
<g >
</g>
<g >
</g>
<g >
</g>
<g >
</g>
<g >
</g>
<g >
</g>
<g >
</g>
<g >
</g>
<g >
</g>
<g >
</g>
<g >
</g>
<g >
</g>
<g >
</g>
<g >
</g>
<g >
</g>
<g >
</g>
<g >
</g>
<g >
</g>
<g >
</g>
<g >
</g>
<g >
</g>
<g >
</g>
<g >
</g>
<g >
</g>
<g >
</g>
<g >
</g>
<g >
</g>
<g >
</g>
<g >
</g>
<g >
</g>
<g >
</g>
<g >
</g>
<g >
</g>
<g >
</g>
<g >
</g>
<g >
</g>
<g >
</g>
<g >
</g>
<g >
</g>
<g >
</g>
<g >
</g>
<g >
</g>
<g >
</g>
<g >
</g>
<g >
</g>
<g >
</g>
<g >
</g>
<g >
</g>
<g >
</g>
<g >
</g>
<g >
</g>
<g >
</g>
<g >
</g>
<g >
</g>
<g >
</g>
<g >
</g>
<g >
</g>
<g >
</g>
<g >
</g>
<g >
</g>
<g >
</g>
<g >
</g>
<g >
</g>
<g >
</g>
<g >
</g>
<g >
</g>
<g >
</g>
<g >
</g>
<g >
</g>
<g >
</g>
<g >
</g>
<g >
</g>
<g >
</g>
<g >
</g>
<g >
</g>
<g >
</g>
<g >
</g>
<g >
</g>
<g >
</g>
<g >
</g>
<g >
</g>
<g >
</g>
<g >
</g>
<g >
</g>
<g >
</g>
<g >
</g>
<g >
</g>
<g >
</g>
<g >
</g>
<g >
</g>
<g >
</g>
<g >
</g>
<g >
</g>
<g >
</g>
<g >
</g>
<g >
</g>
<g >
</g>
<g >
</g>
<g >
</g>
<g >
</g>
<g >
</g>
<g >
</g>
<g >
</g>
<g >
</g>
<g >
</g>
<g >
</g>
<g >
</g>
<g >
</g>
<g >
</g>
<g >
</g>
<g >
</g>
<g >
</g>
<g >
</g>
<g >
</g>
<g >
</g>
<g >
</g>
<g >
</g>
<g >
</g>
<g >
</g>
<g >
</g>
<g >
</g>
<g >
</g>
<g >
</g>
<g >
</g>
<g >
</g>
<g >
</g>
<g >
</g>
<g >
</g>
<g >
</g>
<g >
</g>
<g >
</g>
<g >
</g>
<g >
</g>
<g >
</g>
<g >
</g>
<g >
</g>
<g >
</g>
<g >
</g>
<g >
</g>
<g >
</g>
<g >
</g>
<g >
</g>
<g >
</g>
<g >
</g>
<g >
</g>
<g >
</g>
<g >
</g>
<g >
</g>
<g >
</g>
<g >
</g>
<g >
</g>
<g >
</g>
<g >
</g>
<g >
</g>
<g >
</g>
<g >
</g>
<g >
</g>
<g >
</g>
<g >
</g>
<g >
</g>
<g >
</g>
<g >
</g>
<g >
</g>
<g >
</g>
<g >
</g>
<g >
</g>
<g >
</g>
<g >
</g>
<g >
</g>
<g >
</g>
<g >
</g>
<g >
</g>
<g >
</g>
<g >
</g>
<g >
</g>
<g >
</g>
<g >
</g>
<g >
</g>
<g >
</g>
<g >
</g>
<g >
</g>
<g >
</g>
<g >
</g>
<g >
</g>
<g >
</g>
<g >
</g>
<g >
</g>
<g >
</g>
<g >
</g>
<g >
</g>
</g>
<g style="fill:#000000; fill-opacity:0.0; 
stroke:#000000; stroke-width:0.0500; stroke-opacity:1; 
stroke-linecap:round; stroke-linejoin:round;">
</g>
<g style="fill:#D0D2CD; fill-opacity:0.0; 
stroke:#D0D2CD; stroke-width:0.0500; stroke-opacity:1; 
stroke-linecap:round; stroke-linejoin:round;">
</g>
<g style="fill:#D0D2CD; fill-opacity:0.0; 
stroke:#D0D2CD; stroke-width:0.1000; stroke-opacity:1; 
stroke-linecap:round; stroke-linejoin:round;">
<path d="M22.2012 12.8449 A6.0000 6.0000 0.0 0 0 16.2012 18.8449" />
<path d="M389.7429 18.8449 A6.0000 6.0000 0.0 0 0 383.7429 12.8449" />
<path d="M16.2012 131.0427 A6.0000 6.0000 0.0 0 0 22.2012 137.0427" />
<path d="M16.2012 131.0427
L16.2012 18.8449
" />
<path d="M389.7429 18.8449
L389.7429 131.0427
" />
<path d="M383.7429 137.0427 A6.0000 6.0000 0.0 0 0 389.7429 131.0427" />
<path d="M22.2012 12.8449
L383.7429 12.8449
" />
<path d="M383.7429 137.0427
L22.2012 137.0427
" />
<g >
</g>
<g >
</g>
<g >
</g>
<g >
</g>
<g >
</g>
<g >
</g>
<g >
</g>
<g >
</g>
<g >
</g>
<g >
</g>
<g >
</g>
<g >
</g>
<g >
</g>
<g >
</g>
<g >
</g>
<g >
</g>
<g >
</g>
<g >
</g>
<g >
</g>
<g >
</g>
<g >
</g>
<g >
</g>
<g >
</g>
<g >
</g>
<g >
</g>
<g >
</g>
<g >
</g>
<g >
</g>
<g >
</g>
<g >
</g>
<g >
</g>
<g >
</g>
<g >
</g>
<g >
</g>
<g >
</g>
<g >
</g>
<g >
</g>
<g >
</g>
<g >
</g>
<g >
</g>
<g >
</g>
<g >
</g>
<g >
</g>
<g >
</g>
<g >
</g>
<g >
</g>
<g >
</g>
<g >
</g>
<g >
</g>
<g >
</g>
<g >
</g>
<g >
</g>
<g >
</g>
<g >
</g>
<g >
</g>
<g >
</g>
<g >
</g>
<g >
</g>
<g >
</g>
<g >
</g>
<g >
</g>
<g >
</g>
<g >
</g>
<g >
</g>
<g >
</g>
<g >
</g>
<g >
</g>
<g >
</g>
<g >
</g>
<g >
</g>
<g >
</g>
<g >
</g>
<g >
</g>
<g >
</g>
<g >
</g>
<g >
</g>
<g >
</g>
<g >
</g>
<g >
</g>
<g >
</g>
<g >
</g>
<g >
</g>
<g >
</g>
<g >
</g>
<g >
</g>
<g >
</g>
<g >
</g>
<g >
</g>
<g >
</g>
<g >
</g>
<g >
</g>
<g >
</g>
<g >
</g>
<g >
</g>
<g >
</g>
<g >
</g>
<g >
</g>
<g >
</g>
<g >
</g>
<g >
</g>
<g >
</g>
<g >
</g>
<g >
</g>
<g >
</g>
<g >
</g>
<g >
</g>
<g >
</g>
<g >
</g>
<g >
</g>
<g >
</g>
<g >
</g>
<g >
</g>
<g >
</g>
<g >
</g>
<g >
</g>
<g >
</g>
<g >
</g>
<g >
</g>
<g >
</g>
<g >
</g>
<g >
</g>
<g >
</g>
<g >
</g>
<g >
</g>
<g >
</g>
<g >
</g>
<g >
</g>
<g >
</g>
<g >
</g>
<g >
</g>
<g >
</g>
<g >
</g>
<g >
</g>
<g >
</g>
<g >
</g>
<g >
</g>
<g >
</g>
<g >
</g>
<g >
</g>
<g >
</g>
<g >
</g>
<g >
</g>
<g >
</g>
<g >
</g>
<g >
</g>
<g >
</g>
<g >
</g>
<g >
</g>
<g >
</g>
<g >
</g>
<g >
</g>
<g >
</g>
<g >
</g>
<g >
</g>
<g >
</g>
<g >
</g>
<g >
</g>
<g >
</g>
<g >
</g>
<g >
</g>
<g >
</g>
<g >
</g>
<g >
</g>
<g >
</g>
<g >
</g>
<g >
</g>
<g >
</g>
<g >
</g>
<g >
</g>
<g >
</g>
<g >
</g>
<g >
</g>
<g >
</g>
<g >
</g>
<g >
</g>
<g >
</g>
<g >
</g>
<g >
</g>
<g >
</g>
<g >
</g>
<g >
</g>
<g >
</g>
<g >
</g>
<g >
</g>
<g >
</g>
<g >
</g>
<g >
</g>
<g >
</g>
<g >
</g>
<g >
</g>
<g >
</g>
<g >
</g>
<g >
</g>
<g >
</g>
<g >
</g>
<g >
</g>
<g >
</g>
<g >
</g>
<g >
</g>
<g >
</g>
<g >
</g>
<g >
</g>
<g >
</g>
<g >
</g>
<g >
</g>
<g >
</g>
<g >
</g>
<g >
</g>
<g >
</g>
<g >
</g>
<g >
</g>
<g >
</g>
<g >
</g>
<g >
</g>
<g >
</g>
<g >
</g>
<g >
</g>
<g >
</g>
<g >
</g>
<g >
</g>
<g >
</g>
<g >
</g>
<g >
</g>
<g >
</g>
<g >
</g>
</g> 
</svg>
